%TF.GenerationSoftware,KiCad,Pcbnew,7.0.6*%
%TF.CreationDate,2023-07-28T13:42:51+02:00*%
%TF.ProjectId,robi,726f6269-2e6b-4696-9361-645f70636258,rev?*%
%TF.SameCoordinates,Original*%
%TF.FileFunction,Copper,L2,Bot*%
%TF.FilePolarity,Positive*%
%FSLAX46Y46*%
G04 Gerber Fmt 4.6, Leading zero omitted, Abs format (unit mm)*
G04 Created by KiCad (PCBNEW 7.0.6) date 2023-07-28 13:42:51*
%MOMM*%
%LPD*%
G01*
G04 APERTURE LIST*
G04 Aperture macros list*
%AMRoundRect*
0 Rectangle with rounded corners*
0 $1 Rounding radius*
0 $2 $3 $4 $5 $6 $7 $8 $9 X,Y pos of 4 corners*
0 Add a 4 corners polygon primitive as box body*
4,1,4,$2,$3,$4,$5,$6,$7,$8,$9,$2,$3,0*
0 Add four circle primitives for the rounded corners*
1,1,$1+$1,$2,$3*
1,1,$1+$1,$4,$5*
1,1,$1+$1,$6,$7*
1,1,$1+$1,$8,$9*
0 Add four rect primitives between the rounded corners*
20,1,$1+$1,$2,$3,$4,$5,0*
20,1,$1+$1,$4,$5,$6,$7,0*
20,1,$1+$1,$6,$7,$8,$9,0*
20,1,$1+$1,$8,$9,$2,$3,0*%
%AMFreePoly0*
4,1,101,0.523063,1.238106,0.538902,1.238106,0.551715,1.228796,0.566779,1.223902,0.576088,1.211088,0.588902,1.201779,0.593796,1.186715,0.603106,1.173902,0.603106,1.158062,0.608000,1.143000,0.608000,0.609600,0.609600,0.609600,0.609600,0.608000,1.143000,0.608000,1.158063,0.603106,1.173902,0.603106,1.186715,0.593796,1.201779,0.588902,1.211088,0.576088,1.223902,0.566779,
1.228796,0.551715,1.238106,0.538902,1.238106,0.523062,1.243000,0.508000,1.243000,-0.508000,1.238106,-0.523062,1.238106,-0.538902,1.228796,-0.551715,1.223902,-0.566779,1.211088,-0.576088,1.201779,-0.588902,1.186715,-0.593796,1.173902,-0.603106,1.158063,-0.603106,1.143000,-0.608000,0.609600,-0.608000,0.609600,-0.609600,0.608000,-0.609600,0.608000,-1.143000,0.603106,-1.158062,
0.603106,-1.173902,0.593796,-1.186715,0.588902,-1.201779,0.576088,-1.211088,0.566779,-1.223902,0.551715,-1.228796,0.538902,-1.238106,0.523063,-1.238106,0.508000,-1.243000,-0.508000,-1.243000,-0.523063,-1.238106,-0.538902,-1.238106,-0.551715,-1.228796,-0.566779,-1.223902,-0.576088,-1.211088,-0.588902,-1.201779,-0.593796,-1.186715,-0.603106,-1.173902,-0.603106,-1.158062,-0.608000,-1.143000,
-0.608000,-0.609600,-0.609600,-0.609600,-0.609600,-0.608000,-1.143000,-0.608000,-1.158063,-0.603106,-1.173902,-0.603106,-1.186715,-0.593796,-1.201779,-0.588902,-1.211088,-0.576088,-1.223902,-0.566779,-1.228796,-0.551715,-1.238106,-0.538902,-1.238106,-0.523062,-1.243000,-0.508000,-1.243000,0.508000,-1.238106,0.523062,-1.238106,0.538902,-1.228796,0.551715,-1.223902,0.566779,-1.211088,0.576088,
-1.201779,0.588902,-1.186715,0.593796,-1.173902,0.603106,-1.158063,0.603106,-1.143000,0.608000,-0.609600,0.608000,-0.609600,0.609600,-0.608000,0.609600,-0.608000,1.143000,-0.603106,1.158062,-0.603106,1.173902,-0.593796,1.186715,-0.588902,1.201779,-0.576088,1.211088,-0.566779,1.223902,-0.551715,1.228796,-0.538902,1.238106,-0.523063,1.238106,-0.508000,1.243000,0.508000,1.243000,
0.523063,1.238106,0.523063,1.238106,$1*%
G04 Aperture macros list end*
%TA.AperFunction,ComponentPad*%
%ADD10R,1.800000X1.800000*%
%TD*%
%TA.AperFunction,ComponentPad*%
%ADD11FreePoly0,90.000000*%
%TD*%
%TA.AperFunction,WasherPad*%
%ADD12C,5.500000*%
%TD*%
%TA.AperFunction,ComponentPad*%
%ADD13R,3.000000X3.000000*%
%TD*%
%TA.AperFunction,ComponentPad*%
%ADD14C,3.000000*%
%TD*%
%TA.AperFunction,SMDPad,CuDef*%
%ADD15RoundRect,0.500000X-1.500000X-0.500000X1.500000X-0.500000X1.500000X0.500000X-1.500000X0.500000X0*%
%TD*%
%TA.AperFunction,Conductor*%
%ADD16C,1.000000*%
%TD*%
G04 APERTURE END LIST*
D10*
%TO.P,D2,1,K*%
%TO.N,GND*%
X85725000Y-51816000D03*
D11*
%TO.P,D2,2,A*%
%TO.N,VCC*%
X85725000Y-49276000D03*
%TD*%
D10*
%TO.P,D1,1,K*%
%TO.N,GND*%
X69342000Y-51816000D03*
D11*
%TO.P,D1,2,A*%
%TO.N,VCC*%
X69342000Y-49276000D03*
%TD*%
D12*
%TO.P,,*%
%TO.N,*%
X77610000Y-45110000D03*
%TD*%
D13*
%TO.P,Batterie,1,+*%
%TO.N,+3V0*%
X77500000Y-76000000D03*
D14*
%TO.P,Batterie,2,-*%
%TO.N,GND*%
X77500000Y-56000000D03*
%TD*%
D15*
%TO.P,SW1,1*%
%TO.N,VCC*%
X67100000Y-89800000D03*
%TO.P,SW1,2*%
%TO.N,+3V0*%
X89100000Y-89800000D03*
%TD*%
D16*
%TO.N,+3V0*%
X89100000Y-85798000D02*
X89100000Y-89800000D01*
X85090000Y-81788000D02*
X89100000Y-85798000D01*
X77500000Y-80548000D02*
X78740000Y-81788000D01*
X78740000Y-81788000D02*
X85090000Y-81788000D01*
X77500000Y-76000000D02*
X77500000Y-80548000D01*
%TO.N,GND*%
X77500000Y-52500000D02*
X76816000Y-51816000D01*
X76816000Y-51816000D02*
X69342000Y-51816000D01*
X77500000Y-52500000D02*
X78184000Y-51816000D01*
X78184000Y-51816000D02*
X85725000Y-51816000D01*
%TO.N,VCC*%
X85725000Y-49276000D02*
X85725000Y-46863000D01*
X76200000Y-49276000D02*
X72644000Y-45720000D01*
X85725000Y-46863000D02*
X84582000Y-45720000D01*
X84582000Y-45720000D02*
X82804000Y-45720000D01*
X82804000Y-45720000D02*
X79248000Y-49276000D01*
X79248000Y-49276000D02*
X76200000Y-49276000D01*
X72644000Y-45720000D02*
X67818000Y-45720000D01*
X69342000Y-49276000D02*
X69342000Y-47244000D01*
X69342000Y-47244000D02*
X67818000Y-45720000D01*
X64000000Y-49538000D02*
X64000000Y-86700000D01*
X67818000Y-45720000D02*
X64000000Y-49538000D01*
X64000000Y-86700000D02*
X67100000Y-89800000D01*
%TO.N,GND*%
X77500000Y-56000000D02*
X77500000Y-52500000D01*
X77500000Y-52500000D02*
X77100000Y-52100000D01*
X77100000Y-56000000D02*
X77500000Y-56400000D01*
%TD*%
%TA.AperFunction,NonConductor*%
G36*
X72241943Y-46748185D02*
G01*
X72262585Y-46764819D01*
X75449696Y-49951930D01*
X75453776Y-49956432D01*
X75483431Y-49992568D01*
X75581518Y-50073065D01*
X75636738Y-50118383D01*
X75636996Y-50118595D01*
X75636997Y-50118595D01*
X75636999Y-50118597D01*
X75812191Y-50212239D01*
X75812193Y-50212239D01*
X75812196Y-50212241D01*
X76002299Y-50269908D01*
X76002298Y-50269908D01*
X76020024Y-50271653D01*
X76200000Y-50289380D01*
X76233922Y-50286038D01*
X76246515Y-50284799D01*
X76252596Y-50284500D01*
X79195402Y-50284500D01*
X79201482Y-50284799D01*
X79215511Y-50286180D01*
X79248000Y-50289380D01*
X79445701Y-50269909D01*
X79635804Y-50212241D01*
X79679141Y-50189077D01*
X79811004Y-50118595D01*
X79964568Y-49992568D01*
X79994238Y-49956413D01*
X79998288Y-49951944D01*
X83185414Y-46764819D01*
X83246738Y-46731334D01*
X83273096Y-46728500D01*
X84112904Y-46728500D01*
X84179943Y-46748185D01*
X84200585Y-46764819D01*
X84680181Y-47244415D01*
X84713666Y-47305738D01*
X84716500Y-47332096D01*
X84716500Y-47734829D01*
X84703774Y-47789548D01*
X84698052Y-47801184D01*
X84689144Y-47816444D01*
X84684829Y-47822755D01*
X84684827Y-47822758D01*
X84650633Y-47897630D01*
X84643349Y-47912447D01*
X84643332Y-47912490D01*
X84643147Y-47913059D01*
X84640591Y-47919618D01*
X84624080Y-47955773D01*
X84610118Y-48052881D01*
X84581092Y-48116437D01*
X84522314Y-48154210D01*
X84512008Y-48156763D01*
X84376861Y-48184150D01*
X84357203Y-48194523D01*
X84341016Y-48201639D01*
X84333784Y-48204219D01*
X84333771Y-48204225D01*
X84262144Y-48244682D01*
X84247535Y-48252391D01*
X84247503Y-48252411D01*
X84247000Y-48252777D01*
X84241089Y-48256573D01*
X84206463Y-48276131D01*
X84206460Y-48276133D01*
X84190979Y-48292065D01*
X84177772Y-48303844D01*
X84171740Y-48308494D01*
X84148691Y-48333607D01*
X84115992Y-48369236D01*
X84112255Y-48373081D01*
X84104560Y-48381000D01*
X84104536Y-48381029D01*
X84104194Y-48381500D01*
X84099739Y-48386944D01*
X84072863Y-48416230D01*
X84063053Y-48436181D01*
X84054144Y-48451444D01*
X84049829Y-48457755D01*
X84049827Y-48457758D01*
X84015633Y-48532630D01*
X84008349Y-48547447D01*
X84008332Y-48547490D01*
X84008147Y-48548059D01*
X84005591Y-48554618D01*
X83989080Y-48590774D01*
X83968271Y-48735507D01*
X83968271Y-49816493D01*
X83969108Y-49845818D01*
X83969108Y-49845826D01*
X83983629Y-49917481D01*
X83998150Y-49989137D01*
X84002502Y-49997384D01*
X84008525Y-50008800D01*
X84015642Y-50024991D01*
X84018222Y-50032222D01*
X84041075Y-50072682D01*
X84053248Y-50094235D01*
X84058683Y-50103856D01*
X84066390Y-50118462D01*
X84066391Y-50118463D01*
X84066751Y-50118959D01*
X84070571Y-50124904D01*
X84090134Y-50159540D01*
X84090135Y-50159541D01*
X84106062Y-50175017D01*
X84117848Y-50188232D01*
X84122499Y-50194264D01*
X84142087Y-50212241D01*
X84183234Y-50250006D01*
X84189119Y-50255723D01*
X84195002Y-50261440D01*
X84195007Y-50261443D01*
X84195012Y-50261448D01*
X84195451Y-50261767D01*
X84200931Y-50266248D01*
X84230224Y-50293132D01*
X84230225Y-50293132D01*
X84230228Y-50293135D01*
X84250175Y-50302942D01*
X84265450Y-50311857D01*
X84271765Y-50316176D01*
X84305276Y-50331480D01*
X84346630Y-50350366D01*
X84352674Y-50353337D01*
X84361448Y-50357651D01*
X84362002Y-50357831D01*
X84368597Y-50360396D01*
X84404774Y-50376919D01*
X84404775Y-50376919D01*
X84405344Y-50377179D01*
X84458147Y-50422935D01*
X84477830Y-50489975D01*
X84458144Y-50557014D01*
X84453097Y-50564282D01*
X84374112Y-50669793D01*
X84374111Y-50669793D01*
X84352836Y-50726835D01*
X84310964Y-50782768D01*
X84245500Y-50807184D01*
X84236655Y-50807500D01*
X78236598Y-50807500D01*
X78230518Y-50807201D01*
X78184000Y-50802620D01*
X77986297Y-50822091D01*
X77909283Y-50845453D01*
X77820854Y-50872279D01*
X77796196Y-50879759D01*
X77796193Y-50879760D01*
X77796191Y-50879761D01*
X77621001Y-50973401D01*
X77620994Y-50973405D01*
X77578664Y-51008145D01*
X77514354Y-51035457D01*
X77445486Y-51023665D01*
X77421336Y-51008145D01*
X77379005Y-50973405D01*
X77378998Y-50973401D01*
X77203808Y-50879761D01*
X77203807Y-50879760D01*
X77203804Y-50879759D01*
X77179146Y-50872279D01*
X77063889Y-50837315D01*
X77013702Y-50822091D01*
X76914850Y-50812355D01*
X76816000Y-50802620D01*
X76815999Y-50802620D01*
X76769482Y-50807201D01*
X76763402Y-50807500D01*
X70830345Y-50807500D01*
X70763306Y-50787815D01*
X70717551Y-50735011D01*
X70714164Y-50726835D01*
X70706752Y-50706963D01*
X70692889Y-50669796D01*
X70613726Y-50564047D01*
X70589310Y-50498585D01*
X70604162Y-50430312D01*
X70653567Y-50380906D01*
X70688370Y-50368208D01*
X70690137Y-50367850D01*
X70709796Y-50357475D01*
X70725996Y-50350355D01*
X70733221Y-50347778D01*
X70804855Y-50307317D01*
X70819460Y-50299611D01*
X70819944Y-50299259D01*
X70825870Y-50295447D01*
X70860539Y-50275866D01*
X70872215Y-50263849D01*
X70876014Y-50259940D01*
X70889240Y-50248145D01*
X70895264Y-50243501D01*
X70951007Y-50182763D01*
X70962440Y-50170998D01*
X70962765Y-50170549D01*
X70967244Y-50165071D01*
X70972320Y-50159541D01*
X70994135Y-50135772D01*
X71003945Y-50115817D01*
X71012856Y-50100551D01*
X71017176Y-50094235D01*
X71051366Y-50019368D01*
X71058651Y-50004552D01*
X71058829Y-50004002D01*
X71061398Y-49997399D01*
X71077919Y-49961226D01*
X71098729Y-49816492D01*
X71098729Y-48735508D01*
X71097891Y-48706173D01*
X71068850Y-48562863D01*
X71058472Y-48543196D01*
X71051359Y-48527013D01*
X71048778Y-48519779D01*
X71028048Y-48483077D01*
X71008318Y-48448145D01*
X71004464Y-48440842D01*
X71000611Y-48433540D01*
X71000254Y-48433048D01*
X70996429Y-48427095D01*
X70976867Y-48392463D01*
X70976866Y-48392461D01*
X70973988Y-48389664D01*
X70960936Y-48376981D01*
X70949151Y-48363766D01*
X70944509Y-48357745D01*
X70944503Y-48357738D01*
X70944501Y-48357736D01*
X70944496Y-48357732D01*
X70944491Y-48357726D01*
X70883765Y-48301993D01*
X70872002Y-48290564D01*
X70871998Y-48290560D01*
X70871547Y-48290232D01*
X70866073Y-48285757D01*
X70836772Y-48258865D01*
X70816819Y-48249055D01*
X70801541Y-48240136D01*
X70795235Y-48235824D01*
X70720368Y-48201633D01*
X70705550Y-48194348D01*
X70705535Y-48194342D01*
X70704978Y-48194161D01*
X70698385Y-48191594D01*
X70679840Y-48183125D01*
X70662229Y-48175082D01*
X70662226Y-48175081D01*
X70662224Y-48175080D01*
X70662222Y-48175080D01*
X70565118Y-48161118D01*
X70501562Y-48132092D01*
X70463789Y-48073314D01*
X70461236Y-48063008D01*
X70459184Y-48052881D01*
X70433850Y-47927863D01*
X70423472Y-47908196D01*
X70416359Y-47892013D01*
X70413778Y-47884779D01*
X70373317Y-47813144D01*
X70365611Y-47798540D01*
X70364831Y-47797061D01*
X70350500Y-47739193D01*
X70350500Y-47296594D01*
X70350799Y-47290513D01*
X70351763Y-47280719D01*
X70355380Y-47244000D01*
X70335908Y-47046299D01*
X70288037Y-46888492D01*
X70287415Y-46818629D01*
X70324663Y-46759516D01*
X70387957Y-46729925D01*
X70406699Y-46728500D01*
X72174904Y-46728500D01*
X72241943Y-46748185D01*
G37*
%TD.AperFunction*%
%TA.AperFunction,NonConductor*%
G36*
X69731528Y-42100274D02*
G01*
X69991094Y-42114827D01*
X70165350Y-42130027D01*
X70250139Y-42137423D01*
X70508344Y-42167988D01*
X70765522Y-42206450D01*
X71021404Y-42252735D01*
X71275830Y-42306782D01*
X71528475Y-42368499D01*
X71779201Y-42437837D01*
X72027721Y-42514705D01*
X72273835Y-42599046D01*
X72517254Y-42690762D01*
X72757789Y-42789793D01*
X72995228Y-42896077D01*
X73229384Y-43009562D01*
X73406501Y-43101833D01*
X73581210Y-43200783D01*
X73753736Y-43306234D01*
X73924012Y-43417846D01*
X74091966Y-43535280D01*
X74257552Y-43658214D01*
X74420590Y-43786227D01*
X74508379Y-43858869D01*
X74547480Y-43916773D01*
X74549069Y-43986625D01*
X74544521Y-44000301D01*
X74517538Y-44068022D01*
X74517535Y-44068033D01*
X74423010Y-44408481D01*
X74423009Y-44408484D01*
X74365843Y-44757179D01*
X74346714Y-45109997D01*
X74346714Y-45110002D01*
X74365843Y-45462820D01*
X74411924Y-45743900D01*
X74403344Y-45813241D01*
X74358638Y-45866936D01*
X74291999Y-45887937D01*
X74224585Y-45869576D01*
X74201876Y-45851642D01*
X73808797Y-45458563D01*
X73394301Y-45044067D01*
X73390222Y-45039566D01*
X73360567Y-45003430D01*
X73207005Y-44877406D01*
X73207004Y-44877405D01*
X73031804Y-44783759D01*
X73031800Y-44783758D01*
X73031797Y-44783756D01*
X73022482Y-44780931D01*
X72841703Y-44726091D01*
X72709900Y-44713110D01*
X72644000Y-44706620D01*
X72643999Y-44706620D01*
X72597482Y-44711201D01*
X72591402Y-44711500D01*
X67870598Y-44711500D01*
X67864518Y-44711201D01*
X67818000Y-44706620D01*
X67620296Y-44726091D01*
X67439518Y-44780931D01*
X67430202Y-44783756D01*
X67430196Y-44783758D01*
X67430196Y-44783759D01*
X67351223Y-44825971D01*
X67254994Y-44877406D01*
X67101431Y-45003432D01*
X67071775Y-45039567D01*
X67067687Y-45044077D01*
X63324077Y-48787687D01*
X63319567Y-48791775D01*
X63283432Y-48821431D01*
X63157407Y-48974992D01*
X63157404Y-48974996D01*
X63157405Y-48974996D01*
X63083664Y-49112957D01*
X63078521Y-49122577D01*
X63063758Y-49150195D01*
X63006091Y-49340296D01*
X62986620Y-49538001D01*
X62986620Y-49538004D01*
X62991200Y-49584518D01*
X62991499Y-49590598D01*
X62991499Y-55951651D01*
X62971814Y-56018690D01*
X62919010Y-56064445D01*
X62849852Y-56074389D01*
X62786296Y-56045364D01*
X62771643Y-56030313D01*
X62708322Y-55953151D01*
X62545093Y-55740711D01*
X62388735Y-55523236D01*
X62239267Y-55300849D01*
X62096834Y-55073848D01*
X61961549Y-54842486D01*
X61833491Y-54606962D01*
X61712793Y-54367566D01*
X61599576Y-54124579D01*
X61493892Y-53878122D01*
X61395898Y-53628564D01*
X61305677Y-53376087D01*
X61223349Y-53120987D01*
X61148943Y-52863250D01*
X61092649Y-52646588D01*
X61042474Y-52428665D01*
X60998347Y-52209448D01*
X60960266Y-51989219D01*
X60928180Y-51767992D01*
X60902082Y-51546059D01*
X60881925Y-51323436D01*
X60867695Y-51100362D01*
X60859357Y-50876973D01*
X60856886Y-50653363D01*
X60860251Y-50429747D01*
X60869426Y-50206290D01*
X60884382Y-49983068D01*
X60905091Y-49760291D01*
X60931523Y-49538091D01*
X60963645Y-49316651D01*
X61001440Y-49096050D01*
X61044853Y-48876567D01*
X61093888Y-48658199D01*
X61148498Y-48441176D01*
X61208647Y-48225673D01*
X61274312Y-48011815D01*
X61345479Y-47799707D01*
X61422083Y-47589597D01*
X61504120Y-47381564D01*
X61591558Y-47175769D01*
X61684362Y-46972372D01*
X61782507Y-46771512D01*
X61885939Y-46573389D01*
X61994650Y-46378104D01*
X62108630Y-46185777D01*
X62227989Y-45996340D01*
X62371627Y-45778390D01*
X62521907Y-45565918D01*
X62678925Y-45358574D01*
X62842476Y-45156468D01*
X63012344Y-44959720D01*
X63188315Y-44768451D01*
X63370219Y-44582730D01*
X63557786Y-44402739D01*
X63750822Y-44228572D01*
X63949157Y-44060310D01*
X64152538Y-43898106D01*
X64360729Y-43742093D01*
X64573552Y-43592360D01*
X64790793Y-43449026D01*
X65012243Y-43312203D01*
X65237640Y-43182038D01*
X65466850Y-43058598D01*
X65699589Y-42942040D01*
X65935661Y-42832467D01*
X66174896Y-42729978D01*
X66416984Y-42634725D01*
X66661796Y-42546790D01*
X66909090Y-42466298D01*
X67158645Y-42393364D01*
X67410207Y-42328113D01*
X67663675Y-42270629D01*
X67918738Y-42221051D01*
X68175187Y-42179488D01*
X68432846Y-42146045D01*
X68691472Y-42120841D01*
X68950897Y-42103983D01*
X69211248Y-42095577D01*
X69471585Y-42093834D01*
X69731528Y-42100274D01*
G37*
%TD.AperFunction*%
%TA.AperFunction,NonConductor*%
G36*
X85888559Y-42185733D02*
G01*
X86101664Y-42192874D01*
X86314489Y-42205360D01*
X86526976Y-42223165D01*
X86739013Y-42246265D01*
X86950396Y-42274622D01*
X87161046Y-42308215D01*
X87370804Y-42347012D01*
X87579566Y-42390989D01*
X87787171Y-42440110D01*
X87993492Y-42494352D01*
X88198419Y-42553688D01*
X88401791Y-42618084D01*
X88603495Y-42687516D01*
X88803386Y-42761952D01*
X89001300Y-42841349D01*
X89197190Y-42925714D01*
X89390781Y-43014954D01*
X89582111Y-43109117D01*
X89770924Y-43208116D01*
X89957104Y-43311926D01*
X90140615Y-43420573D01*
X90321689Y-43534263D01*
X90526898Y-43667378D01*
X90727136Y-43806247D01*
X90877460Y-43917461D01*
X90922883Y-43951066D01*
X91114103Y-44101707D01*
X91300728Y-44258024D01*
X91463425Y-44402739D01*
X91482576Y-44419773D01*
X91659630Y-44586853D01*
X91745695Y-44672959D01*
X91831720Y-44759025D01*
X91943377Y-44877405D01*
X91998815Y-44936181D01*
X92160781Y-45118111D01*
X92317485Y-45304602D01*
X92468891Y-45495552D01*
X92614838Y-45690705D01*
X92755318Y-45890012D01*
X92890145Y-46093172D01*
X93019256Y-46300065D01*
X93142534Y-46510482D01*
X93259936Y-46724342D01*
X93371282Y-46941320D01*
X93476540Y-47161366D01*
X93575583Y-47384247D01*
X93668323Y-47609804D01*
X93754657Y-47837847D01*
X93834484Y-48068192D01*
X93907729Y-48300721D01*
X93974266Y-48535165D01*
X94034020Y-48771426D01*
X94086892Y-49009314D01*
X94132775Y-49248599D01*
X94171583Y-49489155D01*
X94203220Y-49730803D01*
X94227639Y-49973846D01*
X94245674Y-50199837D01*
X94246311Y-50212241D01*
X94257266Y-50425719D01*
X94262504Y-50651760D01*
X94261446Y-50877779D01*
X94254144Y-51103684D01*
X94240662Y-51329263D01*
X94221057Y-51554390D01*
X94195382Y-51778933D01*
X94163693Y-52002765D01*
X94126060Y-52225648D01*
X94082527Y-52447524D01*
X94033153Y-52668226D01*
X93977999Y-52887592D01*
X93917127Y-53105461D01*
X93850594Y-53321687D01*
X93778449Y-53536154D01*
X93700774Y-53748639D01*
X93617601Y-53959075D01*
X93528998Y-54167281D01*
X93435039Y-54373082D01*
X93335760Y-54576372D01*
X93231236Y-54776973D01*
X93121520Y-54974751D01*
X93006669Y-55169555D01*
X92886753Y-55361225D01*
X92761848Y-55549588D01*
X92631962Y-55734574D01*
X92497196Y-55915974D01*
X92357590Y-56093664D01*
X92213231Y-56267467D01*
X92064130Y-56437291D01*
X91928559Y-56583362D01*
X91904987Y-56603146D01*
X91901146Y-56605628D01*
X91901142Y-56605633D01*
X91891282Y-56631150D01*
X91889704Y-56634869D01*
X91877949Y-56660234D01*
X91877904Y-56661078D01*
X91877550Y-56665124D01*
X91877449Y-56665961D01*
X91884624Y-56692980D01*
X91885534Y-56696918D01*
X91890818Y-56723760D01*
X91890819Y-56723763D01*
X91894167Y-56726870D01*
X91913958Y-56750453D01*
X91995603Y-56876782D01*
X92137771Y-57103136D01*
X92276350Y-57331599D01*
X92411279Y-57562096D01*
X92542625Y-57794768D01*
X92670266Y-58029430D01*
X92794188Y-58266085D01*
X92914327Y-58504654D01*
X93030671Y-58745155D01*
X93143133Y-58987444D01*
X93248819Y-59225075D01*
X93251001Y-59230704D01*
X93258809Y-59254176D01*
X93258810Y-59254177D01*
X93265492Y-59258961D01*
X93285498Y-59276855D01*
X93290994Y-59282964D01*
X93290995Y-59282964D01*
X93300951Y-59288717D01*
X93311910Y-59292194D01*
X93311911Y-59292195D01*
X93320136Y-59292137D01*
X93346824Y-59294854D01*
X93354870Y-59296568D01*
X93354873Y-59296566D01*
X93366311Y-59295369D01*
X93377217Y-59291741D01*
X93377219Y-59291741D01*
X93383829Y-59286867D01*
X93407028Y-59273370D01*
X93414543Y-59270029D01*
X93426917Y-59248615D01*
X93430190Y-59243538D01*
X93463942Y-59196396D01*
X93485649Y-59167911D01*
X93583399Y-59039638D01*
X93585093Y-59037517D01*
X93710115Y-58887992D01*
X93711897Y-58885958D01*
X93843511Y-58742504D01*
X93845518Y-58740417D01*
X93983579Y-58603413D01*
X93985695Y-58601410D01*
X94129296Y-58471930D01*
X94132175Y-58469491D01*
X94175349Y-58435108D01*
X94319120Y-58320609D01*
X94321759Y-58318620D01*
X94516597Y-58179881D01*
X94519218Y-58178116D01*
X94720970Y-58049891D01*
X94723657Y-58048277D01*
X94931763Y-57930603D01*
X94934456Y-57929169D01*
X95148340Y-57822088D01*
X95151096Y-57820793D01*
X95288759Y-57760195D01*
X95370183Y-57724353D01*
X95372952Y-57723213D01*
X95596721Y-57637421D01*
X95599456Y-57636446D01*
X95827353Y-57561340D01*
X95830051Y-57560522D01*
X96061440Y-57496155D01*
X96064153Y-57495468D01*
X96298425Y-57441881D01*
X96301210Y-57441312D01*
X96537774Y-57398532D01*
X96540553Y-57398094D01*
X96778912Y-57366134D01*
X96781653Y-57365829D01*
X97021202Y-57344722D01*
X97023964Y-57344542D01*
X97264018Y-57334314D01*
X97266830Y-57334258D01*
X97373591Y-57334554D01*
X97506881Y-57334924D01*
X97509698Y-57334997D01*
X97512346Y-57335125D01*
X97746752Y-57346458D01*
X97751321Y-57346850D01*
X98047143Y-57383479D01*
X98051762Y-57384230D01*
X98343325Y-57442992D01*
X98347770Y-57444060D01*
X98634183Y-57524132D01*
X98638424Y-57525483D01*
X98918606Y-57626029D01*
X98922624Y-57627634D01*
X99189724Y-57745285D01*
X99195336Y-57747757D01*
X99199193Y-57749617D01*
X99463337Y-57888466D01*
X99467001Y-57890554D01*
X99721374Y-58047217D01*
X99724815Y-58049500D01*
X99968259Y-58223080D01*
X99971511Y-58225567D01*
X100202845Y-58415137D01*
X100205965Y-58417874D01*
X100260971Y-58469491D01*
X100412435Y-58611624D01*
X100423981Y-58622458D01*
X100426936Y-58625425D01*
X100630526Y-58844121D01*
X100633304Y-58847317D01*
X100821338Y-59079201D01*
X100823921Y-59082622D01*
X100964539Y-59282964D01*
X100995235Y-59326697D01*
X100997621Y-59330364D01*
X101100114Y-59500861D01*
X101151127Y-59585721D01*
X101153299Y-59589648D01*
X101287909Y-59855375D01*
X101289834Y-59859553D01*
X101402616Y-60130293D01*
X101405292Y-60138167D01*
X101465763Y-60365025D01*
X101528559Y-60602299D01*
X101590835Y-60839199D01*
X101652892Y-61076755D01*
X101697449Y-61248323D01*
X101714552Y-61314175D01*
X101775984Y-61551989D01*
X101836827Y-61788691D01*
X101897845Y-62027137D01*
X101928677Y-62148103D01*
X101958357Y-62264551D01*
X102018906Y-62502949D01*
X102079115Y-62740726D01*
X102139194Y-62978594D01*
X102199176Y-63216574D01*
X102208116Y-63252099D01*
X102258972Y-63454190D01*
X102319150Y-63693577D01*
X102336680Y-63763353D01*
X102378771Y-63930892D01*
X102442495Y-64187682D01*
X102442515Y-64187796D01*
X102447367Y-64207311D01*
X102453594Y-64232403D01*
X102453643Y-64232549D01*
X102510320Y-64460479D01*
X102510341Y-64460601D01*
X102516454Y-64485148D01*
X102522400Y-64509060D01*
X102522436Y-64509168D01*
X102580575Y-64742615D01*
X102580584Y-64742663D01*
X102584400Y-64757971D01*
X102590230Y-64781379D01*
X102590250Y-64781440D01*
X102649418Y-65018756D01*
X102649427Y-65018804D01*
X102650566Y-65023368D01*
X102654910Y-65040780D01*
X102658266Y-65054240D01*
X102659215Y-65058046D01*
X102659223Y-65058072D01*
X102728931Y-65337469D01*
X102728938Y-65337491D01*
X102753930Y-65437637D01*
X102793920Y-65597884D01*
X102861516Y-65868798D01*
X102931145Y-66148042D01*
X102999967Y-66424336D01*
X103068972Y-66701783D01*
X103137553Y-66978057D01*
X103206098Y-67254845D01*
X103274648Y-67532426D01*
X103342650Y-67808690D01*
X103410698Y-68086174D01*
X103478240Y-68362732D01*
X103516269Y-68524376D01*
X103516725Y-68527245D01*
X103522123Y-68549256D01*
X103527316Y-68571330D01*
X103528211Y-68574082D01*
X103584684Y-68804347D01*
X103585083Y-68806729D01*
X103590790Y-68829246D01*
X103596299Y-68851705D01*
X103597064Y-68853990D01*
X103655268Y-69083573D01*
X103655479Y-69084782D01*
X103661602Y-69108553D01*
X103667547Y-69132003D01*
X103667936Y-69133143D01*
X103733305Y-69386917D01*
X103804926Y-69665140D01*
X103875303Y-69943266D01*
X103943299Y-70221427D01*
X104007820Y-70499893D01*
X104067783Y-70778970D01*
X104122088Y-71058876D01*
X104168867Y-71335252D01*
X104169465Y-71339799D01*
X104196176Y-71624046D01*
X104196435Y-71628571D01*
X104202306Y-71913517D01*
X104202240Y-71917935D01*
X104187810Y-72202490D01*
X104187441Y-72206788D01*
X104153243Y-72489850D01*
X104152594Y-72494020D01*
X104099176Y-72774356D01*
X104098266Y-72778394D01*
X104026169Y-73054915D01*
X104025012Y-73058823D01*
X103934813Y-73330288D01*
X103933417Y-73334071D01*
X103825683Y-73599309D01*
X103824057Y-73602970D01*
X103699363Y-73860827D01*
X103697506Y-73864370D01*
X103556470Y-74113609D01*
X103554381Y-74117037D01*
X103397587Y-74356519D01*
X103395260Y-74359831D01*
X103223343Y-74588353D01*
X103220771Y-74591547D01*
X103034326Y-74807976D01*
X103031499Y-74811043D01*
X102910395Y-74933862D01*
X102833882Y-75011459D01*
X102831164Y-75014215D01*
X102828073Y-75017141D01*
X102614445Y-75205937D01*
X102611082Y-75208705D01*
X102401378Y-75369293D01*
X102376144Y-75384247D01*
X102370736Y-75386638D01*
X102370734Y-75386640D01*
X102357476Y-75409472D01*
X102354922Y-75413504D01*
X102339957Y-75435233D01*
X102339956Y-75435237D01*
X102340105Y-75441143D01*
X102337370Y-75470342D01*
X102290844Y-75686574D01*
X102290844Y-75686580D01*
X102242749Y-75910126D01*
X102242746Y-75910143D01*
X102233492Y-75953161D01*
X102202388Y-76097743D01*
X102141952Y-76378682D01*
X102105241Y-76549342D01*
X102105239Y-76549351D01*
X102057389Y-76771804D01*
X102057384Y-76771834D01*
X102009769Y-76993190D01*
X102009767Y-76993205D01*
X101961601Y-77217132D01*
X101961596Y-77217159D01*
X101945929Y-77290002D01*
X101912737Y-77444316D01*
X101912736Y-77444320D01*
X101865652Y-77663207D01*
X101865651Y-77663215D01*
X101820154Y-77874735D01*
X101814942Y-77898965D01*
X101758174Y-78162861D01*
X101722198Y-78330104D01*
X101713428Y-78370870D01*
X101674677Y-78551001D01*
X101619997Y-78805155D01*
X101617598Y-78816304D01*
X101585882Y-78963699D01*
X101581809Y-78974899D01*
X101574932Y-79014595D01*
X101572007Y-79028190D01*
X101571941Y-79029393D01*
X101571125Y-79036564D01*
X101569008Y-79048784D01*
X101570396Y-79058447D01*
X101573016Y-79067576D01*
X101576966Y-79076507D01*
X101585239Y-79085742D01*
X101589740Y-79091398D01*
X101590430Y-79092377D01*
X101600112Y-79102344D01*
X101627012Y-79132369D01*
X101636408Y-79139705D01*
X101777676Y-79285123D01*
X101779726Y-79287338D01*
X101833341Y-79348192D01*
X101944261Y-79474090D01*
X101946168Y-79476364D01*
X102101529Y-79670851D01*
X102103325Y-79673213D01*
X102249261Y-79874985D01*
X102250933Y-79877416D01*
X102387131Y-80085937D01*
X102388680Y-80088436D01*
X102514893Y-80303269D01*
X102516320Y-80305836D01*
X102632187Y-80526341D01*
X102633493Y-80528976D01*
X102739682Y-80756673D01*
X102807797Y-80917172D01*
X102899342Y-81161569D01*
X102900375Y-81164557D01*
X102960033Y-81352557D01*
X102978715Y-81411431D01*
X102979589Y-81414452D01*
X103045315Y-81664991D01*
X103046033Y-81668036D01*
X103099048Y-81921609D01*
X103099609Y-81924675D01*
X103139814Y-82180609D01*
X103140221Y-82183698D01*
X103167519Y-82441339D01*
X103167770Y-82444451D01*
X103182064Y-82703112D01*
X103182157Y-82706246D01*
X103183358Y-82965301D01*
X103183292Y-82968457D01*
X103171311Y-83227187D01*
X103171083Y-83230345D01*
X103149658Y-83449082D01*
X103145819Y-83488275D01*
X103145439Y-83491359D01*
X103102046Y-83782881D01*
X103101426Y-83786364D01*
X103041579Y-84074467D01*
X103040774Y-84077859D01*
X102964781Y-84362332D01*
X102963799Y-84365634D01*
X102872057Y-84645662D01*
X102870904Y-84648877D01*
X102763850Y-84923521D01*
X102762530Y-84926649D01*
X102640577Y-85195085D01*
X102639091Y-85198131D01*
X102502671Y-85459476D01*
X102501019Y-85462440D01*
X102350545Y-85715868D01*
X102348725Y-85718751D01*
X102184648Y-85963376D01*
X102182662Y-85966166D01*
X102157243Y-85999865D01*
X102005439Y-86201111D01*
X102003268Y-86203828D01*
X101813312Y-86428280D01*
X101810958Y-86430907D01*
X101608730Y-86644005D01*
X101606186Y-86646535D01*
X101392114Y-86847453D01*
X101389381Y-86849870D01*
X101223091Y-86988457D01*
X101163940Y-87037753D01*
X101161005Y-87040053D01*
X100924582Y-87214116D01*
X100921448Y-87216279D01*
X100673343Y-87376438D01*
X100670942Y-87377912D01*
X100553589Y-87446323D01*
X100549790Y-87448364D01*
X100313875Y-87564733D01*
X100308613Y-87567032D01*
X100077208Y-87655629D01*
X100072083Y-87657339D01*
X99840906Y-87723444D01*
X99836290Y-87724574D01*
X99602757Y-87772372D01*
X99598953Y-87773028D01*
X99360804Y-87806497D01*
X99358005Y-87806825D01*
X99112355Y-87830009D01*
X99112356Y-87830010D01*
X98858075Y-87846854D01*
X98620380Y-87860052D01*
X98618656Y-87860018D01*
X98600596Y-87861119D01*
X98594919Y-87861466D01*
X98588434Y-87861826D01*
X98571116Y-87862789D01*
X98569403Y-87863023D01*
X98342586Y-87876871D01*
X98337755Y-87876835D01*
X98321261Y-87878174D01*
X98304822Y-87879177D01*
X98300041Y-87879896D01*
X98075055Y-87898166D01*
X98057667Y-87899578D01*
X98050156Y-87899718D01*
X98037127Y-87901204D01*
X98035885Y-87901346D01*
X98034476Y-87901460D01*
X98021563Y-87902509D01*
X98014166Y-87903823D01*
X97759490Y-87932870D01*
X97752419Y-87933269D01*
X97750804Y-87933268D01*
X97737192Y-87935413D01*
X97723516Y-87936973D01*
X97721956Y-87937406D01*
X97715039Y-87938904D01*
X97446562Y-87981219D01*
X97439998Y-87981898D01*
X97436945Y-87982050D01*
X97425367Y-87984479D01*
X97422296Y-87985043D01*
X97410629Y-87986882D01*
X97407730Y-87987822D01*
X97401357Y-87989517D01*
X97117395Y-88049099D01*
X97111194Y-88050075D01*
X97107141Y-88050504D01*
X97096130Y-88053463D01*
X97092783Y-88054263D01*
X97081630Y-88056604D01*
X97077815Y-88058057D01*
X97071844Y-88059991D01*
X96770561Y-88140966D01*
X96764597Y-88142258D01*
X96759985Y-88143022D01*
X96749378Y-88146549D01*
X96745912Y-88147590D01*
X96735150Y-88150483D01*
X96730880Y-88152388D01*
X96725192Y-88154596D01*
X96404156Y-88261394D01*
X96397413Y-88263223D01*
X96395569Y-88263612D01*
X96382780Y-88268505D01*
X96369783Y-88272829D01*
X96368113Y-88273695D01*
X96361739Y-88276556D01*
X96358799Y-88277681D01*
X96212338Y-88333715D01*
X96206229Y-88335696D01*
X96202758Y-88336626D01*
X96192167Y-88341338D01*
X96189125Y-88342596D01*
X96178302Y-88346738D01*
X96175192Y-88348529D01*
X96169459Y-88351445D01*
X95844247Y-88496166D01*
X95839885Y-88497912D01*
X95830181Y-88501376D01*
X95821991Y-88505848D01*
X95817491Y-88508074D01*
X95808973Y-88511864D01*
X95800351Y-88517461D01*
X95796308Y-88519872D01*
X95503589Y-88679709D01*
X95499674Y-88681671D01*
X95488822Y-88686637D01*
X95481405Y-88691561D01*
X95476834Y-88694320D01*
X95469020Y-88698587D01*
X95459571Y-88705872D01*
X95456011Y-88708422D01*
X95195111Y-88881655D01*
X95187384Y-88885636D01*
X95187663Y-88886122D01*
X95179197Y-88890980D01*
X95172621Y-88896276D01*
X95168033Y-88899635D01*
X95160994Y-88904309D01*
X95153814Y-88910908D01*
X95153434Y-88910495D01*
X95147299Y-88916670D01*
X94916815Y-89102301D01*
X94909547Y-89106960D01*
X94909802Y-89107318D01*
X94901856Y-89112973D01*
X94896164Y-89118555D01*
X94891650Y-89122568D01*
X94885431Y-89127578D01*
X94878888Y-89134806D01*
X94878562Y-89134511D01*
X94873083Y-89141190D01*
X94671209Y-89339165D01*
X94664494Y-89344489D01*
X94664705Y-89344729D01*
X94657382Y-89351177D01*
X94652593Y-89356957D01*
X94648269Y-89361660D01*
X94642903Y-89366924D01*
X94637090Y-89374764D01*
X94636833Y-89374573D01*
X94632089Y-89381714D01*
X94458911Y-89590794D01*
X94452842Y-89596758D01*
X94452993Y-89596896D01*
X94446412Y-89604104D01*
X94442526Y-89609999D01*
X94438517Y-89615414D01*
X94434018Y-89620847D01*
X94429046Y-89629243D01*
X94428869Y-89629138D01*
X94424943Y-89636675D01*
X94280571Y-89855700D01*
X94275246Y-89862248D01*
X94275331Y-89862310D01*
X94269620Y-89870212D01*
X94266620Y-89876135D01*
X94263078Y-89882240D01*
X94259417Y-89887794D01*
X94255392Y-89896673D01*
X94255296Y-89896629D01*
X94252250Y-89904513D01*
X94136920Y-90132265D01*
X94132415Y-90139347D01*
X94132436Y-90139359D01*
X94127694Y-90147885D01*
X94125533Y-90153796D01*
X94122619Y-90160507D01*
X94119769Y-90166137D01*
X94116777Y-90175424D01*
X94116755Y-90175417D01*
X94114656Y-90183548D01*
X94028642Y-90418836D01*
X94024798Y-90426857D01*
X94021324Y-90435400D01*
X94019951Y-90441285D01*
X94017805Y-90448479D01*
X94015725Y-90454170D01*
X94013952Y-90463225D01*
X94012773Y-90472052D01*
X93956407Y-90713647D01*
X93953420Y-90722520D01*
X93951146Y-90730951D01*
X93950516Y-90736850D01*
X93949245Y-90744353D01*
X93947899Y-90750123D01*
X93947266Y-90758874D01*
X93947166Y-90768202D01*
X93920818Y-91014860D01*
X93918950Y-91023974D01*
X93917715Y-91032687D01*
X93917811Y-91038625D01*
X93917469Y-91046214D01*
X93916838Y-91052118D01*
X93917285Y-91060922D01*
X93918323Y-91070153D01*
X93922383Y-91320591D01*
X93921679Y-91329321D01*
X93921490Y-91338693D01*
X93922321Y-91344720D01*
X93922893Y-91352173D01*
X93922992Y-91358265D01*
X93924606Y-91367490D01*
X93926636Y-91376021D01*
X93961507Y-91628980D01*
X93961833Y-91637382D01*
X93961873Y-91637379D01*
X93962821Y-91647091D01*
X93964422Y-91653250D01*
X93965836Y-91660381D01*
X93966706Y-91666690D01*
X93969537Y-91676035D01*
X93969497Y-91676046D01*
X93972403Y-91683940D01*
X94038517Y-91938190D01*
X94039812Y-91946543D01*
X94039939Y-91946517D01*
X94041976Y-91956067D01*
X94044392Y-91962348D01*
X94046529Y-91969000D01*
X94048227Y-91975530D01*
X94052135Y-91984483D01*
X94052015Y-91984535D01*
X94055834Y-91992091D01*
X94153668Y-92246443D01*
X94155892Y-92254672D01*
X94156118Y-92254598D01*
X94159163Y-92263864D01*
X94162450Y-92270265D01*
X94165164Y-92276328D01*
X94167744Y-92283035D01*
X94172631Y-92291484D01*
X94172422Y-92291604D01*
X94177083Y-92298751D01*
X94214132Y-92370877D01*
X94308656Y-92554895D01*
X94311158Y-92560414D01*
X94312922Y-92564873D01*
X94312923Y-92564877D01*
X94316555Y-92571025D01*
X94318571Y-92574436D01*
X94320341Y-92577644D01*
X94325421Y-92587534D01*
X94328246Y-92591395D01*
X94331585Y-92596463D01*
X94481482Y-92850142D01*
X94483168Y-92853532D01*
X94494484Y-92872148D01*
X94505583Y-92890928D01*
X94507776Y-92894010D01*
X94659078Y-93142885D01*
X94660175Y-93145032D01*
X94664186Y-93151517D01*
X94664187Y-93151520D01*
X94670798Y-93162207D01*
X94672389Y-93164779D01*
X94684406Y-93184546D01*
X94685822Y-93186494D01*
X94839193Y-93434420D01*
X94839636Y-93435275D01*
X94852609Y-93456108D01*
X94865609Y-93477121D01*
X94866172Y-93477887D01*
X95008298Y-93706097D01*
X95033556Y-93746653D01*
X95214204Y-94037825D01*
X95392311Y-94329065D01*
X95392311Y-94329066D01*
X95566730Y-94621568D01*
X95735789Y-94915662D01*
X95898043Y-95212036D01*
X96051919Y-95511152D01*
X96195911Y-95813557D01*
X96328538Y-96119841D01*
X96447802Y-96429254D01*
X96448759Y-96431915D01*
X96553254Y-96744842D01*
X96554163Y-96747812D01*
X96577688Y-96832158D01*
X96642897Y-97065961D01*
X96643718Y-97069246D01*
X96715367Y-97393640D01*
X96716010Y-97396984D01*
X96725663Y-97455876D01*
X96758048Y-97653462D01*
X96793060Y-97913692D01*
X96798092Y-97960256D01*
X96821258Y-98174645D01*
X96843350Y-98436420D01*
X96860016Y-98698828D01*
X96871961Y-98961841D01*
X96879884Y-99225503D01*
X96884481Y-99489626D01*
X96886457Y-99754054D01*
X96886520Y-100019056D01*
X96885375Y-100284119D01*
X96883885Y-100524723D01*
X96883864Y-100524984D01*
X96883734Y-100549272D01*
X96883574Y-100575104D01*
X96883593Y-100575368D01*
X96882441Y-100789783D01*
X96882350Y-100790892D01*
X96882303Y-100815464D01*
X96882172Y-100839872D01*
X96882254Y-100840975D01*
X96881850Y-101055607D01*
X96881701Y-101057542D01*
X96881735Y-101065554D01*
X96881735Y-101065556D01*
X96881802Y-101081209D01*
X96881773Y-101096769D01*
X96881758Y-101104801D01*
X96881911Y-101106727D01*
X96882835Y-101321431D01*
X96882644Y-101324170D01*
X96882945Y-101346932D01*
X96883043Y-101369813D01*
X96883282Y-101372551D01*
X96883444Y-101384802D01*
X96864648Y-101452096D01*
X96812453Y-101498545D01*
X96759455Y-101510442D01*
X80897225Y-101510442D01*
X80896535Y-101510388D01*
X80871637Y-101510442D01*
X80846790Y-101510442D01*
X80846090Y-101510496D01*
X80681117Y-101510853D01*
X80680559Y-101510855D01*
X80393448Y-101511068D01*
X80106560Y-101510924D01*
X79816885Y-101510577D01*
X79558312Y-101510227D01*
X79558182Y-101510216D01*
X79530379Y-101510189D01*
X79529740Y-101510188D01*
X79516532Y-101510171D01*
X79516531Y-101510171D01*
X79511861Y-101510165D01*
X79511778Y-101510171D01*
X79270837Y-101509939D01*
X79270550Y-101509916D01*
X79245502Y-101509915D01*
X79245499Y-101509915D01*
X79245421Y-101509914D01*
X79220557Y-101509891D01*
X79220253Y-101509913D01*
X78983932Y-101509905D01*
X78983462Y-101509868D01*
X78958403Y-101509903D01*
X78958364Y-101509904D01*
X78933348Y-101509904D01*
X78932872Y-101509940D01*
X78696696Y-101510280D01*
X78696050Y-101510230D01*
X78671288Y-101510316D01*
X78671230Y-101510317D01*
X78655272Y-101510340D01*
X78655271Y-101510340D01*
X78646264Y-101510353D01*
X78645614Y-101510404D01*
X78409420Y-101511219D01*
X78408607Y-101511160D01*
X78399653Y-101511213D01*
X78384212Y-101511305D01*
X78383570Y-101511309D01*
X78359133Y-101511393D01*
X78358319Y-101511460D01*
X78122125Y-101512878D01*
X78121139Y-101512808D01*
X78097190Y-101513026D01*
X78096613Y-101513032D01*
X78092855Y-101513054D01*
X78072005Y-101513180D01*
X78071024Y-101513264D01*
X77809901Y-101515641D01*
X77809902Y-101515641D01*
X77197744Y-101516240D01*
X76578637Y-101516793D01*
X75969911Y-101517287D01*
X75359942Y-101517736D01*
X74735231Y-101518151D01*
X74108135Y-101518521D01*
X73492070Y-101518845D01*
X72874063Y-101519132D01*
X72290758Y-101519371D01*
X71669432Y-101519591D01*
X71045657Y-101519781D01*
X70417453Y-101519944D01*
X69806918Y-101520075D01*
X69196418Y-101520184D01*
X68581519Y-101520272D01*
X67963589Y-101520342D01*
X67338561Y-101520396D01*
X67338560Y-101520396D01*
X66754391Y-101520433D01*
X66115181Y-101520461D01*
X65493420Y-101520479D01*
X65493418Y-101520479D01*
X64878372Y-101520491D01*
X64878370Y-101520491D01*
X64263323Y-101520498D01*
X64263322Y-101520498D01*
X63648273Y-101520502D01*
X63648272Y-101520502D01*
X63033222Y-101520507D01*
X63033220Y-101520507D01*
X62418171Y-101520515D01*
X62418169Y-101520515D01*
X61834952Y-101520526D01*
X61834951Y-101520526D01*
X61808461Y-101520526D01*
X61803128Y-101520526D01*
X61803128Y-101520525D01*
X61803119Y-101520526D01*
X61803118Y-101520527D01*
X61803117Y-101520527D01*
X61219898Y-101520546D01*
X61219896Y-101520546D01*
X60604841Y-101520576D01*
X60604840Y-101520576D01*
X60581910Y-101520577D01*
X60573014Y-101520577D01*
X60573011Y-101520577D01*
X60573008Y-101520578D01*
X60573007Y-101520578D01*
X59957951Y-101520620D01*
X59957948Y-101520620D01*
X59374724Y-101520673D01*
X59370000Y-101520673D01*
X59342893Y-101520676D01*
X59342890Y-101520676D01*
X58759664Y-101520747D01*
X58754151Y-101520747D01*
X58727833Y-101520751D01*
X58727830Y-101520751D01*
X58353729Y-101520807D01*
X58286686Y-101501132D01*
X58240923Y-101448335D01*
X58229710Y-101396541D01*
X58229737Y-101383741D01*
X58229738Y-101383740D01*
X58229783Y-101362475D01*
X58229807Y-101351919D01*
X58229806Y-101351917D01*
X58229834Y-101339296D01*
X58229830Y-101339258D01*
X58230246Y-101141745D01*
X58230250Y-101141709D01*
X58230310Y-101111025D01*
X58230319Y-101106727D01*
X58230338Y-101098154D01*
X58230337Y-101098152D01*
X58230368Y-101083686D01*
X58230365Y-101083652D01*
X58230752Y-100890576D01*
X58230755Y-100890553D01*
X58230804Y-100864398D01*
X58230806Y-100863596D01*
X58230845Y-100844376D01*
X58230844Y-100844374D01*
X58230873Y-100829900D01*
X58230871Y-100829874D01*
X58230949Y-100789783D01*
X58231336Y-100590594D01*
X58231334Y-100590591D01*
X58231363Y-100576108D01*
X58231361Y-100576096D01*
X58231801Y-100347266D01*
X58232312Y-100083050D01*
X58232768Y-99853992D01*
X58233262Y-99616345D01*
X58233582Y-99612016D01*
X58233316Y-99590793D01*
X58233316Y-99590735D01*
X58233348Y-99575583D01*
X58233347Y-99575581D01*
X58233360Y-99569508D01*
X58232994Y-99565167D01*
X58230328Y-99352045D01*
X58235587Y-99117069D01*
X58248778Y-98883353D01*
X58269620Y-98650802D01*
X58297823Y-98419470D01*
X58333107Y-98189302D01*
X58375197Y-97960256D01*
X58423797Y-97732386D01*
X58478626Y-97505662D01*
X58539418Y-97280009D01*
X58605858Y-97055534D01*
X58677678Y-96832158D01*
X58754593Y-96609885D01*
X58836332Y-96388660D01*
X58922564Y-96168598D01*
X58947834Y-96107431D01*
X59013024Y-95949633D01*
X59107464Y-95731655D01*
X59205477Y-95514939D01*
X59306916Y-95299155D01*
X59411386Y-95084527D01*
X59518658Y-94870919D01*
X59628456Y-94658300D01*
X59740345Y-94446939D01*
X59854248Y-94236423D01*
X59969677Y-94027108D01*
X60086477Y-93818738D01*
X60204308Y-93611393D01*
X60285767Y-93469640D01*
X60322842Y-93405124D01*
X60441688Y-93200094D01*
X60561063Y-92995414D01*
X60680126Y-92792022D01*
X60731391Y-92704551D01*
X60788152Y-92607702D01*
X60792115Y-92601752D01*
X60792974Y-92600608D01*
X60792984Y-92600600D01*
X60799467Y-92588393D01*
X60806448Y-92576483D01*
X60806449Y-92576474D01*
X60806973Y-92575139D01*
X60809948Y-92568661D01*
X60895494Y-92407605D01*
X60900717Y-92400543D01*
X60899877Y-92400018D01*
X60905051Y-92391743D01*
X60905054Y-92391741D01*
X60908527Y-92383563D01*
X60910831Y-92378730D01*
X60915002Y-92370881D01*
X60915003Y-92370877D01*
X60918177Y-92361649D01*
X60918913Y-92361902D01*
X60921313Y-92353471D01*
X60986837Y-92199240D01*
X60991131Y-92191640D01*
X60990576Y-92191359D01*
X60994990Y-92182655D01*
X60994990Y-92182653D01*
X60994993Y-92182650D01*
X60997658Y-92174392D01*
X60999579Y-92169245D01*
X61002967Y-92161272D01*
X61002967Y-92161267D01*
X61005331Y-92151800D01*
X61005941Y-92151952D01*
X61007664Y-92143401D01*
X61058434Y-91986158D01*
X61063374Y-91974513D01*
X61065102Y-91969513D01*
X61065105Y-91969508D01*
X61065943Y-91964781D01*
X61067987Y-91956571D01*
X61069463Y-91952002D01*
X61069462Y-91951998D01*
X61070279Y-91946785D01*
X61071379Y-91934162D01*
X61075326Y-91911933D01*
X61136437Y-91567679D01*
X61138398Y-91559728D01*
X61139965Y-91554798D01*
X61139964Y-91554788D01*
X61140917Y-91548519D01*
X61140979Y-91547783D01*
X61141096Y-91541438D01*
X61141098Y-91541432D01*
X61140382Y-91536301D01*
X61139790Y-91528157D01*
X61137396Y-91161453D01*
X61137954Y-91152746D01*
X61138062Y-91151938D01*
X61138550Y-91148333D01*
X61138548Y-91148326D01*
X61138447Y-91143875D01*
X61137942Y-91138479D01*
X61137218Y-91134092D01*
X61137218Y-91134084D01*
X61135807Y-91129839D01*
X61133651Y-91121404D01*
X61070079Y-90771896D01*
X61068433Y-90755829D01*
X61067796Y-90752360D01*
X61064758Y-90740906D01*
X61063595Y-90737586D01*
X61057056Y-90722798D01*
X60977777Y-90497699D01*
X60941101Y-90393563D01*
X60937682Y-90380309D01*
X60936346Y-90376326D01*
X60936345Y-90376319D01*
X60936341Y-90376312D01*
X60936332Y-90376284D01*
X60929393Y-90360300D01*
X60927377Y-90356572D01*
X60920034Y-90345032D01*
X60757878Y-90033988D01*
X60754031Y-90024536D01*
X60750615Y-90017456D01*
X60750614Y-90017451D01*
X60747382Y-90012793D01*
X60743346Y-90006112D01*
X60740728Y-90001091D01*
X60736060Y-89994790D01*
X60729468Y-89986976D01*
X60528026Y-89696655D01*
X60525643Y-89692944D01*
X60519647Y-89682835D01*
X60513944Y-89675959D01*
X60510728Y-89671726D01*
X60505626Y-89664371D01*
X60505624Y-89664370D01*
X60505624Y-89664369D01*
X60497499Y-89655883D01*
X60494556Y-89652582D01*
X60394062Y-89531411D01*
X60390217Y-89526252D01*
X60388215Y-89523253D01*
X60380352Y-89514742D01*
X60378181Y-89512262D01*
X60370790Y-89503350D01*
X60368066Y-89500954D01*
X60363473Y-89496472D01*
X60253816Y-89377779D01*
X60249619Y-89372724D01*
X60247734Y-89370192D01*
X60239311Y-89361962D01*
X60237099Y-89359687D01*
X60229126Y-89351056D01*
X60226646Y-89349100D01*
X60221713Y-89344765D01*
X60146288Y-89271062D01*
X60105342Y-89231050D01*
X60100819Y-89226126D01*
X60099057Y-89223988D01*
X60099055Y-89223984D01*
X60090128Y-89216079D01*
X60087901Y-89214007D01*
X60079373Y-89205673D01*
X60077093Y-89204057D01*
X60071854Y-89199899D01*
X59984516Y-89122568D01*
X59949537Y-89091597D01*
X59944705Y-89086822D01*
X59943033Y-89084978D01*
X59933627Y-89077416D01*
X59931397Y-89075534D01*
X59922368Y-89067541D01*
X59922367Y-89067540D01*
X59922365Y-89067539D01*
X59920268Y-89066202D01*
X59914753Y-89062245D01*
X59787214Y-88959722D01*
X59782110Y-88955132D01*
X59780498Y-88953512D01*
X59770676Y-88946341D01*
X59768393Y-88944592D01*
X59758949Y-88937001D01*
X59756968Y-88935867D01*
X59751224Y-88932143D01*
X59619217Y-88835775D01*
X59613887Y-88831409D01*
X59612295Y-88829949D01*
X59602118Y-88823211D01*
X59599813Y-88821609D01*
X59589948Y-88814408D01*
X59589945Y-88814407D01*
X59588029Y-88813425D01*
X59582076Y-88809943D01*
X59446398Y-88720118D01*
X59440847Y-88715980D01*
X59439242Y-88714638D01*
X59428756Y-88708362D01*
X59426373Y-88706861D01*
X59416182Y-88700114D01*
X59414257Y-88699237D01*
X59408140Y-88696024D01*
X59269577Y-88613099D01*
X59263851Y-88609223D01*
X59262162Y-88607936D01*
X59251400Y-88602145D01*
X59248952Y-88600755D01*
X59238473Y-88594484D01*
X59238471Y-88594483D01*
X59238467Y-88594481D01*
X59236498Y-88593689D01*
X59230243Y-88590760D01*
X59090542Y-88515587D01*
X59085888Y-88512814D01*
X59079880Y-88508869D01*
X59070536Y-88504652D01*
X59066674Y-88502744D01*
X59057635Y-88497881D01*
X59057634Y-88497880D01*
X59057631Y-88497879D01*
X59050832Y-88495499D01*
X59045809Y-88493491D01*
X58758355Y-88363760D01*
X58728854Y-88350446D01*
X58721420Y-88346068D01*
X58721218Y-88346454D01*
X58712571Y-88341918D01*
X58705031Y-88339369D01*
X58699384Y-88337146D01*
X58692140Y-88333876D01*
X58682730Y-88331304D01*
X58682844Y-88330886D01*
X58674414Y-88329018D01*
X58358776Y-88222307D01*
X58351033Y-88218764D01*
X58350949Y-88218979D01*
X58341873Y-88215403D01*
X58341871Y-88215402D01*
X58341867Y-88215401D01*
X58334885Y-88213852D01*
X58328458Y-88212058D01*
X58321677Y-88209766D01*
X58312063Y-88208126D01*
X58312101Y-88207900D01*
X58303638Y-88206920D01*
X57991337Y-88137647D01*
X57982385Y-88134742D01*
X57973968Y-88132572D01*
X57968076Y-88132009D01*
X57960547Y-88130818D01*
X57954794Y-88129542D01*
X57946112Y-88129010D01*
X57936709Y-88129012D01*
X57691754Y-88105609D01*
X57635080Y-88100194D01*
X57629786Y-88099457D01*
X57622427Y-88098106D01*
X57612263Y-88097858D01*
X57607894Y-88097596D01*
X57602363Y-88097068D01*
X57597774Y-88096630D01*
X57590306Y-88097092D01*
X57584965Y-88097192D01*
X57317743Y-88090674D01*
X57316604Y-88090559D01*
X57292045Y-88090047D01*
X57267851Y-88089457D01*
X57266715Y-88089519D01*
X57045290Y-88084907D01*
X57044530Y-88084832D01*
X57019695Y-88084374D01*
X56995015Y-88083860D01*
X56994246Y-88083904D01*
X56805390Y-88080425D01*
X56805271Y-88080415D01*
X56787758Y-88080099D01*
X56783710Y-88080027D01*
X56783127Y-88080016D01*
X56759947Y-88079589D01*
X56759804Y-88079597D01*
X56583871Y-88076433D01*
X56336731Y-88070949D01*
X56336731Y-88070948D01*
X56089085Y-88060330D01*
X56084964Y-88060015D01*
X55858511Y-88035097D01*
X55851376Y-88033888D01*
X55648406Y-87987157D01*
X55643646Y-87985860D01*
X55585353Y-87967453D01*
X55447930Y-87924060D01*
X55259441Y-87859556D01*
X55118473Y-87806497D01*
X54948340Y-87742460D01*
X54944422Y-87740830D01*
X54646219Y-87604636D01*
X54642521Y-87602795D01*
X54354119Y-87446995D01*
X54350632Y-87444962D01*
X54072897Y-87270550D01*
X54069598Y-87268327D01*
X53803410Y-87076314D01*
X53800311Y-87073926D01*
X53546491Y-86865290D01*
X53543597Y-86862755D01*
X53303039Y-86638534D01*
X53300354Y-86635872D01*
X53073891Y-86397062D01*
X53071381Y-86394247D01*
X52859920Y-86141933D01*
X52857570Y-86138948D01*
X52823099Y-86092288D01*
X52661953Y-85874157D01*
X52659807Y-85871058D01*
X52480869Y-85594827D01*
X52478885Y-85591545D01*
X52404509Y-85459476D01*
X52317468Y-85304918D01*
X52315699Y-85301532D01*
X52172622Y-85005535D01*
X52171026Y-85001945D01*
X52166666Y-84991238D01*
X52068645Y-84750499D01*
X52047144Y-84697694D01*
X52045757Y-84693946D01*
X51941867Y-84382455D01*
X51940703Y-84378538D01*
X51936464Y-84362332D01*
X51872828Y-84119028D01*
X51857345Y-84059830D01*
X51856571Y-84056499D01*
X51830763Y-83929615D01*
X51790056Y-83729477D01*
X51789354Y-83725294D01*
X51745743Y-83396035D01*
X51745338Y-83391900D01*
X51726729Y-83102933D01*
X51723998Y-83060540D01*
X51723871Y-83056462D01*
X51723878Y-83052229D01*
X51724096Y-82917763D01*
X54945787Y-82917763D01*
X54975413Y-83187013D01*
X54975415Y-83187024D01*
X55038773Y-83429371D01*
X55043928Y-83449088D01*
X55149870Y-83698390D01*
X55202499Y-83784625D01*
X55290979Y-83929605D01*
X55290986Y-83929615D01*
X55464253Y-84137819D01*
X55464259Y-84137824D01*
X55665998Y-84318582D01*
X55891910Y-84468044D01*
X56137176Y-84583020D01*
X56137183Y-84583022D01*
X56137185Y-84583023D01*
X56396557Y-84661057D01*
X56396564Y-84661058D01*
X56396569Y-84661060D01*
X56664561Y-84700500D01*
X56664566Y-84700500D01*
X56867636Y-84700500D01*
X56919133Y-84696730D01*
X57070156Y-84685677D01*
X57182758Y-84660593D01*
X57334546Y-84626782D01*
X57334548Y-84626781D01*
X57334553Y-84626780D01*
X57587558Y-84530014D01*
X57823777Y-84397441D01*
X58038177Y-84231888D01*
X58226186Y-84036881D01*
X58383799Y-83816579D01*
X58481942Y-83625690D01*
X58507649Y-83575690D01*
X58507651Y-83575684D01*
X58507656Y-83575675D01*
X58595118Y-83319305D01*
X58644319Y-83052933D01*
X58654212Y-82782235D01*
X58624586Y-82512982D01*
X58556072Y-82250912D01*
X58450130Y-82001610D01*
X58309018Y-81770390D01*
X58261357Y-81713119D01*
X58135746Y-81562180D01*
X58135740Y-81562175D01*
X57934002Y-81381418D01*
X57708092Y-81231957D01*
X57682558Y-81219987D01*
X57462824Y-81116980D01*
X57462819Y-81116978D01*
X57462814Y-81116976D01*
X57203442Y-81038942D01*
X57203428Y-81038939D01*
X57087791Y-81021921D01*
X56935439Y-80999500D01*
X56732369Y-80999500D01*
X56732364Y-80999500D01*
X56529844Y-81014323D01*
X56529831Y-81014325D01*
X56265453Y-81073217D01*
X56265446Y-81073220D01*
X56012439Y-81169987D01*
X55776226Y-81302557D01*
X55561822Y-81468112D01*
X55373822Y-81663109D01*
X55373816Y-81663116D01*
X55216202Y-81883419D01*
X55216199Y-81883424D01*
X55092350Y-82124309D01*
X55092343Y-82124327D01*
X55004884Y-82380685D01*
X55004881Y-82380699D01*
X54955681Y-82647068D01*
X54955680Y-82647075D01*
X54945787Y-82917763D01*
X51724096Y-82917763D01*
X51724410Y-82724234D01*
X51724547Y-82720250D01*
X51734986Y-82562975D01*
X51746568Y-82388494D01*
X51746953Y-82384582D01*
X51747202Y-82382678D01*
X51790050Y-82054604D01*
X51790669Y-82050805D01*
X51854435Y-81723907D01*
X51855280Y-81720194D01*
X51939295Y-81397706D01*
X51940374Y-81394039D01*
X52044200Y-81077317D01*
X52045479Y-81073789D01*
X52168695Y-80764107D01*
X52170215Y-80760611D01*
X52177250Y-80745702D01*
X52312347Y-80459361D01*
X52314096Y-80455938D01*
X52474717Y-80164379D01*
X52476688Y-80161056D01*
X52655319Y-79880530D01*
X52657561Y-79877248D01*
X52853751Y-79609041D01*
X52856229Y-79605877D01*
X53069521Y-79351266D01*
X53072255Y-79348216D01*
X53271117Y-79140878D01*
X53278722Y-79134915D01*
X53287085Y-79125618D01*
X53307145Y-79103316D01*
X53317062Y-79092977D01*
X53317063Y-79092973D01*
X53317164Y-79092869D01*
X53321754Y-79087074D01*
X53330069Y-79077832D01*
X53330069Y-79077829D01*
X53330070Y-79077829D01*
X53333354Y-79070443D01*
X53337107Y-79057261D01*
X53338205Y-79049249D01*
X53338121Y-79048784D01*
X53336004Y-79037016D01*
X53335154Y-79029671D01*
X53334838Y-79028190D01*
X53332139Y-79015519D01*
X53326645Y-78984970D01*
X53326644Y-78984969D01*
X53324615Y-78973686D01*
X53321291Y-78964607D01*
X53289730Y-78816479D01*
X53289708Y-78816304D01*
X53287658Y-78806711D01*
X53284603Y-78792415D01*
X53281028Y-78775635D01*
X53281027Y-78775633D01*
X53278991Y-78766076D01*
X53278932Y-78765877D01*
X53245994Y-78611729D01*
X53242203Y-78593986D01*
X53242183Y-78593832D01*
X53240063Y-78583938D01*
X53240064Y-78583937D01*
X53236533Y-78567453D01*
X53233414Y-78552854D01*
X53233413Y-78552852D01*
X53231302Y-78542969D01*
X53231256Y-78542815D01*
X53194456Y-78370992D01*
X53194440Y-78370870D01*
X53189045Y-78345731D01*
X53183636Y-78320473D01*
X53183599Y-78320348D01*
X53146679Y-78148269D01*
X53146672Y-78148210D01*
X53141990Y-78126411D01*
X53139942Y-78116871D01*
X53137908Y-78107385D01*
X53137907Y-78107383D01*
X53135705Y-78097121D01*
X53135680Y-78097037D01*
X53120891Y-78028185D01*
X53099210Y-77927252D01*
X53099207Y-77927220D01*
X53093128Y-77898936D01*
X53087930Y-77874735D01*
X53087919Y-77874700D01*
X53085460Y-77863261D01*
X53042206Y-77662007D01*
X53042205Y-77662006D01*
X53041538Y-77658903D01*
X53038443Y-77644500D01*
X52996637Y-77449987D01*
X52949835Y-77232103D01*
X52902000Y-77009152D01*
X52854180Y-76785890D01*
X52806979Y-76565002D01*
X52759203Y-76340776D01*
X52712108Y-76118968D01*
X52664982Y-75896110D01*
X52618093Y-75673331D01*
X52576733Y-75475767D01*
X52574135Y-75447569D01*
X52574290Y-75440733D01*
X52559639Y-75419580D01*
X52556831Y-75415132D01*
X52544029Y-75392800D01*
X52537779Y-75389994D01*
X52513438Y-75375521D01*
X52511840Y-75374304D01*
X52296874Y-75210585D01*
X52293400Y-75207734D01*
X52292998Y-75207379D01*
X52077664Y-75017141D01*
X52074660Y-75014487D01*
X52071476Y-75011466D01*
X51866876Y-74803087D01*
X51863979Y-74799925D01*
X51674102Y-74577603D01*
X51671480Y-74574313D01*
X51496963Y-74339313D01*
X51494598Y-74335894D01*
X51336068Y-74089496D01*
X51333958Y-74085964D01*
X51313568Y-74049111D01*
X51192002Y-73829393D01*
X51190157Y-73825782D01*
X51065379Y-73560315D01*
X51063772Y-73556581D01*
X51003115Y-73401782D01*
X50956778Y-73283529D01*
X50955416Y-73279684D01*
X50866782Y-73000330D01*
X50865663Y-72996344D01*
X50834916Y-72870907D01*
X50795956Y-72711959D01*
X50795099Y-72707871D01*
X50751494Y-72457675D01*
X50744881Y-72419731D01*
X50744292Y-72415490D01*
X50714111Y-72124914D01*
X50713813Y-72120571D01*
X50704198Y-71828754D01*
X50704213Y-71824292D01*
X50715698Y-71532542D01*
X50716045Y-71528003D01*
X50748784Y-71240756D01*
X50750011Y-71233674D01*
X50753547Y-71218543D01*
X50812725Y-70965261D01*
X50877678Y-70688677D01*
X50943073Y-70411570D01*
X51008577Y-70135277D01*
X51074345Y-69859090D01*
X51140632Y-69581876D01*
X51155622Y-69519435D01*
X51207141Y-69304831D01*
X51273711Y-69028556D01*
X51281393Y-68996789D01*
X51340605Y-68751909D01*
X51407816Y-68474857D01*
X51474918Y-68199096D01*
X51542526Y-67922039D01*
X51609945Y-67646474D01*
X51677967Y-67369112D01*
X51745694Y-67093556D01*
X51813441Y-66818463D01*
X51881778Y-66541467D01*
X51950526Y-66263231D01*
X52018265Y-65989448D01*
X52087471Y-65710053D01*
X52155012Y-65437637D01*
X52224486Y-65157619D01*
X52293715Y-64878737D01*
X52364916Y-64591996D01*
X52433508Y-64315792D01*
X52433507Y-64315790D01*
X52437172Y-64301035D01*
X52437173Y-64301023D01*
X52490348Y-64086877D01*
X52490357Y-64086855D01*
X52497721Y-64057191D01*
X52505392Y-64026293D01*
X52505397Y-64026260D01*
X52508965Y-64011889D01*
X52559993Y-63806322D01*
X52560004Y-63806290D01*
X52566056Y-63781901D01*
X52573401Y-63752309D01*
X52573407Y-63752265D01*
X52628945Y-63528414D01*
X52628965Y-63528358D01*
X52631530Y-63518010D01*
X52631531Y-63518009D01*
X52636442Y-63498196D01*
X52639189Y-63487128D01*
X52639188Y-63487127D01*
X52642059Y-63475564D01*
X52642066Y-63475509D01*
X52697439Y-63252162D01*
X52697461Y-63252099D01*
X52703821Y-63226423D01*
X52706385Y-63216078D01*
X52707675Y-63210877D01*
X52707674Y-63210875D01*
X52710097Y-63201104D01*
X52710109Y-63201035D01*
X52765205Y-62978594D01*
X52765870Y-62975907D01*
X52765899Y-62975826D01*
X52772533Y-62949010D01*
X52773523Y-62945016D01*
X52776101Y-62934607D01*
X52776100Y-62934606D01*
X52778468Y-62925051D01*
X52778481Y-62924969D01*
X52834358Y-62699114D01*
X52834391Y-62699019D01*
X52840874Y-62672778D01*
X52847231Y-62647088D01*
X52847244Y-62646994D01*
X52908758Y-62398030D01*
X52963540Y-62187700D01*
X52964722Y-62184224D01*
X52969996Y-62162917D01*
X52975530Y-62141671D01*
X52976151Y-62138047D01*
X53022447Y-61951015D01*
X53023161Y-61948850D01*
X53024987Y-61941234D01*
X53028627Y-61926050D01*
X53032348Y-61911020D01*
X53032347Y-61911016D01*
X53034219Y-61903457D01*
X53034584Y-61901207D01*
X53040018Y-61878542D01*
X53079370Y-61714416D01*
X53079616Y-61713661D01*
X53081734Y-61704726D01*
X53081735Y-61704725D01*
X53085379Y-61689355D01*
X53089061Y-61674002D01*
X53089060Y-61673999D01*
X53091221Y-61664991D01*
X53091342Y-61664208D01*
X53117954Y-61551989D01*
X53141471Y-61452824D01*
X53197981Y-61216973D01*
X53256070Y-60981972D01*
X53316886Y-60748009D01*
X53381563Y-60515310D01*
X53393951Y-60473897D01*
X53453990Y-60273185D01*
X53455210Y-60269532D01*
X53472400Y-60222914D01*
X53541108Y-60036579D01*
X53542514Y-60033098D01*
X53642525Y-59805855D01*
X53644109Y-59802529D01*
X53757665Y-59581596D01*
X53759422Y-59578416D01*
X53803139Y-59504471D01*
X53885904Y-59364478D01*
X53887806Y-59361464D01*
X54026672Y-59155060D01*
X54028688Y-59152241D01*
X54179300Y-58954050D01*
X54181500Y-58951322D01*
X54184880Y-58947366D01*
X54339254Y-58766652D01*
X54343231Y-58761997D01*
X54345595Y-58759384D01*
X54517852Y-58579515D01*
X54520340Y-58577059D01*
X54702542Y-58407227D01*
X54705125Y-58404954D01*
X54896649Y-58245787D01*
X54899405Y-58243626D01*
X55099569Y-58095777D01*
X55102458Y-58093769D01*
X55310691Y-57957796D01*
X55313741Y-57955929D01*
X55529379Y-57832459D01*
X55532584Y-57830748D01*
X55755029Y-57720351D01*
X55758371Y-57718816D01*
X55988204Y-57621569D01*
X55990787Y-57620544D01*
X56175116Y-57552259D01*
X56178072Y-57551249D01*
X56364762Y-57492701D01*
X56367689Y-57491862D01*
X56556953Y-57442674D01*
X56559821Y-57442003D01*
X56751230Y-57402015D01*
X56754084Y-57401488D01*
X56947365Y-57370512D01*
X56950112Y-57370136D01*
X57146193Y-57347856D01*
X57344743Y-57334214D01*
X57543941Y-57329186D01*
X57743476Y-57332589D01*
X57942897Y-57344232D01*
X58141851Y-57363927D01*
X58340005Y-57391490D01*
X58536903Y-57426717D01*
X58732220Y-57469425D01*
X58885332Y-57509016D01*
X58925560Y-57519418D01*
X59118038Y-57576945D01*
X59308369Y-57634933D01*
X59311158Y-57635856D01*
X59321199Y-57639443D01*
X59437402Y-57680956D01*
X59495086Y-57701563D01*
X59497786Y-57702599D01*
X59678542Y-57776879D01*
X59681105Y-57778002D01*
X59850629Y-57857023D01*
X59858299Y-57860598D01*
X59860847Y-57861858D01*
X59898653Y-57881638D01*
X60034073Y-57952491D01*
X60036529Y-57953848D01*
X60122029Y-58003659D01*
X60201398Y-58049899D01*
X60205537Y-58052310D01*
X60207928Y-58053777D01*
X60273084Y-58095795D01*
X60372365Y-58159820D01*
X60374655Y-58161371D01*
X60534178Y-58274737D01*
X60536386Y-58276382D01*
X60679153Y-58387836D01*
X60690674Y-58396830D01*
X60692823Y-58398587D01*
X60833442Y-58518932D01*
X60841487Y-58525817D01*
X60843573Y-58527685D01*
X60986346Y-58661500D01*
X60988353Y-58663469D01*
X61124897Y-58803603D01*
X61126826Y-58805676D01*
X61145314Y-58826470D01*
X61233567Y-58925734D01*
X61256762Y-58951822D01*
X61258610Y-58954000D01*
X61381677Y-59105974D01*
X61383430Y-59108244D01*
X61499274Y-59265751D01*
X61500934Y-59268122D01*
X61563022Y-59361445D01*
X61609185Y-59430830D01*
X61610804Y-59433398D01*
X61617160Y-59444048D01*
X61625495Y-59458012D01*
X61627988Y-59459078D01*
X61656161Y-59475850D01*
X61658284Y-59477531D01*
X61658285Y-59477531D01*
X61669257Y-59481603D01*
X61673889Y-59482652D01*
X61685533Y-59483705D01*
X61685534Y-59483704D01*
X61685537Y-59483706D01*
X61688173Y-59483105D01*
X61720834Y-59480113D01*
X61723538Y-59480225D01*
X61723542Y-59480222D01*
X61734808Y-59477069D01*
X61739169Y-59475197D01*
X61749211Y-59469204D01*
X61749213Y-59469201D01*
X61749215Y-59469201D01*
X61750993Y-59467166D01*
X61775653Y-59445551D01*
X61777911Y-59444050D01*
X61787880Y-59417188D01*
X61789005Y-59414372D01*
X61863980Y-59239174D01*
X61982474Y-58973113D01*
X62105562Y-58709238D01*
X62233197Y-58447583D01*
X62365353Y-58188136D01*
X62501920Y-57931061D01*
X62642893Y-57676316D01*
X62655650Y-57654164D01*
X62760046Y-57472882D01*
X62810558Y-57424612D01*
X62879150Y-57411314D01*
X62944044Y-57437210D01*
X62984635Y-57494079D01*
X62991500Y-57534765D01*
X62991499Y-86647400D01*
X62991200Y-86653479D01*
X62986620Y-86699996D01*
X62986620Y-86699998D01*
X63006091Y-86897703D01*
X63058218Y-87069540D01*
X63063757Y-87087800D01*
X63063760Y-87087807D01*
X63157401Y-87262998D01*
X63157405Y-87263005D01*
X63283430Y-87416567D01*
X63307455Y-87436283D01*
X63318025Y-87444958D01*
X63319566Y-87446222D01*
X63324067Y-87450301D01*
X63983631Y-88109865D01*
X64641296Y-88767530D01*
X64674781Y-88828853D01*
X64669797Y-88898545D01*
X64665109Y-88908934D01*
X64663763Y-88912184D01*
X64663759Y-88912194D01*
X64663759Y-88912196D01*
X64606092Y-89102299D01*
X64593499Y-89230163D01*
X64591500Y-89250456D01*
X64591500Y-90349542D01*
X64606091Y-90497699D01*
X64663760Y-90687808D01*
X64757401Y-90862998D01*
X64757405Y-90863005D01*
X64883431Y-91016568D01*
X65036994Y-91142594D01*
X65037001Y-91142598D01*
X65212191Y-91236239D01*
X65212193Y-91236239D01*
X65212196Y-91236241D01*
X65402299Y-91293908D01*
X65402298Y-91293908D01*
X65412766Y-91294938D01*
X65550453Y-91308500D01*
X68649546Y-91308499D01*
X68797701Y-91293908D01*
X68987804Y-91236241D01*
X69163004Y-91142595D01*
X69316568Y-91016568D01*
X69442595Y-90863004D01*
X69506015Y-90744353D01*
X69536239Y-90687808D01*
X69536239Y-90687807D01*
X69536241Y-90687804D01*
X69593908Y-90497701D01*
X69608500Y-90349547D01*
X69608499Y-89250454D01*
X69593908Y-89102299D01*
X69536241Y-88912196D01*
X69536239Y-88912193D01*
X69536239Y-88912191D01*
X69442598Y-88737001D01*
X69442594Y-88736994D01*
X69316568Y-88583431D01*
X69163005Y-88457405D01*
X69162998Y-88457401D01*
X68987808Y-88363760D01*
X68873278Y-88329018D01*
X68797701Y-88306092D01*
X68797699Y-88306091D01*
X68797701Y-88306091D01*
X68683336Y-88294827D01*
X68649547Y-88291500D01*
X68649544Y-88291500D01*
X67069096Y-88291500D01*
X67002057Y-88271815D01*
X66981415Y-88255181D01*
X65044819Y-86318585D01*
X65011334Y-86257262D01*
X65008500Y-86230904D01*
X65008500Y-77548654D01*
X75491500Y-77548654D01*
X75498011Y-77609202D01*
X75498011Y-77609204D01*
X75518154Y-77663207D01*
X75549111Y-77746204D01*
X75636739Y-77863261D01*
X75753796Y-77950889D01*
X75890799Y-78001989D01*
X75918050Y-78004918D01*
X75951345Y-78008499D01*
X75951362Y-78008500D01*
X76367500Y-78008500D01*
X76434539Y-78028185D01*
X76480294Y-78080989D01*
X76491500Y-78132500D01*
X76491500Y-80495401D01*
X76491201Y-80501481D01*
X76486620Y-80547999D01*
X76506091Y-80745702D01*
X76511686Y-80764146D01*
X76563150Y-80933796D01*
X76563759Y-80935804D01*
X76563761Y-80935810D01*
X76657401Y-81110998D01*
X76657405Y-81111005D01*
X76783430Y-81264567D01*
X76819566Y-81294222D01*
X76824067Y-81298301D01*
X77989696Y-82463930D01*
X77993774Y-82468430D01*
X78023432Y-82504568D01*
X78176996Y-82630595D01*
X78352196Y-82724241D01*
X78375412Y-82731283D01*
X78396442Y-82737662D01*
X78542295Y-82781908D01*
X78542299Y-82781909D01*
X78740000Y-82801380D01*
X78773482Y-82798082D01*
X78786518Y-82796799D01*
X78792598Y-82796500D01*
X84620904Y-82796500D01*
X84687943Y-82816185D01*
X84708585Y-82832819D01*
X88055180Y-86179414D01*
X88088665Y-86240737D01*
X88091499Y-86267095D01*
X88091500Y-88167500D01*
X88071815Y-88234539D01*
X88019012Y-88280294D01*
X87967500Y-88291500D01*
X87550457Y-88291500D01*
X87402300Y-88306091D01*
X87212191Y-88363760D01*
X87037001Y-88457401D01*
X87036994Y-88457405D01*
X86883431Y-88583431D01*
X86757405Y-88736994D01*
X86757401Y-88737001D01*
X86663760Y-88912191D01*
X86606091Y-89102300D01*
X86596479Y-89199899D01*
X86593499Y-89230163D01*
X86591500Y-89250456D01*
X86591500Y-90349542D01*
X86606091Y-90497699D01*
X86663760Y-90687808D01*
X86757401Y-90862998D01*
X86757405Y-90863005D01*
X86883431Y-91016568D01*
X87036994Y-91142594D01*
X87037001Y-91142598D01*
X87212191Y-91236239D01*
X87212193Y-91236239D01*
X87212196Y-91236241D01*
X87402299Y-91293908D01*
X87402298Y-91293908D01*
X87412766Y-91294938D01*
X87550453Y-91308500D01*
X90649546Y-91308499D01*
X90797701Y-91293908D01*
X90987804Y-91236241D01*
X91163004Y-91142595D01*
X91316568Y-91016568D01*
X91442595Y-90863004D01*
X91506015Y-90744353D01*
X91536239Y-90687808D01*
X91536239Y-90687807D01*
X91536241Y-90687804D01*
X91593908Y-90497701D01*
X91608500Y-90349547D01*
X91608499Y-89250454D01*
X91593908Y-89102299D01*
X91536241Y-88912196D01*
X91536239Y-88912193D01*
X91536239Y-88912191D01*
X91442598Y-88737001D01*
X91442594Y-88736994D01*
X91316568Y-88583431D01*
X91163005Y-88457405D01*
X91162998Y-88457401D01*
X90987808Y-88363760D01*
X90873278Y-88329018D01*
X90797701Y-88306092D01*
X90797699Y-88306091D01*
X90797701Y-88306091D01*
X90683336Y-88294827D01*
X90649547Y-88291500D01*
X90649544Y-88291500D01*
X90232500Y-88291500D01*
X90165461Y-88271815D01*
X90119706Y-88219011D01*
X90108500Y-88167500D01*
X90108500Y-85850594D01*
X90108799Y-85844513D01*
X90110749Y-85824708D01*
X90113380Y-85798000D01*
X90093908Y-85600299D01*
X90036241Y-85410196D01*
X90036239Y-85410193D01*
X90036239Y-85410191D01*
X89942595Y-85234996D01*
X89942593Y-85234993D01*
X89925050Y-85213618D01*
X89816568Y-85081431D01*
X89780432Y-85051776D01*
X89775930Y-85047696D01*
X87695997Y-82967763D01*
X96145787Y-82967763D01*
X96175413Y-83237013D01*
X96175415Y-83237024D01*
X96241907Y-83491359D01*
X96243928Y-83499088D01*
X96349870Y-83748390D01*
X96490979Y-83979605D01*
X96490986Y-83979615D01*
X96664253Y-84187819D01*
X96664259Y-84187824D01*
X96825649Y-84332429D01*
X96865998Y-84368582D01*
X97091910Y-84518044D01*
X97337176Y-84633020D01*
X97337183Y-84633022D01*
X97337185Y-84633023D01*
X97596557Y-84711057D01*
X97596564Y-84711058D01*
X97596569Y-84711060D01*
X97864561Y-84750500D01*
X97864566Y-84750500D01*
X98067636Y-84750500D01*
X98119133Y-84746730D01*
X98270156Y-84735677D01*
X98382758Y-84710593D01*
X98534546Y-84676782D01*
X98534548Y-84676781D01*
X98534553Y-84676780D01*
X98787558Y-84580014D01*
X99023777Y-84447441D01*
X99238177Y-84281888D01*
X99426186Y-84086881D01*
X99583799Y-83866579D01*
X99670271Y-83698389D01*
X99707649Y-83625690D01*
X99707651Y-83625684D01*
X99707656Y-83625675D01*
X99795118Y-83369305D01*
X99844319Y-83102933D01*
X99854212Y-82832235D01*
X99824586Y-82562982D01*
X99756072Y-82300912D01*
X99650130Y-82051610D01*
X99509018Y-81820390D01*
X99419747Y-81713119D01*
X99335746Y-81612180D01*
X99335740Y-81612175D01*
X99134002Y-81431418D01*
X98908092Y-81281957D01*
X98801430Y-81231956D01*
X98662824Y-81166980D01*
X98662819Y-81166978D01*
X98662814Y-81166976D01*
X98403442Y-81088942D01*
X98403428Y-81088939D01*
X98284452Y-81071430D01*
X98135439Y-81049500D01*
X97932369Y-81049500D01*
X97932364Y-81049500D01*
X97729844Y-81064323D01*
X97729831Y-81064325D01*
X97465453Y-81123217D01*
X97465446Y-81123220D01*
X97212439Y-81219987D01*
X96976226Y-81352557D01*
X96976224Y-81352558D01*
X96976223Y-81352559D01*
X96913893Y-81400688D01*
X96761822Y-81518112D01*
X96573822Y-81713109D01*
X96573816Y-81713116D01*
X96416202Y-81933419D01*
X96416199Y-81933424D01*
X96292350Y-82174309D01*
X96292343Y-82174327D01*
X96204884Y-82430685D01*
X96204881Y-82430699D01*
X96155681Y-82697068D01*
X96155680Y-82697075D01*
X96145787Y-82967763D01*
X87695997Y-82967763D01*
X85840301Y-81112067D01*
X85836222Y-81107566D01*
X85806567Y-81071430D01*
X85653005Y-80945405D01*
X85652998Y-80945401D01*
X85477806Y-80851759D01*
X85477622Y-80851704D01*
X85287703Y-80794091D01*
X85155900Y-80781110D01*
X85090000Y-80774620D01*
X85089999Y-80774620D01*
X85043482Y-80779201D01*
X85037402Y-80779500D01*
X79209096Y-80779500D01*
X79142057Y-80759815D01*
X79121415Y-80743181D01*
X78544819Y-80166585D01*
X78511334Y-80105262D01*
X78508500Y-80078904D01*
X78508500Y-78132500D01*
X78528185Y-78065461D01*
X78580989Y-78019706D01*
X78632500Y-78008500D01*
X79048638Y-78008500D01*
X79048654Y-78008499D01*
X79075692Y-78005591D01*
X79109201Y-78001989D01*
X79246204Y-77950889D01*
X79363261Y-77863261D01*
X79450889Y-77746204D01*
X79501989Y-77609201D01*
X79505591Y-77575692D01*
X79508499Y-77548654D01*
X79508500Y-77548637D01*
X79508500Y-74451362D01*
X79508499Y-74451345D01*
X79505157Y-74420270D01*
X79501989Y-74390799D01*
X79490438Y-74359831D01*
X79479522Y-74330564D01*
X79450889Y-74253796D01*
X79363261Y-74136739D01*
X79246204Y-74049111D01*
X79246203Y-74049110D01*
X79109203Y-73998011D01*
X79048654Y-73991500D01*
X79048638Y-73991500D01*
X75951362Y-73991500D01*
X75951345Y-73991500D01*
X75890797Y-73998011D01*
X75890795Y-73998011D01*
X75753795Y-74049111D01*
X75636739Y-74136739D01*
X75549111Y-74253795D01*
X75498011Y-74390795D01*
X75498011Y-74390797D01*
X75491500Y-74451345D01*
X75491500Y-77548654D01*
X65008500Y-77548654D01*
X65008500Y-50007095D01*
X65028185Y-49940056D01*
X65044814Y-49919419D01*
X67730320Y-47233912D01*
X67791641Y-47200429D01*
X67861333Y-47205413D01*
X67905677Y-47233912D01*
X68175266Y-47503500D01*
X68297181Y-47625415D01*
X68330666Y-47686738D01*
X68333500Y-47713096D01*
X68333500Y-47734829D01*
X68320774Y-47789548D01*
X68315052Y-47801184D01*
X68306144Y-47816444D01*
X68301829Y-47822755D01*
X68301827Y-47822758D01*
X68267633Y-47897630D01*
X68260349Y-47912447D01*
X68260332Y-47912490D01*
X68260147Y-47913059D01*
X68257591Y-47919618D01*
X68241080Y-47955773D01*
X68227118Y-48052881D01*
X68198092Y-48116437D01*
X68139314Y-48154210D01*
X68129008Y-48156763D01*
X67993861Y-48184150D01*
X67974203Y-48194523D01*
X67958016Y-48201639D01*
X67950784Y-48204219D01*
X67950771Y-48204225D01*
X67879144Y-48244682D01*
X67864535Y-48252391D01*
X67864503Y-48252411D01*
X67864000Y-48252777D01*
X67858089Y-48256573D01*
X67823463Y-48276131D01*
X67823460Y-48276133D01*
X67807979Y-48292065D01*
X67794772Y-48303844D01*
X67788740Y-48308494D01*
X67765691Y-48333607D01*
X67732992Y-48369236D01*
X67729255Y-48373081D01*
X67721560Y-48381000D01*
X67721536Y-48381029D01*
X67721194Y-48381500D01*
X67716739Y-48386944D01*
X67689863Y-48416230D01*
X67680053Y-48436181D01*
X67671144Y-48451444D01*
X67666829Y-48457755D01*
X67666827Y-48457758D01*
X67632633Y-48532630D01*
X67625349Y-48547447D01*
X67625332Y-48547490D01*
X67625147Y-48548059D01*
X67622591Y-48554618D01*
X67606080Y-48590774D01*
X67585271Y-48735507D01*
X67585271Y-49816493D01*
X67586108Y-49845818D01*
X67586108Y-49845826D01*
X67600629Y-49917481D01*
X67615150Y-49989137D01*
X67619502Y-49997384D01*
X67625525Y-50008800D01*
X67632642Y-50024991D01*
X67635222Y-50032222D01*
X67658075Y-50072682D01*
X67670248Y-50094235D01*
X67675683Y-50103856D01*
X67683390Y-50118462D01*
X67683391Y-50118463D01*
X67683751Y-50118959D01*
X67687571Y-50124904D01*
X67707134Y-50159540D01*
X67707135Y-50159541D01*
X67723062Y-50175017D01*
X67734848Y-50188232D01*
X67739499Y-50194264D01*
X67759087Y-50212241D01*
X67800234Y-50250006D01*
X67806119Y-50255723D01*
X67812002Y-50261440D01*
X67812007Y-50261443D01*
X67812012Y-50261448D01*
X67812451Y-50261767D01*
X67817931Y-50266248D01*
X67847224Y-50293132D01*
X67847225Y-50293132D01*
X67847228Y-50293135D01*
X67867175Y-50302942D01*
X67882450Y-50311857D01*
X67888765Y-50316176D01*
X67922276Y-50331480D01*
X67963630Y-50350366D01*
X67969674Y-50353337D01*
X67978448Y-50357651D01*
X67979002Y-50357831D01*
X67985597Y-50360396D01*
X68021774Y-50376919D01*
X68021775Y-50376919D01*
X68022344Y-50377179D01*
X68075147Y-50422935D01*
X68094830Y-50489975D01*
X68075144Y-50557014D01*
X68070097Y-50564282D01*
X67991112Y-50669793D01*
X67991111Y-50669793D01*
X67940011Y-50806795D01*
X67940011Y-50806797D01*
X67933500Y-50867345D01*
X67933500Y-52764654D01*
X67940011Y-52825202D01*
X67940011Y-52825204D01*
X67968290Y-52901020D01*
X67991111Y-52962204D01*
X68078739Y-53079261D01*
X68195796Y-53166889D01*
X68332799Y-53217989D01*
X68360050Y-53220918D01*
X68393345Y-53224499D01*
X68393362Y-53224500D01*
X70290638Y-53224500D01*
X70290654Y-53224499D01*
X70317692Y-53221591D01*
X70351201Y-53217989D01*
X70488204Y-53166889D01*
X70605261Y-53079261D01*
X70692889Y-52962204D01*
X70714163Y-52905165D01*
X70756036Y-52849232D01*
X70821500Y-52824816D01*
X70830345Y-52824500D01*
X76346904Y-52824500D01*
X76413943Y-52844185D01*
X76434585Y-52860819D01*
X76455181Y-52881415D01*
X76488666Y-52942738D01*
X76491500Y-52969096D01*
X76491500Y-54192841D01*
X76471815Y-54259880D01*
X76431929Y-54298789D01*
X76339031Y-54355281D01*
X76125892Y-54528683D01*
X75938340Y-54729500D01*
X75779893Y-54953969D01*
X75779889Y-54953975D01*
X75653476Y-55197943D01*
X75561463Y-55456841D01*
X75561458Y-55456858D01*
X75505558Y-55725867D01*
X75505557Y-55725869D01*
X75486807Y-56000000D01*
X75505557Y-56274130D01*
X75505558Y-56274132D01*
X75561458Y-56543141D01*
X75561463Y-56543158D01*
X75653476Y-56802056D01*
X75779889Y-57046024D01*
X75779893Y-57046030D01*
X75938340Y-57270499D01*
X75961173Y-57294947D01*
X76125889Y-57471314D01*
X76339031Y-57644718D01*
X76339033Y-57644719D01*
X76339034Y-57644720D01*
X76573801Y-57787485D01*
X76762581Y-57869483D01*
X76825823Y-57896953D01*
X77090404Y-57971085D01*
X77311687Y-58001500D01*
X77362614Y-58008500D01*
X77362615Y-58008500D01*
X77637386Y-58008500D01*
X77675268Y-58003293D01*
X77909596Y-57971085D01*
X78174177Y-57896953D01*
X78411238Y-57793983D01*
X78426198Y-57787485D01*
X78432774Y-57783486D01*
X78660969Y-57644718D01*
X78874111Y-57471314D01*
X79061657Y-57270502D01*
X79220111Y-57046023D01*
X79346523Y-56802058D01*
X79438538Y-56543153D01*
X79438539Y-56543146D01*
X79438541Y-56543141D01*
X79491102Y-56290202D01*
X79494442Y-56274130D01*
X79513193Y-56000000D01*
X79494442Y-55725870D01*
X79452334Y-55523236D01*
X79438541Y-55456858D01*
X79438536Y-55456841D01*
X79383096Y-55300849D01*
X79346523Y-55197942D01*
X79220111Y-54953977D01*
X79220110Y-54953975D01*
X79220106Y-54953969D01*
X79061659Y-54729500D01*
X79021091Y-54686063D01*
X78874111Y-54528686D01*
X78660969Y-54355282D01*
X78660968Y-54355281D01*
X78568071Y-54298789D01*
X78521019Y-54247137D01*
X78508500Y-54192841D01*
X78508500Y-52969096D01*
X78528185Y-52902057D01*
X78544819Y-52881415D01*
X78565415Y-52860819D01*
X78626738Y-52827334D01*
X78653096Y-52824500D01*
X84236655Y-52824500D01*
X84303694Y-52844185D01*
X84349449Y-52896989D01*
X84352836Y-52905165D01*
X84374111Y-52962204D01*
X84461739Y-53079261D01*
X84578796Y-53166889D01*
X84715799Y-53217989D01*
X84743050Y-53220918D01*
X84776345Y-53224499D01*
X84776362Y-53224500D01*
X86673638Y-53224500D01*
X86673654Y-53224499D01*
X86700692Y-53221591D01*
X86734201Y-53217989D01*
X86871204Y-53166889D01*
X86988261Y-53079261D01*
X87075889Y-52962204D01*
X87121555Y-52839768D01*
X87126988Y-52825204D01*
X87126988Y-52825203D01*
X87126989Y-52825201D01*
X87130591Y-52791692D01*
X87133499Y-52764654D01*
X87133500Y-52764637D01*
X87133500Y-50867362D01*
X87133499Y-50867345D01*
X87127064Y-50807500D01*
X87126989Y-50806799D01*
X87125430Y-50802620D01*
X87097164Y-50726835D01*
X87075889Y-50669796D01*
X86996726Y-50564047D01*
X86972310Y-50498585D01*
X86987162Y-50430312D01*
X87036567Y-50380906D01*
X87071370Y-50368208D01*
X87073137Y-50367850D01*
X87092796Y-50357475D01*
X87108996Y-50350355D01*
X87116221Y-50347778D01*
X87187855Y-50307317D01*
X87202460Y-50299611D01*
X87202944Y-50299259D01*
X87208870Y-50295447D01*
X87243539Y-50275866D01*
X87255215Y-50263849D01*
X87259014Y-50259940D01*
X87272240Y-50248145D01*
X87278264Y-50243501D01*
X87334007Y-50182763D01*
X87345440Y-50170998D01*
X87345765Y-50170549D01*
X87350244Y-50165071D01*
X87355320Y-50159541D01*
X87377135Y-50135772D01*
X87386945Y-50115817D01*
X87395856Y-50100551D01*
X87400176Y-50094235D01*
X87434366Y-50019368D01*
X87441651Y-50004552D01*
X87441829Y-50004002D01*
X87444398Y-49997399D01*
X87460919Y-49961226D01*
X87481729Y-49816492D01*
X87481729Y-48735508D01*
X87480891Y-48706173D01*
X87451850Y-48562863D01*
X87441472Y-48543196D01*
X87434359Y-48527013D01*
X87431778Y-48519779D01*
X87411048Y-48483077D01*
X87391318Y-48448145D01*
X87387464Y-48440842D01*
X87383611Y-48433540D01*
X87383254Y-48433048D01*
X87379429Y-48427095D01*
X87359867Y-48392463D01*
X87359866Y-48392461D01*
X87356988Y-48389664D01*
X87343936Y-48376981D01*
X87332151Y-48363766D01*
X87327509Y-48357745D01*
X87327503Y-48357738D01*
X87327501Y-48357736D01*
X87327496Y-48357732D01*
X87327491Y-48357726D01*
X87266765Y-48301993D01*
X87255002Y-48290564D01*
X87254998Y-48290560D01*
X87254547Y-48290232D01*
X87249073Y-48285757D01*
X87219772Y-48258865D01*
X87199819Y-48249055D01*
X87184541Y-48240136D01*
X87178235Y-48235824D01*
X87103368Y-48201633D01*
X87088550Y-48194348D01*
X87088535Y-48194342D01*
X87087978Y-48194161D01*
X87081385Y-48191594D01*
X87062840Y-48183125D01*
X87045229Y-48175082D01*
X87045226Y-48175081D01*
X87045224Y-48175080D01*
X87045222Y-48175080D01*
X86948118Y-48161118D01*
X86884562Y-48132092D01*
X86846789Y-48073314D01*
X86844236Y-48063008D01*
X86842184Y-48052881D01*
X86816850Y-47927863D01*
X86806472Y-47908196D01*
X86799359Y-47892013D01*
X86796778Y-47884779D01*
X86756317Y-47813144D01*
X86748611Y-47798540D01*
X86747831Y-47797061D01*
X86733500Y-47739193D01*
X86733500Y-46915597D01*
X86733799Y-46909517D01*
X86737371Y-46873242D01*
X86738380Y-46863000D01*
X86718909Y-46665299D01*
X86661241Y-46475196D01*
X86614914Y-46388524D01*
X86567595Y-46299996D01*
X86567594Y-46299994D01*
X86441568Y-46146432D01*
X86405432Y-46116776D01*
X86400930Y-46112696D01*
X85332301Y-45044067D01*
X85328222Y-45039566D01*
X85298567Y-45003430D01*
X85145005Y-44877406D01*
X85145004Y-44877405D01*
X84969804Y-44783759D01*
X84969800Y-44783758D01*
X84969797Y-44783756D01*
X84960482Y-44780931D01*
X84779703Y-44726091D01*
X84647900Y-44713110D01*
X84582000Y-44706620D01*
X84581999Y-44706620D01*
X84535482Y-44711201D01*
X84529402Y-44711500D01*
X82856596Y-44711500D01*
X82850515Y-44711201D01*
X82804000Y-44706620D01*
X82754453Y-44711500D01*
X82606300Y-44726091D01*
X82416191Y-44783760D01*
X82241001Y-44877401D01*
X82240994Y-44877405D01*
X82087431Y-45003432D01*
X82057775Y-45039567D01*
X82053687Y-45044077D01*
X80942175Y-46155589D01*
X80880852Y-46189074D01*
X80811160Y-46184090D01*
X80755227Y-46142218D01*
X80730810Y-46076754D01*
X80735014Y-46034734D01*
X80772166Y-45900925D01*
X80796992Y-45811510D01*
X80854156Y-45462823D01*
X80873286Y-45110000D01*
X80854156Y-44757177D01*
X80796992Y-44408490D01*
X80747038Y-44228572D01*
X80702465Y-44068033D01*
X80702464Y-44068031D01*
X80702460Y-44068022D01*
X80664689Y-43973222D01*
X80658162Y-43903658D01*
X80690280Y-43841608D01*
X80708105Y-43826211D01*
X80826623Y-43742093D01*
X80887985Y-43698542D01*
X81076532Y-43572032D01*
X81268374Y-43450495D01*
X81463332Y-43334047D01*
X81661242Y-43222798D01*
X81862051Y-43116787D01*
X82065537Y-43016154D01*
X82271577Y-42920977D01*
X82480070Y-42831331D01*
X82690850Y-42747317D01*
X82903821Y-42669009D01*
X83118809Y-42596511D01*
X83335649Y-42529919D01*
X83411752Y-42508818D01*
X83554260Y-42469305D01*
X83775073Y-42414618D01*
X83983446Y-42366658D01*
X84192437Y-42324433D01*
X84402407Y-42287803D01*
X84613246Y-42256736D01*
X84824786Y-42231213D01*
X85036927Y-42211200D01*
X85249492Y-42196675D01*
X85462395Y-42187607D01*
X85675463Y-42183969D01*
X85888559Y-42185733D01*
G37*
%TD.AperFunction*%
M02*
