%TF.GenerationSoftware,KiCad,Pcbnew,7.0.1*%
%TF.CreationDate,2023-05-15T20:45:39+02:00*%
%TF.ProjectId,robi,726f6269-2e6b-4696-9361-645f70636258,rev?*%
%TF.SameCoordinates,Original*%
%TF.FileFunction,Soldermask,Bot*%
%TF.FilePolarity,Negative*%
%FSLAX46Y46*%
G04 Gerber Fmt 4.6, Leading zero omitted, Abs format (unit mm)*
G04 Created by KiCad (PCBNEW 7.0.1) date 2023-05-15 20:45:39*
%MOMM*%
%LPD*%
G01*
G04 APERTURE LIST*
G04 Aperture macros list*
%AMRoundRect*
0 Rectangle with rounded corners*
0 $1 Rounding radius*
0 $2 $3 $4 $5 $6 $7 $8 $9 X,Y pos of 4 corners*
0 Add a 4 corners polygon primitive as box body*
4,1,4,$2,$3,$4,$5,$6,$7,$8,$9,$2,$3,0*
0 Add four circle primitives for the rounded corners*
1,1,$1+$1,$2,$3*
1,1,$1+$1,$4,$5*
1,1,$1+$1,$6,$7*
1,1,$1+$1,$8,$9*
0 Add four rect primitives between the rounded corners*
20,1,$1+$1,$2,$3,$4,$5,0*
20,1,$1+$1,$4,$5,$6,$7,0*
20,1,$1+$1,$6,$7,$8,$9,0*
20,1,$1+$1,$8,$9,$2,$3,0*%
G04 Aperture macros list end*
%ADD10C,1.000000*%
%ADD11C,0.150000*%
%ADD12C,0.400000*%
%ADD13C,0.200000*%
%ADD14C,0.300000*%
%ADD15R,1.800000X1.800000*%
%ADD16C,1.800000*%
%ADD17C,3.100000*%
%ADD18C,5.500000*%
%ADD19R,3.000000X3.000000*%
%ADD20C,3.000000*%
%ADD21RoundRect,0.500000X-1.500000X-0.500000X1.500000X-0.500000X1.500000X0.500000X-1.500000X0.500000X0*%
G04 APERTURE END LIST*
D10*
X79200000Y-80100000D02*
X84100000Y-80100000D01*
X65800000Y-52450000D02*
X65800000Y-56250000D01*
X67750000Y-50500000D02*
X65800000Y-52450000D01*
X68050000Y-48900000D02*
X68050000Y-49800000D01*
X68050000Y-48900000D02*
X69100000Y-47900000D01*
X64000000Y-58000000D02*
X64000000Y-86700000D01*
X77500000Y-78400000D02*
X79200000Y-80100000D01*
X89100000Y-85100000D02*
X89100000Y-89100000D01*
X65800000Y-56250000D02*
X64000000Y-58000000D01*
X84100000Y-80100000D02*
X89100000Y-85100000D01*
X69100000Y-47900000D02*
X75500000Y-47900000D01*
X82500000Y-48000000D02*
X84250000Y-49750000D01*
X64000000Y-86700000D02*
X66600000Y-89300000D01*
X75500000Y-47900000D02*
X76600000Y-49000000D01*
X76600000Y-49000000D02*
X78600000Y-49000000D01*
X77500000Y-77400000D02*
X77500000Y-78400000D01*
X79600000Y-48000000D02*
X78600000Y-49000000D01*
X79600000Y-48000000D02*
X82500000Y-48000000D01*
D11*
X87518724Y-74523646D02*
X87897478Y-75121709D01*
X87897478Y-75121709D02*
X87225552Y-74898889D01*
X87193865Y-76022293D02*
X87545672Y-75572001D01*
X87369768Y-75797147D02*
X86581758Y-75181485D01*
X86581758Y-75181485D02*
X86752965Y-75194388D01*
X86752965Y-75194388D02*
X86886648Y-75177974D01*
X86886648Y-75177974D02*
X86982807Y-75132242D01*
X86854961Y-76301377D02*
X86863169Y-76368219D01*
X86863169Y-76368219D02*
X86930010Y-76360011D01*
X86930010Y-76360011D02*
X86921803Y-76293170D01*
X86921803Y-76293170D02*
X86854961Y-76301377D01*
X86854961Y-76301377D02*
X86930010Y-76360011D01*
X86314349Y-77148022D02*
X86666155Y-76697730D01*
X86490252Y-76922876D02*
X85702241Y-76307214D01*
X85702241Y-76307214D02*
X85873449Y-76320117D01*
X85873449Y-76320117D02*
X86007132Y-76303703D01*
X86007132Y-76303703D02*
X86103291Y-76257972D01*
X91915476Y-97992380D02*
X91963095Y-98040000D01*
X91963095Y-98040000D02*
X92105952Y-98087619D01*
X92105952Y-98087619D02*
X92201190Y-98087619D01*
X92201190Y-98087619D02*
X92344047Y-98040000D01*
X92344047Y-98040000D02*
X92439285Y-97944761D01*
X92439285Y-97944761D02*
X92486904Y-97849523D01*
X92486904Y-97849523D02*
X92534523Y-97659047D01*
X92534523Y-97659047D02*
X92534523Y-97516190D01*
X92534523Y-97516190D02*
X92486904Y-97325714D01*
X92486904Y-97325714D02*
X92439285Y-97230476D01*
X92439285Y-97230476D02*
X92344047Y-97135238D01*
X92344047Y-97135238D02*
X92201190Y-97087619D01*
X92201190Y-97087619D02*
X92105952Y-97087619D01*
X92105952Y-97087619D02*
X91963095Y-97135238D01*
X91963095Y-97135238D02*
X91915476Y-97182857D01*
X90915476Y-97992380D02*
X90963095Y-98040000D01*
X90963095Y-98040000D02*
X91105952Y-98087619D01*
X91105952Y-98087619D02*
X91201190Y-98087619D01*
X91201190Y-98087619D02*
X91344047Y-98040000D01*
X91344047Y-98040000D02*
X91439285Y-97944761D01*
X91439285Y-97944761D02*
X91486904Y-97849523D01*
X91486904Y-97849523D02*
X91534523Y-97659047D01*
X91534523Y-97659047D02*
X91534523Y-97516190D01*
X91534523Y-97516190D02*
X91486904Y-97325714D01*
X91486904Y-97325714D02*
X91439285Y-97230476D01*
X91439285Y-97230476D02*
X91344047Y-97135238D01*
X91344047Y-97135238D02*
X91201190Y-97087619D01*
X91201190Y-97087619D02*
X91105952Y-97087619D01*
X91105952Y-97087619D02*
X90963095Y-97135238D01*
X90963095Y-97135238D02*
X90915476Y-97182857D01*
X90486904Y-97706666D02*
X89725000Y-97706666D01*
X88915476Y-97563809D02*
X88772619Y-97611428D01*
X88772619Y-97611428D02*
X88725000Y-97659047D01*
X88725000Y-97659047D02*
X88677381Y-97754285D01*
X88677381Y-97754285D02*
X88677381Y-97897142D01*
X88677381Y-97897142D02*
X88725000Y-97992380D01*
X88725000Y-97992380D02*
X88772619Y-98040000D01*
X88772619Y-98040000D02*
X88867857Y-98087619D01*
X88867857Y-98087619D02*
X89248809Y-98087619D01*
X89248809Y-98087619D02*
X89248809Y-97087619D01*
X89248809Y-97087619D02*
X88915476Y-97087619D01*
X88915476Y-97087619D02*
X88820238Y-97135238D01*
X88820238Y-97135238D02*
X88772619Y-97182857D01*
X88772619Y-97182857D02*
X88725000Y-97278095D01*
X88725000Y-97278095D02*
X88725000Y-97373333D01*
X88725000Y-97373333D02*
X88772619Y-97468571D01*
X88772619Y-97468571D02*
X88820238Y-97516190D01*
X88820238Y-97516190D02*
X88915476Y-97563809D01*
X88915476Y-97563809D02*
X89248809Y-97563809D01*
X88058333Y-97611428D02*
X88058333Y-98087619D01*
X88391666Y-97087619D02*
X88058333Y-97611428D01*
X88058333Y-97611428D02*
X87725000Y-97087619D01*
X87391666Y-97706666D02*
X86629762Y-97706666D01*
X86201190Y-98040000D02*
X86058333Y-98087619D01*
X86058333Y-98087619D02*
X85820238Y-98087619D01*
X85820238Y-98087619D02*
X85725000Y-98040000D01*
X85725000Y-98040000D02*
X85677381Y-97992380D01*
X85677381Y-97992380D02*
X85629762Y-97897142D01*
X85629762Y-97897142D02*
X85629762Y-97801904D01*
X85629762Y-97801904D02*
X85677381Y-97706666D01*
X85677381Y-97706666D02*
X85725000Y-97659047D01*
X85725000Y-97659047D02*
X85820238Y-97611428D01*
X85820238Y-97611428D02*
X86010714Y-97563809D01*
X86010714Y-97563809D02*
X86105952Y-97516190D01*
X86105952Y-97516190D02*
X86153571Y-97468571D01*
X86153571Y-97468571D02*
X86201190Y-97373333D01*
X86201190Y-97373333D02*
X86201190Y-97278095D01*
X86201190Y-97278095D02*
X86153571Y-97182857D01*
X86153571Y-97182857D02*
X86105952Y-97135238D01*
X86105952Y-97135238D02*
X86010714Y-97087619D01*
X86010714Y-97087619D02*
X85772619Y-97087619D01*
X85772619Y-97087619D02*
X85629762Y-97135238D01*
X85248809Y-97801904D02*
X84772619Y-97801904D01*
X85344047Y-98087619D02*
X85010714Y-97087619D01*
X85010714Y-97087619D02*
X84677381Y-98087619D01*
X83153571Y-97420952D02*
X83153571Y-98087619D01*
X83391666Y-97040000D02*
X83629761Y-97754285D01*
X83629761Y-97754285D02*
X83010714Y-97754285D01*
X82629761Y-97992380D02*
X82582142Y-98040000D01*
X82582142Y-98040000D02*
X82629761Y-98087619D01*
X82629761Y-98087619D02*
X82677380Y-98040000D01*
X82677380Y-98040000D02*
X82629761Y-97992380D01*
X82629761Y-97992380D02*
X82629761Y-98087619D01*
X81963095Y-97087619D02*
X81867857Y-97087619D01*
X81867857Y-97087619D02*
X81772619Y-97135238D01*
X81772619Y-97135238D02*
X81725000Y-97182857D01*
X81725000Y-97182857D02*
X81677381Y-97278095D01*
X81677381Y-97278095D02*
X81629762Y-97468571D01*
X81629762Y-97468571D02*
X81629762Y-97706666D01*
X81629762Y-97706666D02*
X81677381Y-97897142D01*
X81677381Y-97897142D02*
X81725000Y-97992380D01*
X81725000Y-97992380D02*
X81772619Y-98040000D01*
X81772619Y-98040000D02*
X81867857Y-98087619D01*
X81867857Y-98087619D02*
X81963095Y-98087619D01*
X81963095Y-98087619D02*
X82058333Y-98040000D01*
X82058333Y-98040000D02*
X82105952Y-97992380D01*
X82105952Y-97992380D02*
X82153571Y-97897142D01*
X82153571Y-97897142D02*
X82201190Y-97706666D01*
X82201190Y-97706666D02*
X82201190Y-97468571D01*
X82201190Y-97468571D02*
X82153571Y-97278095D01*
X82153571Y-97278095D02*
X82105952Y-97182857D01*
X82105952Y-97182857D02*
X82058333Y-97135238D01*
X82058333Y-97135238D02*
X81963095Y-97087619D01*
D12*
X98568045Y-64891033D02*
X98227999Y-63779348D01*
X99271658Y-63990449D02*
X97695636Y-62759126D01*
X97695636Y-62759126D02*
X97226561Y-63359516D01*
X97226561Y-63359516D02*
X97184341Y-63568247D01*
X97184341Y-63568247D02*
X97200755Y-63701930D01*
X97200755Y-63701930D02*
X97292218Y-63894248D01*
X97292218Y-63894248D02*
X97517364Y-64070151D01*
X97517364Y-64070151D02*
X97726096Y-64112371D01*
X97726096Y-64112371D02*
X97859779Y-64095957D01*
X97859779Y-64095957D02*
X98052096Y-64004494D01*
X98052096Y-64004494D02*
X98521171Y-63404105D01*
X97864432Y-65791617D02*
X97906652Y-65582885D01*
X97906652Y-65582885D02*
X97890238Y-65449202D01*
X97890238Y-65449202D02*
X97798775Y-65256885D01*
X97798775Y-65256885D02*
X97348483Y-64905078D01*
X97348483Y-64905078D02*
X97139751Y-64862858D01*
X97139751Y-64862858D02*
X97006068Y-64879272D01*
X97006068Y-64879272D02*
X96813751Y-64970735D01*
X96813751Y-64970735D02*
X96637847Y-65195881D01*
X96637847Y-65195881D02*
X96595627Y-65404612D01*
X96595627Y-65404612D02*
X96612041Y-65538296D01*
X96612041Y-65538296D02*
X96703504Y-65730613D01*
X96703504Y-65730613D02*
X97153796Y-66082420D01*
X97153796Y-66082420D02*
X97362528Y-66124640D01*
X97362528Y-66124640D02*
X97496211Y-66108226D01*
X97496211Y-66108226D02*
X97688528Y-66016763D01*
X97688528Y-66016763D02*
X97864432Y-65791617D01*
X96926281Y-66992395D02*
X95350259Y-65761072D01*
X95950648Y-66230148D02*
X95758331Y-66321611D01*
X95758331Y-66321611D02*
X95523793Y-66621805D01*
X95523793Y-66621805D02*
X95481573Y-66830537D01*
X95481573Y-66830537D02*
X95497987Y-66964220D01*
X95497987Y-66964220D02*
X95589450Y-67156537D01*
X95589450Y-67156537D02*
X96039742Y-67508344D01*
X96039742Y-67508344D02*
X96248474Y-67550564D01*
X96248474Y-67550564D02*
X96382157Y-67534150D01*
X96382157Y-67534150D02*
X96574474Y-67442687D01*
X96574474Y-67442687D02*
X96809012Y-67142493D01*
X96809012Y-67142493D02*
X96851232Y-66933761D01*
X95636323Y-68643466D02*
X95678543Y-68434734D01*
X95678543Y-68434734D02*
X95662129Y-68301051D01*
X95662129Y-68301051D02*
X95570666Y-68108733D01*
X95570666Y-68108733D02*
X95120375Y-67756927D01*
X95120375Y-67756927D02*
X94911643Y-67714707D01*
X94911643Y-67714707D02*
X94777960Y-67731121D01*
X94777960Y-67731121D02*
X94585642Y-67822584D01*
X94585642Y-67822584D02*
X94409739Y-68047730D01*
X94409739Y-68047730D02*
X94367519Y-68256461D01*
X94367519Y-68256461D02*
X94383933Y-68390144D01*
X94383933Y-68390144D02*
X94475396Y-68582462D01*
X94475396Y-68582462D02*
X94925688Y-68934268D01*
X94925688Y-68934268D02*
X95134419Y-68976489D01*
X95134419Y-68976489D02*
X95268102Y-68960074D01*
X95268102Y-68960074D02*
X95460420Y-68868611D01*
X95460420Y-68868611D02*
X95636323Y-68643466D01*
X93056408Y-71945606D02*
X92716363Y-70833922D01*
X93760021Y-71045023D02*
X92184000Y-69813700D01*
X92184000Y-69813700D02*
X91714924Y-70414089D01*
X91714924Y-70414089D02*
X91672704Y-70622821D01*
X91672704Y-70622821D02*
X91689118Y-70756504D01*
X91689118Y-70756504D02*
X91780581Y-70948821D01*
X91780581Y-70948821D02*
X92005727Y-71124724D01*
X92005727Y-71124724D02*
X92214459Y-71166945D01*
X92214459Y-71166945D02*
X92348142Y-71150530D01*
X92348142Y-71150530D02*
X92540459Y-71059068D01*
X92540459Y-71059068D02*
X93009535Y-70458678D01*
X92352795Y-72846190D02*
X92395015Y-72637458D01*
X92395015Y-72637458D02*
X92378601Y-72503775D01*
X92378601Y-72503775D02*
X92287138Y-72311458D01*
X92287138Y-72311458D02*
X91836846Y-71959651D01*
X91836846Y-71959651D02*
X91628115Y-71917431D01*
X91628115Y-71917431D02*
X91494431Y-71933845D01*
X91494431Y-71933845D02*
X91302114Y-72025308D01*
X91302114Y-72025308D02*
X91126211Y-72250454D01*
X91126211Y-72250454D02*
X91083990Y-72459186D01*
X91083990Y-72459186D02*
X91100405Y-72592869D01*
X91100405Y-72592869D02*
X91191868Y-72785186D01*
X91191868Y-72785186D02*
X91642159Y-73136993D01*
X91642159Y-73136993D02*
X91850891Y-73179213D01*
X91850891Y-73179213D02*
X91984574Y-73162799D01*
X91984574Y-73162799D02*
X92176892Y-73071336D01*
X92176892Y-73071336D02*
X92352795Y-72846190D01*
X91414644Y-74046969D02*
X89838623Y-72815646D01*
X90439012Y-73284721D02*
X90246694Y-73376184D01*
X90246694Y-73376184D02*
X90012156Y-73676378D01*
X90012156Y-73676378D02*
X89969936Y-73885110D01*
X89969936Y-73885110D02*
X89986350Y-74018793D01*
X89986350Y-74018793D02*
X90077813Y-74211111D01*
X90077813Y-74211111D02*
X90528105Y-74562917D01*
X90528105Y-74562917D02*
X90736837Y-74605137D01*
X90736837Y-74605137D02*
X90870520Y-74588723D01*
X90870520Y-74588723D02*
X91062837Y-74497260D01*
X91062837Y-74497260D02*
X91297375Y-74197066D01*
X91297375Y-74197066D02*
X91339595Y-73988334D01*
X90300590Y-75472893D02*
X89249909Y-74652011D01*
X88724568Y-74241570D02*
X88858251Y-74225156D01*
X88858251Y-74225156D02*
X88874666Y-74358839D01*
X88874666Y-74358839D02*
X88740983Y-74375253D01*
X88740983Y-74375253D02*
X88724568Y-74241570D01*
X88724568Y-74241570D02*
X88874666Y-74358839D01*
X88663565Y-75402497D02*
X89714246Y-76223379D01*
X88813662Y-75519766D02*
X88679979Y-75536180D01*
X88679979Y-75536180D02*
X88487661Y-75627643D01*
X88487661Y-75627643D02*
X88311758Y-75852789D01*
X88311758Y-75852789D02*
X88269538Y-76061521D01*
X88269538Y-76061521D02*
X88361001Y-76253838D01*
X88361001Y-76253838D02*
X89186536Y-76898817D01*
D13*
X66323809Y-50118333D02*
X64800000Y-50118333D01*
X65561904Y-50880238D02*
X65561904Y-49356428D01*
X82823809Y-50093333D02*
X81300000Y-50093333D01*
X82061904Y-50855238D02*
X82061904Y-49331428D01*
X92610714Y-98730142D02*
X91925000Y-98730142D01*
X92267857Y-99930142D02*
X92267857Y-98730142D01*
X91524999Y-99930142D02*
X91524999Y-99130142D01*
X91524999Y-98730142D02*
X91582142Y-98787285D01*
X91582142Y-98787285D02*
X91524999Y-98844428D01*
X91524999Y-98844428D02*
X91467856Y-98787285D01*
X91467856Y-98787285D02*
X91524999Y-98730142D01*
X91524999Y-98730142D02*
X91524999Y-98844428D01*
X90953570Y-99930142D02*
X90953570Y-99130142D01*
X90953570Y-99244428D02*
X90896427Y-99187285D01*
X90896427Y-99187285D02*
X90782142Y-99130142D01*
X90782142Y-99130142D02*
X90610713Y-99130142D01*
X90610713Y-99130142D02*
X90496427Y-99187285D01*
X90496427Y-99187285D02*
X90439285Y-99301571D01*
X90439285Y-99301571D02*
X90439285Y-99930142D01*
X90439285Y-99301571D02*
X90382142Y-99187285D01*
X90382142Y-99187285D02*
X90267856Y-99130142D01*
X90267856Y-99130142D02*
X90096427Y-99130142D01*
X90096427Y-99130142D02*
X89982142Y-99187285D01*
X89982142Y-99187285D02*
X89924999Y-99301571D01*
X89924999Y-99301571D02*
X89924999Y-99930142D01*
X89182142Y-99930142D02*
X89296427Y-99873000D01*
X89296427Y-99873000D02*
X89353570Y-99815857D01*
X89353570Y-99815857D02*
X89410713Y-99701571D01*
X89410713Y-99701571D02*
X89410713Y-99358714D01*
X89410713Y-99358714D02*
X89353570Y-99244428D01*
X89353570Y-99244428D02*
X89296427Y-99187285D01*
X89296427Y-99187285D02*
X89182142Y-99130142D01*
X89182142Y-99130142D02*
X89010713Y-99130142D01*
X89010713Y-99130142D02*
X88896427Y-99187285D01*
X88896427Y-99187285D02*
X88839285Y-99244428D01*
X88839285Y-99244428D02*
X88782142Y-99358714D01*
X88782142Y-99358714D02*
X88782142Y-99701571D01*
X88782142Y-99701571D02*
X88839285Y-99815857D01*
X88839285Y-99815857D02*
X88896427Y-99873000D01*
X88896427Y-99873000D02*
X89010713Y-99930142D01*
X89010713Y-99930142D02*
X89182142Y-99930142D01*
X87410713Y-99873000D02*
X87239285Y-99930142D01*
X87239285Y-99930142D02*
X86953570Y-99930142D01*
X86953570Y-99930142D02*
X86839285Y-99873000D01*
X86839285Y-99873000D02*
X86782142Y-99815857D01*
X86782142Y-99815857D02*
X86724999Y-99701571D01*
X86724999Y-99701571D02*
X86724999Y-99587285D01*
X86724999Y-99587285D02*
X86782142Y-99473000D01*
X86782142Y-99473000D02*
X86839285Y-99415857D01*
X86839285Y-99415857D02*
X86953570Y-99358714D01*
X86953570Y-99358714D02*
X87182142Y-99301571D01*
X87182142Y-99301571D02*
X87296427Y-99244428D01*
X87296427Y-99244428D02*
X87353570Y-99187285D01*
X87353570Y-99187285D02*
X87410713Y-99073000D01*
X87410713Y-99073000D02*
X87410713Y-98958714D01*
X87410713Y-98958714D02*
X87353570Y-98844428D01*
X87353570Y-98844428D02*
X87296427Y-98787285D01*
X87296427Y-98787285D02*
X87182142Y-98730142D01*
X87182142Y-98730142D02*
X86896427Y-98730142D01*
X86896427Y-98730142D02*
X86724999Y-98787285D01*
X85696428Y-99873000D02*
X85810713Y-99930142D01*
X85810713Y-99930142D02*
X86039285Y-99930142D01*
X86039285Y-99930142D02*
X86153570Y-99873000D01*
X86153570Y-99873000D02*
X86210713Y-99815857D01*
X86210713Y-99815857D02*
X86267856Y-99701571D01*
X86267856Y-99701571D02*
X86267856Y-99358714D01*
X86267856Y-99358714D02*
X86210713Y-99244428D01*
X86210713Y-99244428D02*
X86153570Y-99187285D01*
X86153570Y-99187285D02*
X86039285Y-99130142D01*
X86039285Y-99130142D02*
X85810713Y-99130142D01*
X85810713Y-99130142D02*
X85696428Y-99187285D01*
X85182142Y-99930142D02*
X85182142Y-98730142D01*
X84667857Y-99930142D02*
X84667857Y-99301571D01*
X84667857Y-99301571D02*
X84724999Y-99187285D01*
X84724999Y-99187285D02*
X84839285Y-99130142D01*
X84839285Y-99130142D02*
X85010714Y-99130142D01*
X85010714Y-99130142D02*
X85124999Y-99187285D01*
X85124999Y-99187285D02*
X85182142Y-99244428D01*
X84096428Y-99930142D02*
X84096428Y-99130142D01*
X84096428Y-98730142D02*
X84153571Y-98787285D01*
X84153571Y-98787285D02*
X84096428Y-98844428D01*
X84096428Y-98844428D02*
X84039285Y-98787285D01*
X84039285Y-98787285D02*
X84096428Y-98730142D01*
X84096428Y-98730142D02*
X84096428Y-98844428D01*
X83524999Y-99130142D02*
X83524999Y-99930142D01*
X83524999Y-99244428D02*
X83467856Y-99187285D01*
X83467856Y-99187285D02*
X83353571Y-99130142D01*
X83353571Y-99130142D02*
X83182142Y-99130142D01*
X83182142Y-99130142D02*
X83067856Y-99187285D01*
X83067856Y-99187285D02*
X83010714Y-99301571D01*
X83010714Y-99301571D02*
X83010714Y-99930142D01*
X81925000Y-99930142D02*
X81925000Y-98730142D01*
X81925000Y-99873000D02*
X82039285Y-99930142D01*
X82039285Y-99930142D02*
X82267857Y-99930142D01*
X82267857Y-99930142D02*
X82382142Y-99873000D01*
X82382142Y-99873000D02*
X82439285Y-99815857D01*
X82439285Y-99815857D02*
X82496428Y-99701571D01*
X82496428Y-99701571D02*
X82496428Y-99358714D01*
X82496428Y-99358714D02*
X82439285Y-99244428D01*
X82439285Y-99244428D02*
X82382142Y-99187285D01*
X82382142Y-99187285D02*
X82267857Y-99130142D01*
X82267857Y-99130142D02*
X82039285Y-99130142D01*
X82039285Y-99130142D02*
X81925000Y-99187285D01*
X81182143Y-99930142D02*
X81296428Y-99873000D01*
X81296428Y-99873000D02*
X81353571Y-99758714D01*
X81353571Y-99758714D02*
X81353571Y-98730142D01*
X80267857Y-99873000D02*
X80382143Y-99930142D01*
X80382143Y-99930142D02*
X80610715Y-99930142D01*
X80610715Y-99930142D02*
X80725000Y-99873000D01*
X80725000Y-99873000D02*
X80782143Y-99758714D01*
X80782143Y-99758714D02*
X80782143Y-99301571D01*
X80782143Y-99301571D02*
X80725000Y-99187285D01*
X80725000Y-99187285D02*
X80610715Y-99130142D01*
X80610715Y-99130142D02*
X80382143Y-99130142D01*
X80382143Y-99130142D02*
X80267857Y-99187285D01*
X80267857Y-99187285D02*
X80210715Y-99301571D01*
X80210715Y-99301571D02*
X80210715Y-99415857D01*
X80210715Y-99415857D02*
X80782143Y-99530142D01*
X79696429Y-99930142D02*
X79696429Y-99130142D01*
X79696429Y-99358714D02*
X79639286Y-99244428D01*
X79639286Y-99244428D02*
X79582144Y-99187285D01*
X79582144Y-99187285D02*
X79467858Y-99130142D01*
X79467858Y-99130142D02*
X79353572Y-99130142D01*
X77296429Y-99358714D02*
X77353572Y-99301571D01*
X77353572Y-99301571D02*
X77467858Y-99244428D01*
X77467858Y-99244428D02*
X77582143Y-99244428D01*
X77582143Y-99244428D02*
X77696429Y-99301571D01*
X77696429Y-99301571D02*
X77753572Y-99358714D01*
X77753572Y-99358714D02*
X77810715Y-99473000D01*
X77810715Y-99473000D02*
X77810715Y-99587285D01*
X77810715Y-99587285D02*
X77753572Y-99701571D01*
X77753572Y-99701571D02*
X77696429Y-99758714D01*
X77696429Y-99758714D02*
X77582143Y-99815857D01*
X77582143Y-99815857D02*
X77467858Y-99815857D01*
X77467858Y-99815857D02*
X77353572Y-99758714D01*
X77353572Y-99758714D02*
X77296429Y-99701571D01*
X77296429Y-99244428D02*
X77296429Y-99701571D01*
X77296429Y-99701571D02*
X77239286Y-99758714D01*
X77239286Y-99758714D02*
X77182143Y-99758714D01*
X77182143Y-99758714D02*
X77067858Y-99701571D01*
X77067858Y-99701571D02*
X77010715Y-99587285D01*
X77010715Y-99587285D02*
X77010715Y-99301571D01*
X77010715Y-99301571D02*
X77125001Y-99130142D01*
X77125001Y-99130142D02*
X77296429Y-99015857D01*
X77296429Y-99015857D02*
X77525001Y-98958714D01*
X77525001Y-98958714D02*
X77753572Y-99015857D01*
X77753572Y-99015857D02*
X77925001Y-99130142D01*
X77925001Y-99130142D02*
X78039286Y-99301571D01*
X78039286Y-99301571D02*
X78096429Y-99530142D01*
X78096429Y-99530142D02*
X78039286Y-99758714D01*
X78039286Y-99758714D02*
X77925001Y-99930142D01*
X77925001Y-99930142D02*
X77753572Y-100044428D01*
X77753572Y-100044428D02*
X77525001Y-100101571D01*
X77525001Y-100101571D02*
X77296429Y-100044428D01*
X77296429Y-100044428D02*
X77125001Y-99930142D01*
X75582143Y-99930142D02*
X75582143Y-98730142D01*
X75582143Y-99187285D02*
X75467858Y-99130142D01*
X75467858Y-99130142D02*
X75239286Y-99130142D01*
X75239286Y-99130142D02*
X75125000Y-99187285D01*
X75125000Y-99187285D02*
X75067858Y-99244428D01*
X75067858Y-99244428D02*
X75010715Y-99358714D01*
X75010715Y-99358714D02*
X75010715Y-99701571D01*
X75010715Y-99701571D02*
X75067858Y-99815857D01*
X75067858Y-99815857D02*
X75125000Y-99873000D01*
X75125000Y-99873000D02*
X75239286Y-99930142D01*
X75239286Y-99930142D02*
X75467858Y-99930142D01*
X75467858Y-99930142D02*
X75582143Y-99873000D01*
X74325001Y-99930142D02*
X74439286Y-99873000D01*
X74439286Y-99873000D02*
X74496429Y-99758714D01*
X74496429Y-99758714D02*
X74496429Y-98730142D01*
X73867858Y-99930142D02*
X73867858Y-99130142D01*
X73867858Y-98730142D02*
X73925001Y-98787285D01*
X73925001Y-98787285D02*
X73867858Y-98844428D01*
X73867858Y-98844428D02*
X73810715Y-98787285D01*
X73810715Y-98787285D02*
X73867858Y-98730142D01*
X73867858Y-98730142D02*
X73867858Y-98844428D01*
X73296429Y-99130142D02*
X73296429Y-99930142D01*
X73296429Y-99244428D02*
X73239286Y-99187285D01*
X73239286Y-99187285D02*
X73125001Y-99130142D01*
X73125001Y-99130142D02*
X72953572Y-99130142D01*
X72953572Y-99130142D02*
X72839286Y-99187285D01*
X72839286Y-99187285D02*
X72782144Y-99301571D01*
X72782144Y-99301571D02*
X72782144Y-99930142D01*
X72210715Y-99930142D02*
X72210715Y-98730142D01*
X72096430Y-99473000D02*
X71753572Y-99930142D01*
X71753572Y-99130142D02*
X72210715Y-99587285D01*
X71353572Y-99130142D02*
X71067858Y-99930142D01*
X70782143Y-99130142D02*
X71067858Y-99930142D01*
X71067858Y-99930142D02*
X71182143Y-100215857D01*
X71182143Y-100215857D02*
X71239286Y-100273000D01*
X71239286Y-100273000D02*
X71353572Y-100330142D01*
X70325000Y-99130142D02*
X70325000Y-100330142D01*
X70325000Y-99187285D02*
X70210715Y-99130142D01*
X70210715Y-99130142D02*
X69982143Y-99130142D01*
X69982143Y-99130142D02*
X69867857Y-99187285D01*
X69867857Y-99187285D02*
X69810715Y-99244428D01*
X69810715Y-99244428D02*
X69753572Y-99358714D01*
X69753572Y-99358714D02*
X69753572Y-99701571D01*
X69753572Y-99701571D02*
X69810715Y-99815857D01*
X69810715Y-99815857D02*
X69867857Y-99873000D01*
X69867857Y-99873000D02*
X69982143Y-99930142D01*
X69982143Y-99930142D02*
X70210715Y-99930142D01*
X70210715Y-99930142D02*
X70325000Y-99873000D01*
X68725001Y-99930142D02*
X68725001Y-99301571D01*
X68725001Y-99301571D02*
X68782143Y-99187285D01*
X68782143Y-99187285D02*
X68896429Y-99130142D01*
X68896429Y-99130142D02*
X69125001Y-99130142D01*
X69125001Y-99130142D02*
X69239286Y-99187285D01*
X68725001Y-99873000D02*
X68839286Y-99930142D01*
X68839286Y-99930142D02*
X69125001Y-99930142D01*
X69125001Y-99930142D02*
X69239286Y-99873000D01*
X69239286Y-99873000D02*
X69296429Y-99758714D01*
X69296429Y-99758714D02*
X69296429Y-99644428D01*
X69296429Y-99644428D02*
X69239286Y-99530142D01*
X69239286Y-99530142D02*
X69125001Y-99473000D01*
X69125001Y-99473000D02*
X68839286Y-99473000D01*
X68839286Y-99473000D02*
X68725001Y-99415857D01*
X68153572Y-99930142D02*
X68153572Y-99130142D01*
X68153572Y-99358714D02*
X68096429Y-99244428D01*
X68096429Y-99244428D02*
X68039287Y-99187285D01*
X68039287Y-99187285D02*
X67925001Y-99130142D01*
X67925001Y-99130142D02*
X67810715Y-99130142D01*
X67582144Y-99130142D02*
X67125001Y-99130142D01*
X67410715Y-98730142D02*
X67410715Y-99758714D01*
X67410715Y-99758714D02*
X67353572Y-99873000D01*
X67353572Y-99873000D02*
X67239287Y-99930142D01*
X67239287Y-99930142D02*
X67125001Y-99930142D01*
X66782144Y-99873000D02*
X66667858Y-99930142D01*
X66667858Y-99930142D02*
X66439287Y-99930142D01*
X66439287Y-99930142D02*
X66325001Y-99873000D01*
X66325001Y-99873000D02*
X66267858Y-99758714D01*
X66267858Y-99758714D02*
X66267858Y-99701571D01*
X66267858Y-99701571D02*
X66325001Y-99587285D01*
X66325001Y-99587285D02*
X66439287Y-99530142D01*
X66439287Y-99530142D02*
X66610716Y-99530142D01*
X66610716Y-99530142D02*
X66725001Y-99473000D01*
X66725001Y-99473000D02*
X66782144Y-99358714D01*
X66782144Y-99358714D02*
X66782144Y-99301571D01*
X66782144Y-99301571D02*
X66725001Y-99187285D01*
X66725001Y-99187285D02*
X66610716Y-99130142D01*
X66610716Y-99130142D02*
X66439287Y-99130142D01*
X66439287Y-99130142D02*
X66325001Y-99187285D01*
X65753572Y-99815857D02*
X65696429Y-99873000D01*
X65696429Y-99873000D02*
X65753572Y-99930142D01*
X65753572Y-99930142D02*
X65810715Y-99873000D01*
X65810715Y-99873000D02*
X65753572Y-99815857D01*
X65753572Y-99815857D02*
X65753572Y-99930142D01*
X64667858Y-99873000D02*
X64782143Y-99930142D01*
X64782143Y-99930142D02*
X65010715Y-99930142D01*
X65010715Y-99930142D02*
X65125000Y-99873000D01*
X65125000Y-99873000D02*
X65182143Y-99815857D01*
X65182143Y-99815857D02*
X65239286Y-99701571D01*
X65239286Y-99701571D02*
X65239286Y-99358714D01*
X65239286Y-99358714D02*
X65182143Y-99244428D01*
X65182143Y-99244428D02*
X65125000Y-99187285D01*
X65125000Y-99187285D02*
X65010715Y-99130142D01*
X65010715Y-99130142D02*
X64782143Y-99130142D01*
X64782143Y-99130142D02*
X64667858Y-99187285D01*
X63982144Y-99930142D02*
X64096429Y-99873000D01*
X64096429Y-99873000D02*
X64153572Y-99815857D01*
X64153572Y-99815857D02*
X64210715Y-99701571D01*
X64210715Y-99701571D02*
X64210715Y-99358714D01*
X64210715Y-99358714D02*
X64153572Y-99244428D01*
X64153572Y-99244428D02*
X64096429Y-99187285D01*
X64096429Y-99187285D02*
X63982144Y-99130142D01*
X63982144Y-99130142D02*
X63810715Y-99130142D01*
X63810715Y-99130142D02*
X63696429Y-99187285D01*
X63696429Y-99187285D02*
X63639287Y-99244428D01*
X63639287Y-99244428D02*
X63582144Y-99358714D01*
X63582144Y-99358714D02*
X63582144Y-99701571D01*
X63582144Y-99701571D02*
X63639287Y-99815857D01*
X63639287Y-99815857D02*
X63696429Y-99873000D01*
X63696429Y-99873000D02*
X63810715Y-99930142D01*
X63810715Y-99930142D02*
X63982144Y-99930142D01*
X63067858Y-99930142D02*
X63067858Y-99130142D01*
X63067858Y-99244428D02*
X63010715Y-99187285D01*
X63010715Y-99187285D02*
X62896430Y-99130142D01*
X62896430Y-99130142D02*
X62725001Y-99130142D01*
X62725001Y-99130142D02*
X62610715Y-99187285D01*
X62610715Y-99187285D02*
X62553573Y-99301571D01*
X62553573Y-99301571D02*
X62553573Y-99930142D01*
X62553573Y-99301571D02*
X62496430Y-99187285D01*
X62496430Y-99187285D02*
X62382144Y-99130142D01*
X62382144Y-99130142D02*
X62210715Y-99130142D01*
X62210715Y-99130142D02*
X62096430Y-99187285D01*
X62096430Y-99187285D02*
X62039287Y-99301571D01*
X62039287Y-99301571D02*
X62039287Y-99930142D01*
%TO.C,Batterie*%
X80835714Y-64908214D02*
X80621428Y-64979642D01*
X80621428Y-64979642D02*
X80549999Y-65051071D01*
X80549999Y-65051071D02*
X80478571Y-65193928D01*
X80478571Y-65193928D02*
X80478571Y-65408214D01*
X80478571Y-65408214D02*
X80549999Y-65551071D01*
X80549999Y-65551071D02*
X80621428Y-65622500D01*
X80621428Y-65622500D02*
X80764285Y-65693928D01*
X80764285Y-65693928D02*
X81335714Y-65693928D01*
X81335714Y-65693928D02*
X81335714Y-64193928D01*
X81335714Y-64193928D02*
X80835714Y-64193928D01*
X80835714Y-64193928D02*
X80692857Y-64265357D01*
X80692857Y-64265357D02*
X80621428Y-64336785D01*
X80621428Y-64336785D02*
X80549999Y-64479642D01*
X80549999Y-64479642D02*
X80549999Y-64622500D01*
X80549999Y-64622500D02*
X80621428Y-64765357D01*
X80621428Y-64765357D02*
X80692857Y-64836785D01*
X80692857Y-64836785D02*
X80835714Y-64908214D01*
X80835714Y-64908214D02*
X81335714Y-64908214D01*
X79192857Y-65693928D02*
X79192857Y-64908214D01*
X79192857Y-64908214D02*
X79264285Y-64765357D01*
X79264285Y-64765357D02*
X79407142Y-64693928D01*
X79407142Y-64693928D02*
X79692857Y-64693928D01*
X79692857Y-64693928D02*
X79835714Y-64765357D01*
X79192857Y-65622500D02*
X79335714Y-65693928D01*
X79335714Y-65693928D02*
X79692857Y-65693928D01*
X79692857Y-65693928D02*
X79835714Y-65622500D01*
X79835714Y-65622500D02*
X79907142Y-65479642D01*
X79907142Y-65479642D02*
X79907142Y-65336785D01*
X79907142Y-65336785D02*
X79835714Y-65193928D01*
X79835714Y-65193928D02*
X79692857Y-65122500D01*
X79692857Y-65122500D02*
X79335714Y-65122500D01*
X79335714Y-65122500D02*
X79192857Y-65051071D01*
X78692856Y-64693928D02*
X78121428Y-64693928D01*
X78478571Y-64193928D02*
X78478571Y-65479642D01*
X78478571Y-65479642D02*
X78407142Y-65622500D01*
X78407142Y-65622500D02*
X78264285Y-65693928D01*
X78264285Y-65693928D02*
X78121428Y-65693928D01*
X77835713Y-64693928D02*
X77264285Y-64693928D01*
X77621428Y-64193928D02*
X77621428Y-65479642D01*
X77621428Y-65479642D02*
X77549999Y-65622500D01*
X77549999Y-65622500D02*
X77407142Y-65693928D01*
X77407142Y-65693928D02*
X77264285Y-65693928D01*
X76192856Y-65622500D02*
X76335713Y-65693928D01*
X76335713Y-65693928D02*
X76621428Y-65693928D01*
X76621428Y-65693928D02*
X76764285Y-65622500D01*
X76764285Y-65622500D02*
X76835713Y-65479642D01*
X76835713Y-65479642D02*
X76835713Y-64908214D01*
X76835713Y-64908214D02*
X76764285Y-64765357D01*
X76764285Y-64765357D02*
X76621428Y-64693928D01*
X76621428Y-64693928D02*
X76335713Y-64693928D01*
X76335713Y-64693928D02*
X76192856Y-64765357D01*
X76192856Y-64765357D02*
X76121428Y-64908214D01*
X76121428Y-64908214D02*
X76121428Y-65051071D01*
X76121428Y-65051071D02*
X76835713Y-65193928D01*
X75478571Y-65693928D02*
X75478571Y-64693928D01*
X75478571Y-64979642D02*
X75407142Y-64836785D01*
X75407142Y-64836785D02*
X75335714Y-64765357D01*
X75335714Y-64765357D02*
X75192856Y-64693928D01*
X75192856Y-64693928D02*
X75049999Y-64693928D01*
X74550000Y-65693928D02*
X74550000Y-64693928D01*
X74550000Y-64193928D02*
X74621428Y-64265357D01*
X74621428Y-64265357D02*
X74550000Y-64336785D01*
X74550000Y-64336785D02*
X74478571Y-64265357D01*
X74478571Y-64265357D02*
X74550000Y-64193928D01*
X74550000Y-64193928D02*
X74550000Y-64336785D01*
X73264285Y-65622500D02*
X73407142Y-65693928D01*
X73407142Y-65693928D02*
X73692857Y-65693928D01*
X73692857Y-65693928D02*
X73835714Y-65622500D01*
X73835714Y-65622500D02*
X73907142Y-65479642D01*
X73907142Y-65479642D02*
X73907142Y-64908214D01*
X73907142Y-64908214D02*
X73835714Y-64765357D01*
X73835714Y-64765357D02*
X73692857Y-64693928D01*
X73692857Y-64693928D02*
X73407142Y-64693928D01*
X73407142Y-64693928D02*
X73264285Y-64765357D01*
X73264285Y-64765357D02*
X73192857Y-64908214D01*
X73192857Y-64908214D02*
X73192857Y-65051071D01*
X73192857Y-65051071D02*
X73907142Y-65193928D01*
D14*
X75945000Y-79057142D02*
X75945000Y-81342857D01*
X77087857Y-80199999D02*
X74802142Y-80199999D01*
D13*
%TO.C,SW1*%
X82457141Y-90422500D02*
X82242856Y-90493928D01*
X82242856Y-90493928D02*
X81885713Y-90493928D01*
X81885713Y-90493928D02*
X81742856Y-90422500D01*
X81742856Y-90422500D02*
X81671427Y-90351071D01*
X81671427Y-90351071D02*
X81599998Y-90208214D01*
X81599998Y-90208214D02*
X81599998Y-90065357D01*
X81599998Y-90065357D02*
X81671427Y-89922500D01*
X81671427Y-89922500D02*
X81742856Y-89851071D01*
X81742856Y-89851071D02*
X81885713Y-89779642D01*
X81885713Y-89779642D02*
X82171427Y-89708214D01*
X82171427Y-89708214D02*
X82314284Y-89636785D01*
X82314284Y-89636785D02*
X82385713Y-89565357D01*
X82385713Y-89565357D02*
X82457141Y-89422500D01*
X82457141Y-89422500D02*
X82457141Y-89279642D01*
X82457141Y-89279642D02*
X82385713Y-89136785D01*
X82385713Y-89136785D02*
X82314284Y-89065357D01*
X82314284Y-89065357D02*
X82171427Y-88993928D01*
X82171427Y-88993928D02*
X81814284Y-88993928D01*
X81814284Y-88993928D02*
X81599998Y-89065357D01*
X80314285Y-90422500D02*
X80457142Y-90493928D01*
X80457142Y-90493928D02*
X80742856Y-90493928D01*
X80742856Y-90493928D02*
X80885713Y-90422500D01*
X80885713Y-90422500D02*
X80957142Y-90351071D01*
X80957142Y-90351071D02*
X81028570Y-90208214D01*
X81028570Y-90208214D02*
X81028570Y-89779642D01*
X81028570Y-89779642D02*
X80957142Y-89636785D01*
X80957142Y-89636785D02*
X80885713Y-89565357D01*
X80885713Y-89565357D02*
X80742856Y-89493928D01*
X80742856Y-89493928D02*
X80457142Y-89493928D01*
X80457142Y-89493928D02*
X80314285Y-89565357D01*
X79671428Y-90493928D02*
X79671428Y-88993928D01*
X79028571Y-90493928D02*
X79028571Y-89708214D01*
X79028571Y-89708214D02*
X79099999Y-89565357D01*
X79099999Y-89565357D02*
X79242856Y-89493928D01*
X79242856Y-89493928D02*
X79457142Y-89493928D01*
X79457142Y-89493928D02*
X79599999Y-89565357D01*
X79599999Y-89565357D02*
X79671428Y-89636785D01*
X77671428Y-90493928D02*
X77671428Y-89708214D01*
X77671428Y-89708214D02*
X77742856Y-89565357D01*
X77742856Y-89565357D02*
X77885713Y-89493928D01*
X77885713Y-89493928D02*
X78171428Y-89493928D01*
X78171428Y-89493928D02*
X78314285Y-89565357D01*
X77671428Y-90422500D02*
X77814285Y-90493928D01*
X77814285Y-90493928D02*
X78171428Y-90493928D01*
X78171428Y-90493928D02*
X78314285Y-90422500D01*
X78314285Y-90422500D02*
X78385713Y-90279642D01*
X78385713Y-90279642D02*
X78385713Y-90136785D01*
X78385713Y-90136785D02*
X78314285Y-89993928D01*
X78314285Y-89993928D02*
X78171428Y-89922500D01*
X78171428Y-89922500D02*
X77814285Y-89922500D01*
X77814285Y-89922500D02*
X77671428Y-89851071D01*
X76742856Y-90493928D02*
X76885713Y-90422500D01*
X76885713Y-90422500D02*
X76957142Y-90279642D01*
X76957142Y-90279642D02*
X76957142Y-88993928D01*
X76385713Y-89493928D02*
X75814285Y-89493928D01*
X76171428Y-88993928D02*
X76171428Y-90279642D01*
X76171428Y-90279642D02*
X76099999Y-90422500D01*
X76099999Y-90422500D02*
X75957142Y-90493928D01*
X75957142Y-90493928D02*
X75814285Y-90493928D01*
X74742856Y-90422500D02*
X74885713Y-90493928D01*
X74885713Y-90493928D02*
X75171428Y-90493928D01*
X75171428Y-90493928D02*
X75314285Y-90422500D01*
X75314285Y-90422500D02*
X75385713Y-90279642D01*
X75385713Y-90279642D02*
X75385713Y-89708214D01*
X75385713Y-89708214D02*
X75314285Y-89565357D01*
X75314285Y-89565357D02*
X75171428Y-89493928D01*
X75171428Y-89493928D02*
X74885713Y-89493928D01*
X74885713Y-89493928D02*
X74742856Y-89565357D01*
X74742856Y-89565357D02*
X74671428Y-89708214D01*
X74671428Y-89708214D02*
X74671428Y-89851071D01*
X74671428Y-89851071D02*
X75385713Y-89993928D01*
X74028571Y-90493928D02*
X74028571Y-89493928D01*
X74028571Y-89779642D02*
X73957142Y-89636785D01*
X73957142Y-89636785D02*
X73885714Y-89565357D01*
X73885714Y-89565357D02*
X73742856Y-89493928D01*
X73742856Y-89493928D02*
X73599999Y-89493928D01*
%TD*%
D15*
%TO.C,D2*%
X87200000Y-50200000D03*
D16*
X84660000Y-50200000D03*
%TD*%
D15*
%TO.C,D1*%
X70575000Y-50200000D03*
D16*
X68035000Y-50200000D03*
%TD*%
D17*
%TO.C,REF\u002A\u002A*%
X56800000Y-82850000D03*
%TD*%
%TO.C,REF\u002A\u002A*%
X98000000Y-82900000D03*
%TD*%
D18*
%TO.C,*%
X77610000Y-45110000D03*
%TD*%
D19*
%TO.C,Batterie*%
X77500000Y-76000000D03*
D20*
X77500000Y-56000000D03*
%TD*%
D21*
%TO.C,SW1*%
X67100000Y-89800000D03*
X89100000Y-89800000D03*
%TD*%
M02*
