%TF.GenerationSoftware,KiCad,Pcbnew,7.0.6*%
%TF.CreationDate,2023-07-28T13:42:51+02:00*%
%TF.ProjectId,robi,726f6269-2e6b-4696-9361-645f70636258,rev?*%
%TF.SameCoordinates,Original*%
%TF.FileFunction,Soldermask,Bot*%
%TF.FilePolarity,Negative*%
%FSLAX46Y46*%
G04 Gerber Fmt 4.6, Leading zero omitted, Abs format (unit mm)*
G04 Created by KiCad (PCBNEW 7.0.6) date 2023-07-28 13:42:51*
%MOMM*%
%LPD*%
G01*
G04 APERTURE LIST*
G04 Aperture macros list*
%AMRoundRect*
0 Rectangle with rounded corners*
0 $1 Rounding radius*
0 $2 $3 $4 $5 $6 $7 $8 $9 X,Y pos of 4 corners*
0 Add a 4 corners polygon primitive as box body*
4,1,4,$2,$3,$4,$5,$6,$7,$8,$9,$2,$3,0*
0 Add four circle primitives for the rounded corners*
1,1,$1+$1,$2,$3*
1,1,$1+$1,$4,$5*
1,1,$1+$1,$6,$7*
1,1,$1+$1,$8,$9*
0 Add four rect primitives between the rounded corners*
20,1,$1+$1,$2,$3,$4,$5,0*
20,1,$1+$1,$4,$5,$6,$7,0*
20,1,$1+$1,$6,$7,$8,$9,0*
20,1,$1+$1,$8,$9,$2,$3,0*%
%AMFreePoly0*
4,1,101,0.523063,1.238106,0.538902,1.238106,0.551715,1.228796,0.566779,1.223902,0.576088,1.211088,0.588902,1.201779,0.593796,1.186715,0.603106,1.173902,0.603106,1.158062,0.608000,1.143000,0.608000,0.609600,0.609600,0.609600,0.609600,0.608000,1.143000,0.608000,1.158063,0.603106,1.173902,0.603106,1.186715,0.593796,1.201779,0.588902,1.211088,0.576088,1.223902,0.566779,
1.228796,0.551715,1.238106,0.538902,1.238106,0.523062,1.243000,0.508000,1.243000,-0.508000,1.238106,-0.523062,1.238106,-0.538902,1.228796,-0.551715,1.223902,-0.566779,1.211088,-0.576088,1.201779,-0.588902,1.186715,-0.593796,1.173902,-0.603106,1.158063,-0.603106,1.143000,-0.608000,0.609600,-0.608000,0.609600,-0.609600,0.608000,-0.609600,0.608000,-1.143000,0.603106,-1.158062,
0.603106,-1.173902,0.593796,-1.186715,0.588902,-1.201779,0.576088,-1.211088,0.566779,-1.223902,0.551715,-1.228796,0.538902,-1.238106,0.523063,-1.238106,0.508000,-1.243000,-0.508000,-1.243000,-0.523063,-1.238106,-0.538902,-1.238106,-0.551715,-1.228796,-0.566779,-1.223902,-0.576088,-1.211088,-0.588902,-1.201779,-0.593796,-1.186715,-0.603106,-1.173902,-0.603106,-1.158062,-0.608000,-1.143000,
-0.608000,-0.609600,-0.609600,-0.609600,-0.609600,-0.608000,-1.143000,-0.608000,-1.158063,-0.603106,-1.173902,-0.603106,-1.186715,-0.593796,-1.201779,-0.588902,-1.211088,-0.576088,-1.223902,-0.566779,-1.228796,-0.551715,-1.238106,-0.538902,-1.238106,-0.523062,-1.243000,-0.508000,-1.243000,0.508000,-1.238106,0.523062,-1.238106,0.538902,-1.228796,0.551715,-1.223902,0.566779,-1.211088,0.576088,
-1.201779,0.588902,-1.186715,0.593796,-1.173902,0.603106,-1.158063,0.603106,-1.143000,0.608000,-0.609600,0.608000,-0.609600,0.609600,-0.608000,0.609600,-0.608000,1.143000,-0.603106,1.158062,-0.603106,1.173902,-0.593796,1.186715,-0.588902,1.201779,-0.576088,1.211088,-0.566779,1.223902,-0.551715,1.228796,-0.538902,1.238106,-0.523063,1.238106,-0.508000,1.243000,0.508000,1.243000,
0.523063,1.238106,0.523063,1.238106,$1*%
G04 Aperture macros list end*
%ADD10C,1.000000*%
%ADD11C,0.300000*%
%ADD12C,0.150000*%
%ADD13C,0.400000*%
%ADD14C,0.200000*%
%ADD15R,1.800000X1.800000*%
%ADD16FreePoly0,90.000000*%
%ADD17C,3.100000*%
%ADD18C,5.500000*%
%ADD19R,3.000000X3.000000*%
%ADD20C,3.000000*%
%ADD21RoundRect,0.500000X-1.500000X-0.500000X1.500000X-0.500000X1.500000X0.500000X-1.500000X0.500000X0*%
G04 APERTURE END LIST*
D10*
X77500000Y-80518000D02*
X78740000Y-81788000D01*
X69359000Y-47252000D02*
X67818000Y-45720000D01*
X72644000Y-45720000D02*
X67818000Y-45720000D01*
X85725000Y-46863000D02*
X85725000Y-49149000D01*
X82804000Y-45720000D02*
X84582000Y-45720000D01*
D11*
X74653346Y-56259400D02*
X72367632Y-56259400D01*
D10*
X78740000Y-81788000D02*
X85090000Y-81788000D01*
X64008000Y-49662000D02*
X64000000Y-58000000D01*
X67818000Y-45720000D02*
X64049000Y-49489000D01*
X69342000Y-48768000D02*
X69359000Y-47252000D01*
X64000000Y-58000000D02*
X64000000Y-86700000D01*
X89100000Y-85852000D02*
X89100000Y-89852000D01*
X85090000Y-81788000D02*
X89154000Y-85852000D01*
X76200000Y-49276000D02*
X79248000Y-49276000D01*
X84582000Y-45720000D02*
X85598000Y-46736000D01*
X64000000Y-86700000D02*
X66600000Y-89300000D01*
X72644000Y-45720000D02*
X75946000Y-49000000D01*
X77500000Y-77400000D02*
X77500000Y-80518000D01*
X82804000Y-45720000D02*
X79248000Y-49276000D01*
D12*
X87512577Y-74518844D02*
X87891332Y-75116906D01*
X87891332Y-75116906D02*
X87219405Y-74894087D01*
X87187719Y-76017490D02*
X87539525Y-75567199D01*
X87363622Y-75792344D02*
X86575611Y-75176683D01*
X86575611Y-75176683D02*
X86746818Y-75189586D01*
X86746818Y-75189586D02*
X86880502Y-75173172D01*
X86880502Y-75173172D02*
X86976660Y-75127440D01*
X86848815Y-76296575D02*
X86857022Y-76363416D01*
X86857022Y-76363416D02*
X86923864Y-76355209D01*
X86923864Y-76355209D02*
X86915656Y-76288368D01*
X86915656Y-76288368D02*
X86848815Y-76296575D01*
X86848815Y-76296575D02*
X86923864Y-76355209D01*
X85947047Y-76135901D02*
X85880205Y-76144108D01*
X85880205Y-76144108D02*
X85784047Y-76189839D01*
X85784047Y-76189839D02*
X85637460Y-76377461D01*
X85637460Y-76377461D02*
X85616350Y-76481827D01*
X85616350Y-76481827D02*
X85624557Y-76548668D01*
X85624557Y-76548668D02*
X85670289Y-76644827D01*
X85670289Y-76644827D02*
X85745338Y-76703461D01*
X85745338Y-76703461D02*
X85887228Y-76753889D01*
X85887228Y-76753889D02*
X86689326Y-76655404D01*
X86689326Y-76655404D02*
X86308202Y-77143220D01*
X91816792Y-97984580D02*
X91864411Y-98032200D01*
X91864411Y-98032200D02*
X92007268Y-98079819D01*
X92007268Y-98079819D02*
X92102506Y-98079819D01*
X92102506Y-98079819D02*
X92245363Y-98032200D01*
X92245363Y-98032200D02*
X92340601Y-97936961D01*
X92340601Y-97936961D02*
X92388220Y-97841723D01*
X92388220Y-97841723D02*
X92435839Y-97651247D01*
X92435839Y-97651247D02*
X92435839Y-97508390D01*
X92435839Y-97508390D02*
X92388220Y-97317914D01*
X92388220Y-97317914D02*
X92340601Y-97222676D01*
X92340601Y-97222676D02*
X92245363Y-97127438D01*
X92245363Y-97127438D02*
X92102506Y-97079819D01*
X92102506Y-97079819D02*
X92007268Y-97079819D01*
X92007268Y-97079819D02*
X91864411Y-97127438D01*
X91864411Y-97127438D02*
X91816792Y-97175057D01*
X90816792Y-97984580D02*
X90864411Y-98032200D01*
X90864411Y-98032200D02*
X91007268Y-98079819D01*
X91007268Y-98079819D02*
X91102506Y-98079819D01*
X91102506Y-98079819D02*
X91245363Y-98032200D01*
X91245363Y-98032200D02*
X91340601Y-97936961D01*
X91340601Y-97936961D02*
X91388220Y-97841723D01*
X91388220Y-97841723D02*
X91435839Y-97651247D01*
X91435839Y-97651247D02*
X91435839Y-97508390D01*
X91435839Y-97508390D02*
X91388220Y-97317914D01*
X91388220Y-97317914D02*
X91340601Y-97222676D01*
X91340601Y-97222676D02*
X91245363Y-97127438D01*
X91245363Y-97127438D02*
X91102506Y-97079819D01*
X91102506Y-97079819D02*
X91007268Y-97079819D01*
X91007268Y-97079819D02*
X90864411Y-97127438D01*
X90864411Y-97127438D02*
X90816792Y-97175057D01*
X90388220Y-97698866D02*
X89626316Y-97698866D01*
X88816792Y-97556009D02*
X88673935Y-97603628D01*
X88673935Y-97603628D02*
X88626316Y-97651247D01*
X88626316Y-97651247D02*
X88578697Y-97746485D01*
X88578697Y-97746485D02*
X88578697Y-97889342D01*
X88578697Y-97889342D02*
X88626316Y-97984580D01*
X88626316Y-97984580D02*
X88673935Y-98032200D01*
X88673935Y-98032200D02*
X88769173Y-98079819D01*
X88769173Y-98079819D02*
X89150125Y-98079819D01*
X89150125Y-98079819D02*
X89150125Y-97079819D01*
X89150125Y-97079819D02*
X88816792Y-97079819D01*
X88816792Y-97079819D02*
X88721554Y-97127438D01*
X88721554Y-97127438D02*
X88673935Y-97175057D01*
X88673935Y-97175057D02*
X88626316Y-97270295D01*
X88626316Y-97270295D02*
X88626316Y-97365533D01*
X88626316Y-97365533D02*
X88673935Y-97460771D01*
X88673935Y-97460771D02*
X88721554Y-97508390D01*
X88721554Y-97508390D02*
X88816792Y-97556009D01*
X88816792Y-97556009D02*
X89150125Y-97556009D01*
X87959649Y-97603628D02*
X87959649Y-98079819D01*
X88292982Y-97079819D02*
X87959649Y-97603628D01*
X87959649Y-97603628D02*
X87626316Y-97079819D01*
X87292982Y-97698866D02*
X86531078Y-97698866D01*
X86102506Y-98032200D02*
X85959649Y-98079819D01*
X85959649Y-98079819D02*
X85721554Y-98079819D01*
X85721554Y-98079819D02*
X85626316Y-98032200D01*
X85626316Y-98032200D02*
X85578697Y-97984580D01*
X85578697Y-97984580D02*
X85531078Y-97889342D01*
X85531078Y-97889342D02*
X85531078Y-97794104D01*
X85531078Y-97794104D02*
X85578697Y-97698866D01*
X85578697Y-97698866D02*
X85626316Y-97651247D01*
X85626316Y-97651247D02*
X85721554Y-97603628D01*
X85721554Y-97603628D02*
X85912030Y-97556009D01*
X85912030Y-97556009D02*
X86007268Y-97508390D01*
X86007268Y-97508390D02*
X86054887Y-97460771D01*
X86054887Y-97460771D02*
X86102506Y-97365533D01*
X86102506Y-97365533D02*
X86102506Y-97270295D01*
X86102506Y-97270295D02*
X86054887Y-97175057D01*
X86054887Y-97175057D02*
X86007268Y-97127438D01*
X86007268Y-97127438D02*
X85912030Y-97079819D01*
X85912030Y-97079819D02*
X85673935Y-97079819D01*
X85673935Y-97079819D02*
X85531078Y-97127438D01*
X85150125Y-97794104D02*
X84673935Y-97794104D01*
X85245363Y-98079819D02*
X84912030Y-97079819D01*
X84912030Y-97079819D02*
X84578697Y-98079819D01*
X83054887Y-97413152D02*
X83054887Y-98079819D01*
X83292982Y-97032200D02*
X83531077Y-97746485D01*
X83531077Y-97746485D02*
X82912030Y-97746485D01*
X82531077Y-97984580D02*
X82483458Y-98032200D01*
X82483458Y-98032200D02*
X82531077Y-98079819D01*
X82531077Y-98079819D02*
X82578696Y-98032200D01*
X82578696Y-98032200D02*
X82531077Y-97984580D01*
X82531077Y-97984580D02*
X82531077Y-98079819D01*
X81864411Y-97079819D02*
X81769173Y-97079819D01*
X81769173Y-97079819D02*
X81673935Y-97127438D01*
X81673935Y-97127438D02*
X81626316Y-97175057D01*
X81626316Y-97175057D02*
X81578697Y-97270295D01*
X81578697Y-97270295D02*
X81531078Y-97460771D01*
X81531078Y-97460771D02*
X81531078Y-97698866D01*
X81531078Y-97698866D02*
X81578697Y-97889342D01*
X81578697Y-97889342D02*
X81626316Y-97984580D01*
X81626316Y-97984580D02*
X81673935Y-98032200D01*
X81673935Y-98032200D02*
X81769173Y-98079819D01*
X81769173Y-98079819D02*
X81864411Y-98079819D01*
X81864411Y-98079819D02*
X81959649Y-98032200D01*
X81959649Y-98032200D02*
X82007268Y-97984580D01*
X82007268Y-97984580D02*
X82054887Y-97889342D01*
X82054887Y-97889342D02*
X82102506Y-97698866D01*
X82102506Y-97698866D02*
X82102506Y-97460771D01*
X82102506Y-97460771D02*
X82054887Y-97270295D01*
X82054887Y-97270295D02*
X82007268Y-97175057D01*
X82007268Y-97175057D02*
X81959649Y-97127438D01*
X81959649Y-97127438D02*
X81864411Y-97079819D01*
D13*
X98551654Y-64878227D02*
X98211609Y-63766543D01*
X99255267Y-63977644D02*
X97679246Y-62746321D01*
X97679246Y-62746321D02*
X97210170Y-63346710D01*
X97210170Y-63346710D02*
X97167950Y-63555442D01*
X97167950Y-63555442D02*
X97184364Y-63689125D01*
X97184364Y-63689125D02*
X97275827Y-63881442D01*
X97275827Y-63881442D02*
X97500973Y-64057345D01*
X97500973Y-64057345D02*
X97709705Y-64099566D01*
X97709705Y-64099566D02*
X97843388Y-64083151D01*
X97843388Y-64083151D02*
X98035705Y-63991688D01*
X98035705Y-63991688D02*
X98504781Y-63391299D01*
X97848041Y-65778811D02*
X97890261Y-65570079D01*
X97890261Y-65570079D02*
X97873847Y-65436396D01*
X97873847Y-65436396D02*
X97782384Y-65244079D01*
X97782384Y-65244079D02*
X97332092Y-64892272D01*
X97332092Y-64892272D02*
X97123361Y-64850052D01*
X97123361Y-64850052D02*
X96989678Y-64866466D01*
X96989678Y-64866466D02*
X96797360Y-64957929D01*
X96797360Y-64957929D02*
X96621457Y-65183075D01*
X96621457Y-65183075D02*
X96579237Y-65391807D01*
X96579237Y-65391807D02*
X96595651Y-65525490D01*
X96595651Y-65525490D02*
X96687114Y-65717807D01*
X96687114Y-65717807D02*
X97137406Y-66069614D01*
X97137406Y-66069614D02*
X97346137Y-66111834D01*
X97346137Y-66111834D02*
X97479820Y-66095420D01*
X97479820Y-66095420D02*
X97672138Y-66003957D01*
X97672138Y-66003957D02*
X97848041Y-65778811D01*
X96909890Y-66979589D02*
X95333869Y-65748267D01*
X95934258Y-66217342D02*
X95741940Y-66308805D01*
X95741940Y-66308805D02*
X95507403Y-66608999D01*
X95507403Y-66608999D02*
X95465182Y-66817731D01*
X95465182Y-66817731D02*
X95481597Y-66951414D01*
X95481597Y-66951414D02*
X95573059Y-67143732D01*
X95573059Y-67143732D02*
X96023351Y-67495538D01*
X96023351Y-67495538D02*
X96232083Y-67537758D01*
X96232083Y-67537758D02*
X96365766Y-67521344D01*
X96365766Y-67521344D02*
X96558084Y-67429881D01*
X96558084Y-67429881D02*
X96792621Y-67129687D01*
X96792621Y-67129687D02*
X96834841Y-66920955D01*
X95619933Y-68630660D02*
X95662153Y-68421928D01*
X95662153Y-68421928D02*
X95645739Y-68288245D01*
X95645739Y-68288245D02*
X95554276Y-68095928D01*
X95554276Y-68095928D02*
X95103984Y-67744121D01*
X95103984Y-67744121D02*
X94895252Y-67701901D01*
X94895252Y-67701901D02*
X94761569Y-67718315D01*
X94761569Y-67718315D02*
X94569252Y-67809778D01*
X94569252Y-67809778D02*
X94393348Y-68034924D01*
X94393348Y-68034924D02*
X94351128Y-68243655D01*
X94351128Y-68243655D02*
X94367542Y-68377339D01*
X94367542Y-68377339D02*
X94459005Y-68569656D01*
X94459005Y-68569656D02*
X94909297Y-68921463D01*
X94909297Y-68921463D02*
X95118029Y-68963683D01*
X95118029Y-68963683D02*
X95251712Y-68947269D01*
X95251712Y-68947269D02*
X95444029Y-68855806D01*
X95444029Y-68855806D02*
X95619933Y-68630660D01*
X93040017Y-71932801D02*
X92699972Y-70821116D01*
X93743631Y-71032217D02*
X92167609Y-69800894D01*
X92167609Y-69800894D02*
X91698534Y-70401283D01*
X91698534Y-70401283D02*
X91656313Y-70610015D01*
X91656313Y-70610015D02*
X91672728Y-70743698D01*
X91672728Y-70743698D02*
X91764191Y-70936015D01*
X91764191Y-70936015D02*
X91989336Y-71111919D01*
X91989336Y-71111919D02*
X92198068Y-71154139D01*
X92198068Y-71154139D02*
X92331751Y-71137725D01*
X92331751Y-71137725D02*
X92524069Y-71046262D01*
X92524069Y-71046262D02*
X92993144Y-70445873D01*
X92336404Y-72833384D02*
X92378625Y-72624653D01*
X92378625Y-72624653D02*
X92362210Y-72490970D01*
X92362210Y-72490970D02*
X92270747Y-72298652D01*
X92270747Y-72298652D02*
X91820456Y-71946846D01*
X91820456Y-71946846D02*
X91611724Y-71904625D01*
X91611724Y-71904625D02*
X91478041Y-71921040D01*
X91478041Y-71921040D02*
X91285723Y-72012502D01*
X91285723Y-72012502D02*
X91109820Y-72237648D01*
X91109820Y-72237648D02*
X91067600Y-72446380D01*
X91067600Y-72446380D02*
X91084014Y-72580063D01*
X91084014Y-72580063D02*
X91175477Y-72772381D01*
X91175477Y-72772381D02*
X91625769Y-73124187D01*
X91625769Y-73124187D02*
X91834501Y-73166407D01*
X91834501Y-73166407D02*
X91968184Y-73149993D01*
X91968184Y-73149993D02*
X92160501Y-73058530D01*
X92160501Y-73058530D02*
X92336404Y-72833384D01*
X91398253Y-74034163D02*
X89822232Y-72802840D01*
X90422621Y-73271915D02*
X90230304Y-73363378D01*
X90230304Y-73363378D02*
X89995766Y-73663573D01*
X89995766Y-73663573D02*
X89953546Y-73872304D01*
X89953546Y-73872304D02*
X89969960Y-74005987D01*
X89969960Y-74005987D02*
X90061423Y-74198305D01*
X90061423Y-74198305D02*
X90511715Y-74550112D01*
X90511715Y-74550112D02*
X90720446Y-74592332D01*
X90720446Y-74592332D02*
X90854129Y-74575917D01*
X90854129Y-74575917D02*
X91046447Y-74484455D01*
X91046447Y-74484455D02*
X91280985Y-74184260D01*
X91280985Y-74184260D02*
X91323205Y-73975528D01*
X90284199Y-75460087D02*
X89233518Y-74639205D01*
X88708178Y-74228764D02*
X88841861Y-74212350D01*
X88841861Y-74212350D02*
X88858275Y-74346033D01*
X88858275Y-74346033D02*
X88724592Y-74362447D01*
X88724592Y-74362447D02*
X88708178Y-74228764D01*
X88708178Y-74228764D02*
X88858275Y-74346033D01*
X88647174Y-75389692D02*
X89697855Y-76210574D01*
X88797271Y-75506961D02*
X88663588Y-75523375D01*
X88663588Y-75523375D02*
X88471271Y-75614838D01*
X88471271Y-75614838D02*
X88295367Y-75839984D01*
X88295367Y-75839984D02*
X88253147Y-76048715D01*
X88253147Y-76048715D02*
X88344610Y-76241033D01*
X88344610Y-76241033D02*
X89170145Y-76886011D01*
D14*
X67464231Y-49274933D02*
X65940422Y-49274933D01*
X66702326Y-50036838D02*
X66702326Y-48513028D01*
X83720231Y-49274933D02*
X82196422Y-49274933D01*
X82958326Y-50036838D02*
X82958326Y-48513028D01*
X92479136Y-98719742D02*
X91793422Y-98719742D01*
X92136279Y-99919742D02*
X92136279Y-98719742D01*
X91393421Y-99919742D02*
X91393421Y-99119742D01*
X91393421Y-98719742D02*
X91450564Y-98776885D01*
X91450564Y-98776885D02*
X91393421Y-98834028D01*
X91393421Y-98834028D02*
X91336278Y-98776885D01*
X91336278Y-98776885D02*
X91393421Y-98719742D01*
X91393421Y-98719742D02*
X91393421Y-98834028D01*
X90821992Y-99919742D02*
X90821992Y-99119742D01*
X90821992Y-99234028D02*
X90764849Y-99176885D01*
X90764849Y-99176885D02*
X90650564Y-99119742D01*
X90650564Y-99119742D02*
X90479135Y-99119742D01*
X90479135Y-99119742D02*
X90364849Y-99176885D01*
X90364849Y-99176885D02*
X90307707Y-99291171D01*
X90307707Y-99291171D02*
X90307707Y-99919742D01*
X90307707Y-99291171D02*
X90250564Y-99176885D01*
X90250564Y-99176885D02*
X90136278Y-99119742D01*
X90136278Y-99119742D02*
X89964849Y-99119742D01*
X89964849Y-99119742D02*
X89850564Y-99176885D01*
X89850564Y-99176885D02*
X89793421Y-99291171D01*
X89793421Y-99291171D02*
X89793421Y-99919742D01*
X89050564Y-99919742D02*
X89164849Y-99862600D01*
X89164849Y-99862600D02*
X89221992Y-99805457D01*
X89221992Y-99805457D02*
X89279135Y-99691171D01*
X89279135Y-99691171D02*
X89279135Y-99348314D01*
X89279135Y-99348314D02*
X89221992Y-99234028D01*
X89221992Y-99234028D02*
X89164849Y-99176885D01*
X89164849Y-99176885D02*
X89050564Y-99119742D01*
X89050564Y-99119742D02*
X88879135Y-99119742D01*
X88879135Y-99119742D02*
X88764849Y-99176885D01*
X88764849Y-99176885D02*
X88707707Y-99234028D01*
X88707707Y-99234028D02*
X88650564Y-99348314D01*
X88650564Y-99348314D02*
X88650564Y-99691171D01*
X88650564Y-99691171D02*
X88707707Y-99805457D01*
X88707707Y-99805457D02*
X88764849Y-99862600D01*
X88764849Y-99862600D02*
X88879135Y-99919742D01*
X88879135Y-99919742D02*
X89050564Y-99919742D01*
X87279135Y-99862600D02*
X87107707Y-99919742D01*
X87107707Y-99919742D02*
X86821992Y-99919742D01*
X86821992Y-99919742D02*
X86707707Y-99862600D01*
X86707707Y-99862600D02*
X86650564Y-99805457D01*
X86650564Y-99805457D02*
X86593421Y-99691171D01*
X86593421Y-99691171D02*
X86593421Y-99576885D01*
X86593421Y-99576885D02*
X86650564Y-99462600D01*
X86650564Y-99462600D02*
X86707707Y-99405457D01*
X86707707Y-99405457D02*
X86821992Y-99348314D01*
X86821992Y-99348314D02*
X87050564Y-99291171D01*
X87050564Y-99291171D02*
X87164849Y-99234028D01*
X87164849Y-99234028D02*
X87221992Y-99176885D01*
X87221992Y-99176885D02*
X87279135Y-99062600D01*
X87279135Y-99062600D02*
X87279135Y-98948314D01*
X87279135Y-98948314D02*
X87221992Y-98834028D01*
X87221992Y-98834028D02*
X87164849Y-98776885D01*
X87164849Y-98776885D02*
X87050564Y-98719742D01*
X87050564Y-98719742D02*
X86764849Y-98719742D01*
X86764849Y-98719742D02*
X86593421Y-98776885D01*
X85564850Y-99862600D02*
X85679135Y-99919742D01*
X85679135Y-99919742D02*
X85907707Y-99919742D01*
X85907707Y-99919742D02*
X86021992Y-99862600D01*
X86021992Y-99862600D02*
X86079135Y-99805457D01*
X86079135Y-99805457D02*
X86136278Y-99691171D01*
X86136278Y-99691171D02*
X86136278Y-99348314D01*
X86136278Y-99348314D02*
X86079135Y-99234028D01*
X86079135Y-99234028D02*
X86021992Y-99176885D01*
X86021992Y-99176885D02*
X85907707Y-99119742D01*
X85907707Y-99119742D02*
X85679135Y-99119742D01*
X85679135Y-99119742D02*
X85564850Y-99176885D01*
X85050564Y-99919742D02*
X85050564Y-98719742D01*
X84536279Y-99919742D02*
X84536279Y-99291171D01*
X84536279Y-99291171D02*
X84593421Y-99176885D01*
X84593421Y-99176885D02*
X84707707Y-99119742D01*
X84707707Y-99119742D02*
X84879136Y-99119742D01*
X84879136Y-99119742D02*
X84993421Y-99176885D01*
X84993421Y-99176885D02*
X85050564Y-99234028D01*
X83964850Y-99919742D02*
X83964850Y-99119742D01*
X83964850Y-98719742D02*
X84021993Y-98776885D01*
X84021993Y-98776885D02*
X83964850Y-98834028D01*
X83964850Y-98834028D02*
X83907707Y-98776885D01*
X83907707Y-98776885D02*
X83964850Y-98719742D01*
X83964850Y-98719742D02*
X83964850Y-98834028D01*
X83393421Y-99119742D02*
X83393421Y-99919742D01*
X83393421Y-99234028D02*
X83336278Y-99176885D01*
X83336278Y-99176885D02*
X83221993Y-99119742D01*
X83221993Y-99119742D02*
X83050564Y-99119742D01*
X83050564Y-99119742D02*
X82936278Y-99176885D01*
X82936278Y-99176885D02*
X82879136Y-99291171D01*
X82879136Y-99291171D02*
X82879136Y-99919742D01*
X81793422Y-99919742D02*
X81793422Y-98719742D01*
X81793422Y-99862600D02*
X81907707Y-99919742D01*
X81907707Y-99919742D02*
X82136279Y-99919742D01*
X82136279Y-99919742D02*
X82250564Y-99862600D01*
X82250564Y-99862600D02*
X82307707Y-99805457D01*
X82307707Y-99805457D02*
X82364850Y-99691171D01*
X82364850Y-99691171D02*
X82364850Y-99348314D01*
X82364850Y-99348314D02*
X82307707Y-99234028D01*
X82307707Y-99234028D02*
X82250564Y-99176885D01*
X82250564Y-99176885D02*
X82136279Y-99119742D01*
X82136279Y-99119742D02*
X81907707Y-99119742D01*
X81907707Y-99119742D02*
X81793422Y-99176885D01*
X81050565Y-99919742D02*
X81164850Y-99862600D01*
X81164850Y-99862600D02*
X81221993Y-99748314D01*
X81221993Y-99748314D02*
X81221993Y-98719742D01*
X80136279Y-99862600D02*
X80250565Y-99919742D01*
X80250565Y-99919742D02*
X80479137Y-99919742D01*
X80479137Y-99919742D02*
X80593422Y-99862600D01*
X80593422Y-99862600D02*
X80650565Y-99748314D01*
X80650565Y-99748314D02*
X80650565Y-99291171D01*
X80650565Y-99291171D02*
X80593422Y-99176885D01*
X80593422Y-99176885D02*
X80479137Y-99119742D01*
X80479137Y-99119742D02*
X80250565Y-99119742D01*
X80250565Y-99119742D02*
X80136279Y-99176885D01*
X80136279Y-99176885D02*
X80079137Y-99291171D01*
X80079137Y-99291171D02*
X80079137Y-99405457D01*
X80079137Y-99405457D02*
X80650565Y-99519742D01*
X79564851Y-99919742D02*
X79564851Y-99119742D01*
X79564851Y-99348314D02*
X79507708Y-99234028D01*
X79507708Y-99234028D02*
X79450566Y-99176885D01*
X79450566Y-99176885D02*
X79336280Y-99119742D01*
X79336280Y-99119742D02*
X79221994Y-99119742D01*
X77164851Y-99348314D02*
X77221994Y-99291171D01*
X77221994Y-99291171D02*
X77336280Y-99234028D01*
X77336280Y-99234028D02*
X77450565Y-99234028D01*
X77450565Y-99234028D02*
X77564851Y-99291171D01*
X77564851Y-99291171D02*
X77621994Y-99348314D01*
X77621994Y-99348314D02*
X77679137Y-99462600D01*
X77679137Y-99462600D02*
X77679137Y-99576885D01*
X77679137Y-99576885D02*
X77621994Y-99691171D01*
X77621994Y-99691171D02*
X77564851Y-99748314D01*
X77564851Y-99748314D02*
X77450565Y-99805457D01*
X77450565Y-99805457D02*
X77336280Y-99805457D01*
X77336280Y-99805457D02*
X77221994Y-99748314D01*
X77221994Y-99748314D02*
X77164851Y-99691171D01*
X77164851Y-99234028D02*
X77164851Y-99691171D01*
X77164851Y-99691171D02*
X77107708Y-99748314D01*
X77107708Y-99748314D02*
X77050565Y-99748314D01*
X77050565Y-99748314D02*
X76936280Y-99691171D01*
X76936280Y-99691171D02*
X76879137Y-99576885D01*
X76879137Y-99576885D02*
X76879137Y-99291171D01*
X76879137Y-99291171D02*
X76993423Y-99119742D01*
X76993423Y-99119742D02*
X77164851Y-99005457D01*
X77164851Y-99005457D02*
X77393423Y-98948314D01*
X77393423Y-98948314D02*
X77621994Y-99005457D01*
X77621994Y-99005457D02*
X77793423Y-99119742D01*
X77793423Y-99119742D02*
X77907708Y-99291171D01*
X77907708Y-99291171D02*
X77964851Y-99519742D01*
X77964851Y-99519742D02*
X77907708Y-99748314D01*
X77907708Y-99748314D02*
X77793423Y-99919742D01*
X77793423Y-99919742D02*
X77621994Y-100034028D01*
X77621994Y-100034028D02*
X77393423Y-100091171D01*
X77393423Y-100091171D02*
X77164851Y-100034028D01*
X77164851Y-100034028D02*
X76993423Y-99919742D01*
X75450565Y-99919742D02*
X75450565Y-98719742D01*
X75450565Y-99176885D02*
X75336280Y-99119742D01*
X75336280Y-99119742D02*
X75107708Y-99119742D01*
X75107708Y-99119742D02*
X74993422Y-99176885D01*
X74993422Y-99176885D02*
X74936280Y-99234028D01*
X74936280Y-99234028D02*
X74879137Y-99348314D01*
X74879137Y-99348314D02*
X74879137Y-99691171D01*
X74879137Y-99691171D02*
X74936280Y-99805457D01*
X74936280Y-99805457D02*
X74993422Y-99862600D01*
X74993422Y-99862600D02*
X75107708Y-99919742D01*
X75107708Y-99919742D02*
X75336280Y-99919742D01*
X75336280Y-99919742D02*
X75450565Y-99862600D01*
X74193423Y-99919742D02*
X74307708Y-99862600D01*
X74307708Y-99862600D02*
X74364851Y-99748314D01*
X74364851Y-99748314D02*
X74364851Y-98719742D01*
X73736280Y-99919742D02*
X73736280Y-99119742D01*
X73736280Y-98719742D02*
X73793423Y-98776885D01*
X73793423Y-98776885D02*
X73736280Y-98834028D01*
X73736280Y-98834028D02*
X73679137Y-98776885D01*
X73679137Y-98776885D02*
X73736280Y-98719742D01*
X73736280Y-98719742D02*
X73736280Y-98834028D01*
X73164851Y-99119742D02*
X73164851Y-99919742D01*
X73164851Y-99234028D02*
X73107708Y-99176885D01*
X73107708Y-99176885D02*
X72993423Y-99119742D01*
X72993423Y-99119742D02*
X72821994Y-99119742D01*
X72821994Y-99119742D02*
X72707708Y-99176885D01*
X72707708Y-99176885D02*
X72650566Y-99291171D01*
X72650566Y-99291171D02*
X72650566Y-99919742D01*
X72079137Y-99919742D02*
X72079137Y-98719742D01*
X71964852Y-99462600D02*
X71621994Y-99919742D01*
X71621994Y-99119742D02*
X72079137Y-99576885D01*
X71221994Y-99119742D02*
X70936280Y-99919742D01*
X70650565Y-99119742D02*
X70936280Y-99919742D01*
X70936280Y-99919742D02*
X71050565Y-100205457D01*
X71050565Y-100205457D02*
X71107708Y-100262600D01*
X71107708Y-100262600D02*
X71221994Y-100319742D01*
X70193422Y-99119742D02*
X70193422Y-100319742D01*
X70193422Y-99176885D02*
X70079137Y-99119742D01*
X70079137Y-99119742D02*
X69850565Y-99119742D01*
X69850565Y-99119742D02*
X69736279Y-99176885D01*
X69736279Y-99176885D02*
X69679137Y-99234028D01*
X69679137Y-99234028D02*
X69621994Y-99348314D01*
X69621994Y-99348314D02*
X69621994Y-99691171D01*
X69621994Y-99691171D02*
X69679137Y-99805457D01*
X69679137Y-99805457D02*
X69736279Y-99862600D01*
X69736279Y-99862600D02*
X69850565Y-99919742D01*
X69850565Y-99919742D02*
X70079137Y-99919742D01*
X70079137Y-99919742D02*
X70193422Y-99862600D01*
X68593423Y-99919742D02*
X68593423Y-99291171D01*
X68593423Y-99291171D02*
X68650565Y-99176885D01*
X68650565Y-99176885D02*
X68764851Y-99119742D01*
X68764851Y-99119742D02*
X68993423Y-99119742D01*
X68993423Y-99119742D02*
X69107708Y-99176885D01*
X68593423Y-99862600D02*
X68707708Y-99919742D01*
X68707708Y-99919742D02*
X68993423Y-99919742D01*
X68993423Y-99919742D02*
X69107708Y-99862600D01*
X69107708Y-99862600D02*
X69164851Y-99748314D01*
X69164851Y-99748314D02*
X69164851Y-99634028D01*
X69164851Y-99634028D02*
X69107708Y-99519742D01*
X69107708Y-99519742D02*
X68993423Y-99462600D01*
X68993423Y-99462600D02*
X68707708Y-99462600D01*
X68707708Y-99462600D02*
X68593423Y-99405457D01*
X68021994Y-99919742D02*
X68021994Y-99119742D01*
X68021994Y-99348314D02*
X67964851Y-99234028D01*
X67964851Y-99234028D02*
X67907709Y-99176885D01*
X67907709Y-99176885D02*
X67793423Y-99119742D01*
X67793423Y-99119742D02*
X67679137Y-99119742D01*
X67450566Y-99119742D02*
X66993423Y-99119742D01*
X67279137Y-98719742D02*
X67279137Y-99748314D01*
X67279137Y-99748314D02*
X67221994Y-99862600D01*
X67221994Y-99862600D02*
X67107709Y-99919742D01*
X67107709Y-99919742D02*
X66993423Y-99919742D01*
X66650566Y-99862600D02*
X66536280Y-99919742D01*
X66536280Y-99919742D02*
X66307709Y-99919742D01*
X66307709Y-99919742D02*
X66193423Y-99862600D01*
X66193423Y-99862600D02*
X66136280Y-99748314D01*
X66136280Y-99748314D02*
X66136280Y-99691171D01*
X66136280Y-99691171D02*
X66193423Y-99576885D01*
X66193423Y-99576885D02*
X66307709Y-99519742D01*
X66307709Y-99519742D02*
X66479138Y-99519742D01*
X66479138Y-99519742D02*
X66593423Y-99462600D01*
X66593423Y-99462600D02*
X66650566Y-99348314D01*
X66650566Y-99348314D02*
X66650566Y-99291171D01*
X66650566Y-99291171D02*
X66593423Y-99176885D01*
X66593423Y-99176885D02*
X66479138Y-99119742D01*
X66479138Y-99119742D02*
X66307709Y-99119742D01*
X66307709Y-99119742D02*
X66193423Y-99176885D01*
X65621994Y-99805457D02*
X65564851Y-99862600D01*
X65564851Y-99862600D02*
X65621994Y-99919742D01*
X65621994Y-99919742D02*
X65679137Y-99862600D01*
X65679137Y-99862600D02*
X65621994Y-99805457D01*
X65621994Y-99805457D02*
X65621994Y-99919742D01*
X64536280Y-99862600D02*
X64650565Y-99919742D01*
X64650565Y-99919742D02*
X64879137Y-99919742D01*
X64879137Y-99919742D02*
X64993422Y-99862600D01*
X64993422Y-99862600D02*
X65050565Y-99805457D01*
X65050565Y-99805457D02*
X65107708Y-99691171D01*
X65107708Y-99691171D02*
X65107708Y-99348314D01*
X65107708Y-99348314D02*
X65050565Y-99234028D01*
X65050565Y-99234028D02*
X64993422Y-99176885D01*
X64993422Y-99176885D02*
X64879137Y-99119742D01*
X64879137Y-99119742D02*
X64650565Y-99119742D01*
X64650565Y-99119742D02*
X64536280Y-99176885D01*
X63850566Y-99919742D02*
X63964851Y-99862600D01*
X63964851Y-99862600D02*
X64021994Y-99805457D01*
X64021994Y-99805457D02*
X64079137Y-99691171D01*
X64079137Y-99691171D02*
X64079137Y-99348314D01*
X64079137Y-99348314D02*
X64021994Y-99234028D01*
X64021994Y-99234028D02*
X63964851Y-99176885D01*
X63964851Y-99176885D02*
X63850566Y-99119742D01*
X63850566Y-99119742D02*
X63679137Y-99119742D01*
X63679137Y-99119742D02*
X63564851Y-99176885D01*
X63564851Y-99176885D02*
X63507709Y-99234028D01*
X63507709Y-99234028D02*
X63450566Y-99348314D01*
X63450566Y-99348314D02*
X63450566Y-99691171D01*
X63450566Y-99691171D02*
X63507709Y-99805457D01*
X63507709Y-99805457D02*
X63564851Y-99862600D01*
X63564851Y-99862600D02*
X63679137Y-99919742D01*
X63679137Y-99919742D02*
X63850566Y-99919742D01*
X62936280Y-99919742D02*
X62936280Y-99119742D01*
X62936280Y-99234028D02*
X62879137Y-99176885D01*
X62879137Y-99176885D02*
X62764852Y-99119742D01*
X62764852Y-99119742D02*
X62593423Y-99119742D01*
X62593423Y-99119742D02*
X62479137Y-99176885D01*
X62479137Y-99176885D02*
X62421995Y-99291171D01*
X62421995Y-99291171D02*
X62421995Y-99919742D01*
X62421995Y-99291171D02*
X62364852Y-99176885D01*
X62364852Y-99176885D02*
X62250566Y-99119742D01*
X62250566Y-99119742D02*
X62079137Y-99119742D01*
X62079137Y-99119742D02*
X61964852Y-99176885D01*
X61964852Y-99176885D02*
X61907709Y-99291171D01*
X61907709Y-99291171D02*
X61907709Y-99919742D01*
X80835714Y-64897814D02*
X80621428Y-64969242D01*
X80621428Y-64969242D02*
X80549999Y-65040671D01*
X80549999Y-65040671D02*
X80478571Y-65183528D01*
X80478571Y-65183528D02*
X80478571Y-65397814D01*
X80478571Y-65397814D02*
X80549999Y-65540671D01*
X80549999Y-65540671D02*
X80621428Y-65612100D01*
X80621428Y-65612100D02*
X80764285Y-65683528D01*
X80764285Y-65683528D02*
X81335714Y-65683528D01*
X81335714Y-65683528D02*
X81335714Y-64183528D01*
X81335714Y-64183528D02*
X80835714Y-64183528D01*
X80835714Y-64183528D02*
X80692857Y-64254957D01*
X80692857Y-64254957D02*
X80621428Y-64326385D01*
X80621428Y-64326385D02*
X80549999Y-64469242D01*
X80549999Y-64469242D02*
X80549999Y-64612100D01*
X80549999Y-64612100D02*
X80621428Y-64754957D01*
X80621428Y-64754957D02*
X80692857Y-64826385D01*
X80692857Y-64826385D02*
X80835714Y-64897814D01*
X80835714Y-64897814D02*
X81335714Y-64897814D01*
X79192857Y-65683528D02*
X79192857Y-64897814D01*
X79192857Y-64897814D02*
X79264285Y-64754957D01*
X79264285Y-64754957D02*
X79407142Y-64683528D01*
X79407142Y-64683528D02*
X79692857Y-64683528D01*
X79692857Y-64683528D02*
X79835714Y-64754957D01*
X79192857Y-65612100D02*
X79335714Y-65683528D01*
X79335714Y-65683528D02*
X79692857Y-65683528D01*
X79692857Y-65683528D02*
X79835714Y-65612100D01*
X79835714Y-65612100D02*
X79907142Y-65469242D01*
X79907142Y-65469242D02*
X79907142Y-65326385D01*
X79907142Y-65326385D02*
X79835714Y-65183528D01*
X79835714Y-65183528D02*
X79692857Y-65112100D01*
X79692857Y-65112100D02*
X79335714Y-65112100D01*
X79335714Y-65112100D02*
X79192857Y-65040671D01*
X78692856Y-64683528D02*
X78121428Y-64683528D01*
X78478571Y-64183528D02*
X78478571Y-65469242D01*
X78478571Y-65469242D02*
X78407142Y-65612100D01*
X78407142Y-65612100D02*
X78264285Y-65683528D01*
X78264285Y-65683528D02*
X78121428Y-65683528D01*
X77835713Y-64683528D02*
X77264285Y-64683528D01*
X77621428Y-64183528D02*
X77621428Y-65469242D01*
X77621428Y-65469242D02*
X77549999Y-65612100D01*
X77549999Y-65612100D02*
X77407142Y-65683528D01*
X77407142Y-65683528D02*
X77264285Y-65683528D01*
X76192856Y-65612100D02*
X76335713Y-65683528D01*
X76335713Y-65683528D02*
X76621428Y-65683528D01*
X76621428Y-65683528D02*
X76764285Y-65612100D01*
X76764285Y-65612100D02*
X76835713Y-65469242D01*
X76835713Y-65469242D02*
X76835713Y-64897814D01*
X76835713Y-64897814D02*
X76764285Y-64754957D01*
X76764285Y-64754957D02*
X76621428Y-64683528D01*
X76621428Y-64683528D02*
X76335713Y-64683528D01*
X76335713Y-64683528D02*
X76192856Y-64754957D01*
X76192856Y-64754957D02*
X76121428Y-64897814D01*
X76121428Y-64897814D02*
X76121428Y-65040671D01*
X76121428Y-65040671D02*
X76835713Y-65183528D01*
X75478571Y-65683528D02*
X75478571Y-64683528D01*
X75478571Y-64969242D02*
X75407142Y-64826385D01*
X75407142Y-64826385D02*
X75335714Y-64754957D01*
X75335714Y-64754957D02*
X75192856Y-64683528D01*
X75192856Y-64683528D02*
X75049999Y-64683528D01*
X74550000Y-65683528D02*
X74550000Y-64683528D01*
X74550000Y-64183528D02*
X74621428Y-64254957D01*
X74621428Y-64254957D02*
X74550000Y-64326385D01*
X74550000Y-64326385D02*
X74478571Y-64254957D01*
X74478571Y-64254957D02*
X74550000Y-64183528D01*
X74550000Y-64183528D02*
X74550000Y-64326385D01*
X73264285Y-65612100D02*
X73407142Y-65683528D01*
X73407142Y-65683528D02*
X73692857Y-65683528D01*
X73692857Y-65683528D02*
X73835714Y-65612100D01*
X73835714Y-65612100D02*
X73907142Y-65469242D01*
X73907142Y-65469242D02*
X73907142Y-64897814D01*
X73907142Y-64897814D02*
X73835714Y-64754957D01*
X73835714Y-64754957D02*
X73692857Y-64683528D01*
X73692857Y-64683528D02*
X73407142Y-64683528D01*
X73407142Y-64683528D02*
X73264285Y-64754957D01*
X73264285Y-64754957D02*
X73192857Y-64897814D01*
X73192857Y-64897814D02*
X73192857Y-65040671D01*
X73192857Y-65040671D02*
X73907142Y-65183528D01*
D11*
X75159400Y-78613142D02*
X75159400Y-80898857D01*
X76302257Y-79755999D02*
X74016542Y-79755999D01*
D14*
X82457141Y-90412100D02*
X82242856Y-90483528D01*
X82242856Y-90483528D02*
X81885713Y-90483528D01*
X81885713Y-90483528D02*
X81742856Y-90412100D01*
X81742856Y-90412100D02*
X81671427Y-90340671D01*
X81671427Y-90340671D02*
X81599998Y-90197814D01*
X81599998Y-90197814D02*
X81599998Y-90054957D01*
X81599998Y-90054957D02*
X81671427Y-89912100D01*
X81671427Y-89912100D02*
X81742856Y-89840671D01*
X81742856Y-89840671D02*
X81885713Y-89769242D01*
X81885713Y-89769242D02*
X82171427Y-89697814D01*
X82171427Y-89697814D02*
X82314284Y-89626385D01*
X82314284Y-89626385D02*
X82385713Y-89554957D01*
X82385713Y-89554957D02*
X82457141Y-89412100D01*
X82457141Y-89412100D02*
X82457141Y-89269242D01*
X82457141Y-89269242D02*
X82385713Y-89126385D01*
X82385713Y-89126385D02*
X82314284Y-89054957D01*
X82314284Y-89054957D02*
X82171427Y-88983528D01*
X82171427Y-88983528D02*
X81814284Y-88983528D01*
X81814284Y-88983528D02*
X81599998Y-89054957D01*
X80314285Y-90412100D02*
X80457142Y-90483528D01*
X80457142Y-90483528D02*
X80742856Y-90483528D01*
X80742856Y-90483528D02*
X80885713Y-90412100D01*
X80885713Y-90412100D02*
X80957142Y-90340671D01*
X80957142Y-90340671D02*
X81028570Y-90197814D01*
X81028570Y-90197814D02*
X81028570Y-89769242D01*
X81028570Y-89769242D02*
X80957142Y-89626385D01*
X80957142Y-89626385D02*
X80885713Y-89554957D01*
X80885713Y-89554957D02*
X80742856Y-89483528D01*
X80742856Y-89483528D02*
X80457142Y-89483528D01*
X80457142Y-89483528D02*
X80314285Y-89554957D01*
X79671428Y-90483528D02*
X79671428Y-88983528D01*
X79028571Y-90483528D02*
X79028571Y-89697814D01*
X79028571Y-89697814D02*
X79099999Y-89554957D01*
X79099999Y-89554957D02*
X79242856Y-89483528D01*
X79242856Y-89483528D02*
X79457142Y-89483528D01*
X79457142Y-89483528D02*
X79599999Y-89554957D01*
X79599999Y-89554957D02*
X79671428Y-89626385D01*
X77671428Y-90483528D02*
X77671428Y-89697814D01*
X77671428Y-89697814D02*
X77742856Y-89554957D01*
X77742856Y-89554957D02*
X77885713Y-89483528D01*
X77885713Y-89483528D02*
X78171428Y-89483528D01*
X78171428Y-89483528D02*
X78314285Y-89554957D01*
X77671428Y-90412100D02*
X77814285Y-90483528D01*
X77814285Y-90483528D02*
X78171428Y-90483528D01*
X78171428Y-90483528D02*
X78314285Y-90412100D01*
X78314285Y-90412100D02*
X78385713Y-90269242D01*
X78385713Y-90269242D02*
X78385713Y-90126385D01*
X78385713Y-90126385D02*
X78314285Y-89983528D01*
X78314285Y-89983528D02*
X78171428Y-89912100D01*
X78171428Y-89912100D02*
X77814285Y-89912100D01*
X77814285Y-89912100D02*
X77671428Y-89840671D01*
X76742856Y-90483528D02*
X76885713Y-90412100D01*
X76885713Y-90412100D02*
X76957142Y-90269242D01*
X76957142Y-90269242D02*
X76957142Y-88983528D01*
X76385713Y-89483528D02*
X75814285Y-89483528D01*
X76171428Y-88983528D02*
X76171428Y-90269242D01*
X76171428Y-90269242D02*
X76099999Y-90412100D01*
X76099999Y-90412100D02*
X75957142Y-90483528D01*
X75957142Y-90483528D02*
X75814285Y-90483528D01*
X74742856Y-90412100D02*
X74885713Y-90483528D01*
X74885713Y-90483528D02*
X75171428Y-90483528D01*
X75171428Y-90483528D02*
X75314285Y-90412100D01*
X75314285Y-90412100D02*
X75385713Y-90269242D01*
X75385713Y-90269242D02*
X75385713Y-89697814D01*
X75385713Y-89697814D02*
X75314285Y-89554957D01*
X75314285Y-89554957D02*
X75171428Y-89483528D01*
X75171428Y-89483528D02*
X74885713Y-89483528D01*
X74885713Y-89483528D02*
X74742856Y-89554957D01*
X74742856Y-89554957D02*
X74671428Y-89697814D01*
X74671428Y-89697814D02*
X74671428Y-89840671D01*
X74671428Y-89840671D02*
X75385713Y-89983528D01*
X74028571Y-90483528D02*
X74028571Y-89483528D01*
X74028571Y-89769242D02*
X73957142Y-89626385D01*
X73957142Y-89626385D02*
X73885714Y-89554957D01*
X73885714Y-89554957D02*
X73742856Y-89483528D01*
X73742856Y-89483528D02*
X73599999Y-89483528D01*
D15*
%TO.C,D2*%
X85725000Y-51816000D03*
D16*
X85725000Y-49276000D03*
%TD*%
D15*
%TO.C,D1*%
X69342000Y-51816000D03*
D16*
X69342000Y-49276000D03*
%TD*%
D17*
%TO.C,REF\u002A\u002A*%
X56800000Y-82850000D03*
%TD*%
%TO.C,REF\u002A\u002A*%
X98000000Y-82900000D03*
%TD*%
D18*
%TO.C,*%
X77610000Y-45110000D03*
%TD*%
D19*
%TO.C,Batterie*%
X77500000Y-76000000D03*
D20*
X77500000Y-56000000D03*
%TD*%
D21*
%TO.C,SW1*%
X67100000Y-89800000D03*
X89100000Y-89800000D03*
%TD*%
M02*
